SplineFontDB: 3.2
FontName: Makiwara-Italic
FullName: Makiwara-Italic
FamilyName: Makiwara
Weight: Italic
Copyright: Makiwara Italic is a font by Swrs. Rendered from the Metafont skeleton of the Computer Modern Typeface, originally created by Donald E. Knuth. 2021
Version: 001.002
ItalicAngle: 0
UnderlinePosition: -102
UnderlineWidth: 51
Ascent: 819
Descent: 205
InvalidEm: 0
LayerCount: 2
Layer: 0 0 "Back" 1
Layer: 1 0 "Fore" 0
StyleMap: 0x0000
FSType: 0
OS2Version: 0
OS2_WeightWidthSlopeOnly: 0
OS2_UseTypoMetrics: 0
CreationTime: 1622738539
ModificationTime: 1635254415
OS2TypoAscent: 0
OS2TypoAOffset: 1
OS2TypoDescent: 0
OS2TypoDOffset: 1
OS2TypoLinegap: 92
OS2WinAscent: 0
OS2WinAOffset: 1
OS2WinDescent: 0
OS2WinDOffset: 1
HheadAscent: 0
HheadAOffset: 1
HheadDescent: 0
HheadDOffset: 1
MarkAttachClasses: 1
DEI: 91125
Encoding: UnicodeBmp
UnicodeInterp: none
NameList: AGL For New Fonts
DisplaySize: -48
AntiAlias: 1
FitToEm: 0
WinInfo: 0 38 14
BeginPrivate: 3
lenIV 1 4
BlueValues 2 []
ForceBold 5 false
EndPrivate
BeginChars: 65537 409

StartChar: .notdef
Encoding: 65536 -1 0
Width: 704
Flags: HW
LayerCount: 2
Fore
SplineSet
536 638 m 0
 539 640 545 640 548 637 c 0
 549 636 552 632 555 627 c 0
 587 562 649 519 727 506 c 0
 747 503 748 501 740 474 c 0
 734 451 733 451 729 449 c 0
 726 447 724 447 713 449 c 0
 650 459 592 486 549 528 c 2
 542 536 l 1
 446 215 l 2
 393 39 349 -108 347 -110 c 0
 344 -116 338 -121 331 -125 c 0
 327 -127 323 -127 317 -127 c 0
 307 -127 301 -124 297 -118 c 0
 290 -108 283 -136 387 214 c 0
 439 388 482 530 482 531 c 1
 482 531 474 526 464 520 c 0
 403 484 333 459 267 449 c 0
 256 447 254 446 252 447 c 0
 247 449 245 454 245 458 c 0
 245 461 255 496 257 500 c 0
 259 503 261 504 274 506 c 0
 362 519 451 563 522 628 c 0
 528 633 534 637 536 638 c 0
EndSplineSet
EndChar

StartChar: quotesingle
Encoding: 39 39 1
Width: 704
Flags: HW
LayerCount: 2
Fore
SplineSet
536 676 m 0
 545 678 565 677 574 674 c 0
 585 670 594 664 601 658 c 0
 616 641 618 619 606 591 c 0
 603 581 483 363 480 360 c 0
 478 358 477 357 465 357 c 0
 449 357 444 358 442 362 c 0
 440 366 440 368 445 477 c 0
 449 538 453 591 453 595 c 0
 454 599 455 606 457 611 c 0
 467 640 488 661 519 671 c 0
 525 673 533 675 536 676 c 0
EndSplineSet
EndChar

StartChar: exclamdown
Encoding: 161 161 2
Width: 704
Flags: HW
LayerCount: 2
Fore
SplineSet
461 443 m 0
 494 450 525 438 536 411 c 0
 539 403 541 390 541 381 c 0
 539 359 526 336 509 321 c 0
 497 310 479 300 464 297 c 0
 416 287 377 322 387 369 c 0
 390 387 400 403 413 417 c 0
 427 430 444 439 461 443 c 0
399 224 m 0
 401 226 405 226 416 226 c 0
 427 226 430 226 433 224 c 0
 439 220 442 235 413 40 c 0
 399 -57 386 -139 385 -142 c 0
 382 -155 371 -171 358 -181 c 0
 330 -206 291 -213 264 -201 c 0
 249 -195 239 -184 234 -170 c 0
 231 -162 231 -147 234 -137 c 0
 235 -132 387 204 395 219 c 0
 396 221 398 224 399 224 c 0
EndSplineSet
EndChar

StartChar: questiondown
Encoding: 191 191 3
Width: 704
Flags: HW
LayerCount: 2
Fore
SplineSet
461 443 m 0
 494 450 525 438 536 411 c 0
 539 403 541 390 541 381 c 0
 539 359 526 336 509 321 c 0
 497 310 479 300 464 297 c 0
 416 287 377 322 387 369 c 0
 390 387 400 403 413 417 c 0
 427 430 444 439 461 443 c 0
384 224 m 0
 397 226 428 226 439 225 c 0
 462 222 479 215 493 202 c 0
 499 197 501 193 505 186 c 0
 510 174 512 165 512 151 c 0
 511 134 506 118 495 101 c 0
 485 85 463 67 443 57 c 0
 437 54 384 31 325 5 c 0
 266 -22 212 -44 207 -47 c 0
 187 -58 171 -72 164 -86 c 0
 160 -95 159 -107 161 -115 c 0
 169 -138 202 -155 250 -161 c 0
 267 -163 334 -164 370 -162 c 0
 413 -160 437 -158 462 -152 c 2
 475 -148 l 1
 469 -144 l 2
 462 -139 458 -135 454 -127 c 0
 445 -109 447 -86 457 -62 c 0
 468 -39 482 -25 505 -15 c 0
 517 -9 529 -6 542 -5 c 0
 555 -5 566 -7 577 -12 c 0
 591 -19 600 -31 603 -47 c 0
 605 -56 605 -62 604 -72 c 0
 602 -83 599 -91 593 -104 c 0
 586 -118 579 -128 569 -138 c 0
 536 -173 486 -194 410 -202 c 0
 377 -206 356 -206 306 -206 c 0
 253 -206 243 -206 213 -200 c 0
 169 -191 132 -171 114 -145 c 0
 90 -111 90 -67 114 -28 c 0
 126 -5 150 18 179 35 c 0
 196 46 216 54 321 100 c 0
 378 125 428 146 430 148 c 0
 436 151 444 158 446 162 c 0
 448 167 447 170 443 174 c 0
 438 180 432 181 413 182 c 0
 377 183 342 176 323 165 c 0
 312 158 303 148 299 138 c 0
 296 129 294 128 278 128 c 0
 263 128 259 129 257 134 c 0
 254 138 255 143 258 152 c 0
 263 162 271 173 279 181 c 0
 302 204 339 219 384 224 c 0
EndSplineSet
EndChar

StartChar: dotlessi
Encoding: 305 305 4
Width: 704
Flags: HW
LayerCount: 2
Fore
SplineSet
362 456 m 0
 373 457 413 456 428 455 c 0
 493 446 534 421 542 386 c 0
 546 373 544 356 538 342 c 0
 536 338 508 283 474 220 c 0
 440 154 413 100 411 96 c 0
 409 90 409 87 409 79 c 0
 410 67 412 62 419 53 c 0
 432 40 450 36 480 39 c 0
 529 46 576 74 605 113 c 0
 614 125 620 136 626 153 c 0
 629 161 632 162 647 162 c 0
 662 162 666 161 668 156 c 0
 671 152 670 148 666 137 c 0
 654 102 631 73 600 48 c 0
 566 21 529 4 486 -4 c 0
 472 -6 430 -6 412 -4 c 0
 336 6 295 36 295 79 c 0
 295 88 297 100 301 109 c 0
 303 113 331 166 365 231 c 0
 399 296 426 350 428 354 c 0
 430 360 430 364 430 372 c 0
 429 384 427 388 420 397 c 0
 407 410 388 415 358 412 c 0
 309 405 262 377 233 338 c 0
 224 326 219 315 213 298 c 0
 210 290 206 289 191 289 c 0
 176 289 173 290 171 295 c 0
 168 299 169 302 173 313 c 0
 185 348 208 377 239 402 c 0
 276 432 318 451 362 456 c 0
EndSplineSet
EndChar

StartChar: dotlessj
Encoding: 567 567 5
Width: 704
Flags: HW
LayerCount: 2
Fore
SplineSet
484 456 m 0
 496 457 539 456 554 455 c 0
 613 448 656 426 670 396 c 0
 677 381 679 365 677 349 c 0
 675 338 556 -60 551 -71 c 0
 549 -75 546 -82 543 -87 c 0
 504 -160 393 -204 258 -201 c 0
 207 -199 172 -192 147 -180 c 0
 114 -163 102 -136 110 -102 c 0
 120 -58 157 -28 201 -25 c 0
 240 -23 266 -47 264 -83 c 0
 262 -108 247 -137 230 -151 c 0
 225 -154 225 -155 227 -155 c 0
 232 -157 285 -157 296 -156 c 0
 328 -153 359 -141 386 -123 c 0
 408 -109 429 -85 438 -65 c 0
 440 -61 468 29 503 145 c 2
 563 347 l 1
 564 357 l 2
 565 374 561 384 550 395 c 0
 543 402 534 408 523 411 c 0
 514 413 486 413 470 411 c 0
 435 405 400 391 371 373 c 0
 355 363 346 354 333 341 c 0
 321 329 311 316 303 302 c 0
 299 295 296 291 294 290 c 0
 290 288 266 288 262 291 c 0
 259 292 256 297 256 301 c 0
 256 304 262 317 270 329 c 0
 315 398 398 447 484 456 c 0
EndSplineSet
EndChar

StartChar: grave
Encoding: 96 96 6
Width: 704
Flags: HW
LayerCount: 2
Fore
SplineSet
383 644 m 0
 386 644 390 645 393 645 c 0
 399 645 411 642 417 639 c 0
 420 637 456 613 495 584 c 0
 572 530 571 528 570 522 c 0
 569 519 556 499 552 496 c 0
 550 494 548 493 546 493 c 0
 542 493 358 530 350 532 c 0
 332 538 322 552 322 570 c 0
 322 602 350 637 383 644 c 0
EndSplineSet
EndChar

StartChar: acute
Encoding: 180 180 7
Width: 704
Flags: HW
LayerCount: 2
Fore
SplineSet
680 644 m 0
 691 646 706 644 715 638 c 0
 726 630 734 611 733 595 c 0
 731 575 718 554 701 543 c 0
 687 534 686 534 569 512 c 0
 511 502 462 493 460 493 c 0
 458 493 456 494 454 496 c 0
 451 498 451 500 450 506 c 0
 449 509 449 516 449 520 c 0
 449 527 449 528 451 530 c 0
 454 533 658 637 668 640 c 0
 671 641 676 643 680 644 c 0
EndSplineSet
EndChar

StartChar: caron
Encoding: 711 711 8
Width: 704
Flags: HW
LayerCount: 2
Fore
SplineSet
352 602 m 0
 354 603 356 604 358 604 c 0
 359 603 396 597 440 589 c 2
 521 574 l 1
 612 589 l 2
 696 603 704 604 707 603 c 0
 714 600 715 591 713 573 c 0
 713 567 712 565 710 564 c 0
 707 561 503 489 500 490 c 0
 498 490 349 557 341 561 c 0
 335 563 332 568 333 573 c 0
 334 574 337 582 341 589 c 0
 347 598 349 601 352 602 c 0
EndSplineSet
EndChar

StartChar: breve
Encoding: 728 728 9
Width: 704
Flags: HW
LayerCount: 2
Fore
SplineSet
328 638 m 0
 331 640 333 640 345 640 c 0
 359 640 364 639 366 635 c 0
 367 633 367 631 367 627 c 0
 365 613 365 608 367 603 c 0
 374 588 396 579 442 575 c 0
 459 573 552 573 580 574 c 0
 647 577 680 587 700 609 c 0
 706 615 711 622 714 630 c 0
 717 639 719 640 736 640 c 0
 744 640 751 640 752 639 c 0
 760 635 760 625 749 605 c 0
 722 552 659 520 561 509 c 0
 538 507 478 507 455 509 c 0
 409 514 379 524 353 541 c 0
 328 557 316 583 319 612 c 0
 320 626 324 636 328 638 c 0
EndSplineSet
EndChar

StartChar: macron
Encoding: 175 175 10
Width: 704
Flags: HW
LayerCount: 2
Fore
SplineSet
278 587 m 0
 281 588 770 588 773 587 c 0
 776 586 779 581 779 578 c 0
 779 575 768 539 767 536 c 0
 764 531 779 530 514 530 c 0
 297 530 268 530 265 532 c 0
 258 535 258 538 266 563 c 0
 271 581 274 585 278 587 c 0
EndSplineSet
EndChar

StartChar: ring
Encoding: 730 730 11
Width: 704
Flags: HW
LayerCount: 2
Fore
SplineSet
528 648 m 0
 536 649 558 649 567 648 c 0
 595 645 613 634 621 618 c 0
 624 611 624 610 624 601 c 0
 624 589 621 581 615 570 c 0
 610 562 597 549 588 544 c 0
 566 531 539 523 509 523 c 0
 470 523 443 535 434 554 c 0
 432 560 432 561 432 572 c 0
 432 582 432 585 434 591 c 0
 438 601 445 609 453 617 c 0
 462 625 467 629 478 635 c 0
 491 641 510 647 528 648 c 0
561 616 m 0
 553 617 520 617 511 616 c 0
 492 613 481 605 476 583 c 0
 470 560 478 555 519 555 c 0
 559 555 570 560 578 585 c 0
 581 595 582 603 579 608 c 0
 577 612 571 615 561 616 c 0
EndSplineSet
EndChar

StartChar: cedilla
Encoding: 184 184 12
Width: 704
Flags: HW
LayerCount: 2
Fore
SplineSet
344 8 m 0
 346 9 362 9 396 9 c 2
 445 9 l 1
 447 6 l 2
 451 2 453 -1 450 -11 c 2
 446 -19 l 1
 453 -19 l 2
 479 -22 503 -29 517 -35 c 0
 543 -47 555 -63 555 -87 c 0
 555 -121 535 -146 494 -162 c 0
 440 -185 362 -193 220 -193 c 2
 159 -193 l 1
 157 -190 l 2
 152 -186 152 -183 157 -170 c 0
 161 -155 162 -153 166 -151 c 0
 167 -151 187 -150 220 -150 c 0
 272 -149 294 -147 325 -144 c 0
 388 -139 427 -126 437 -108 c 0
 442 -99 443 -86 439 -81 c 0
 430 -68 399 -60 347 -60 c 0
 339 -60 332 -60 331 -59 c 0
 328 -58 325 -53 325 -50 c 0
 325 -47 339 0 341 4 c 0
 341 5 343 7 344 8 c 0
EndSplineSet
EndChar

StartChar: germandbls
Encoding: 223 223 13
Width: 704
Flags: HW
LayerCount: 2
Fore
SplineSet
515 645 m 0
 538 646 637 645 656 644 c 0
 702 639 731 630 751 615 c 0
 761 607 768 597 772 584 c 0
 774 574 773 555 770 544 c 0
 766 532 760 517 752 506 c 0
 742 490 728 475 695 443 c 0
 659 409 648 397 630 368 c 0
 618 349 612 337 608 326 c 2
 604 316 l 1
 606 312 l 2
 611 302 625 286 658 255 c 0
 684 230 691 221 700 204 c 0
 709 187 713 172 713 155 c 0
 713 131 704 108 689 85 c 0
 652 30 566 -8 486 -6 c 0
 459 -5 441 -1 422 9 c 0
 410 15 397 24 391 32 c 0
 385 39 379 52 377 60 c 0
 375 68 376 90 378 99 c 0
 381 107 387 121 392 127 c 0
 404 142 426 153 445 153 c 0
 469 153 485 139 488 119 c 0
 490 104 483 82 471 68 c 0
 465 62 453 53 447 51 c 0
 445 50 444 49 444 49 c 2
 444 47 463 41 477 39 c 0
 509 35 525 40 547 63 c 0
 562 79 575 100 584 124 c 0
 587 133 587 136 587 144 c 0
 588 159 582 169 562 189 c 0
 548 204 544 210 539 221 c 0
 529 243 526 272 532 303 c 0
 539 339 551 357 590 399 c 0
 606 416 610 424 618 439 c 0
 628 458 638 483 652 529 c 0
 661 562 661 570 651 581 c 0
 642 590 626 596 603 600 c 0
 590 602 544 603 517 601 c 0
 494 600 480 598 469 595 c 0
 463 593 461 592 456 588 c 0
 448 579 440 566 433 539 c 0
 431 532 409 431 383 317 c 0
 357 203 334 98 330 83 c 0
 312 4 292 -48 266 -90 c 0
 256 -107 245 -121 229 -137 c 0
 187 -180 139 -203 97 -201 c 0
 89 -200 81 -199 77 -198 c 0
 67 -195 52 -187 44 -181 c 0
 16 -157 10 -113 28 -73 c 0
 39 -50 53 -36 76 -26 c 0
 88 -20 100 -16 113 -15 c 0
 126 -15 136 -18 147 -23 c 0
 162 -31 171 -42 175 -59 c 0
 176 -66 176 -70 175 -78 c 0
 173 -93 167 -111 158 -123 c 2
 155 -128 l 1
 158 -125 l 2
 167 -115 172 -106 175 -95 c 0
 179 -80 189 -41 201 9 c 0
 210 48 289 403 289 404 c 0
 289 405 263 406 231 406 c 0
 176 406 173 406 170 408 c 0
 165 411 164 415 169 430 c 0
 173 445 175 449 179 450 c 0
 180 451 205 451 240 451 c 0
 295 451 299 451 299 453 c 0
 300 454 302 466 305 480 c 0
 312 509 316 520 324 535 c 0
 335 559 353 582 375 598 c 0
 411 627 454 641 515 645 c 0
154 -130 m 1
 154 -130 152 -130 147 -135 c 2
 143 -140 l 1
 148 -136 l 2
 151 -133 154 -130 154 -130 c 1
EndSplineSet
EndChar

StartChar: ae
Encoding: 230 230 14
Width: 704
Flags: HW
LayerCount: 2
Fore
SplineSet
472 456 m 0
 475 456 481 457 487 457 c 0
 494 456 498 456 503 453 c 0
 515 448 521 439 523 427 c 2
 524 421 l 1
 536 426 l 2
 562 438 591 448 620 452 c 0
 640 456 649 456 675 456 c 0
 703 456 715 455 734 449 c 0
 797 429 823 374 795 316 c 0
 785 297 775 284 759 271 c 0
 711 234 639 220 506 220 c 2
 466 220 l 1
 465 216 l 2
 462 203 456 177 454 168 c 0
 453 159 453 150 453 134 c 0
 453 108 454 100 462 84 c 0
 465 76 468 73 475 66 c 0
 484 57 492 51 503 47 c 0
 523 39 546 37 577 39 c 0
 640 44 695 69 734 109 c 0
 746 120 749 122 753 122 c 0
 758 122 761 120 768 112 c 0
 775 104 776 101 776 96 c 0
 776 91 772 86 760 74 c 0
 724 40 679 16 630 4 c 0
 581 -8 530 -9 488 0 c 0
 464 5 437 18 421 31 c 2
 412 38 l 1
 410 35 l 1
 405 19 393 7 378 -1 c 0
 347 -14 315 0 315 29 c 2
 315 37 l 1
 305 30 l 2
 300 27 289 20 281 15 c 0
 243 -3 210 -8 163 -5 c 0
 123 -2 96 4 69 16 c 0
 41 29 24 45 14 67 c 0
 1 96 2 124 19 164 c 0
 46 225 93 274 167 317 c 0
 184 327 224 348 247 357 c 0
 290 374 350 396 406 412 c 0
 432 418 429 417 432 423 c 0
 439 438 455 451 472 456 c 0
699 410 m 0
 688 412 664 414 649 412 c 0
 620 409 592 399 569 385 c 0
 538 368 511 336 495 300 c 0
 490 290 480 267 480 265 c 0
 480 263 562 264 584 266 c 0
 671 273 716 291 738 326 c 0
 746 340 749 361 745 373 c 0
 741 386 730 397 715 404 c 0
 712 405 704 408 699 410 c 0
414 369 m 1
 415 369 415 370 415 370 c 1
 415 370 408 368 401 365 c 0
 340 341 289 314 247 282 c 0
 201 248 161 201 143 160 c 0
 138 148 131 127 127 109 c 0
 124 98 124 94 124 83 c 0
 123 67 124 64 132 55 c 0
 142 46 155 41 179 39 c 0
 235 33 289 55 331 104 c 2
 337 112 l 1
 376 240 l 2
 396 310 414 368 414 369 c 1
EndSplineSet
EndChar

StartChar: oe
Encoding: 339 339 15
Width: 704
Flags: HW
LayerCount: 2
Fore
SplineSet
308 466 m 0
 316 467 353 466 362 465 c 0
 387 461 411 451 426 441 c 0
 444 430 460 414 469 398 c 2
 472 392 l 1
 483 400 l 2
 532 433 587 451 650 456 c 0
 670 458 698 457 713 454 c 0
 792 440 826 382 795 316 c 0
 785 296 773 281 755 268 c 0
 743 259 716 246 701 241 c 0
 656 227 600 220 513 220 c 2
 475 220 l 1
 473 214 l 2
 473 211 470 200 467 190 c 0
 451 123 456 83 486 58 c 0
 510 39 548 34 601 42 c 0
 654 51 700 74 734 109 c 0
 746 120 749 122 753 122 c 0
 758 122 761 120 768 112 c 0
 775 104 776 101 776 96 c 0
 776 91 772 86 760 74 c 0
 711 28 646 1 571 -5 c 0
 542 -7 512 -5 485 0 c 0
 462 5 437 16 420 28 c 0
 411 34 393 50 386 59 c 2
 383 63 l 1
 375 56 l 2
 364 47 346 33 335 26 c 0
 311 12 275 -4 249 -9 c 0
 167 -27 90 -8 52 42 c 0
 41 58 31 79 27 103 c 0
 25 113 25 117 25 141 c 0
 25 160 25 169 26 178 c 0
 32 216 45 257 62 292 c 0
 102 371 165 427 242 453 c 0
 262 460 283 464 308 466 c 0
343 421 m 0
 335 422 316 423 308 422 c 0
 269 416 233 388 208 346 c 0
 193 320 181 290 163 228 c 0
 139 152 134 126 134 96 c 0
 134 83 134 78 135 73 c 0
 140 56 151 42 165 35 c 0
 183 26 204 26 228 33 c 0
 276 48 311 87 338 150 c 0
 348 177 373 255 381 291 c 0
 387 317 388 325 388 349 c 0
 388 371 388 372 386 380 c 0
 379 400 363 415 343 421 c 0
699 410 m 0
 691 412 686 412 674 413 c 0
 651 413 632 409 610 402 c 0
 556 385 519 346 495 280 c 1
 488 265 l 1
 517 264 l 2
 547 264 581 265 606 267 c 0
 674 274 715 292 735 322 c 0
 746 337 750 360 745 374 c 0
 739 391 724 404 699 410 c 0
EndSplineSet
EndChar

StartChar: oslash
Encoding: 248 248 16
Width: 704
Flags: HW
LayerCount: 2
Fore
SplineSet
738 564 m 0
 744 566 749 564 759 554 c 0
 767 546 769 543 767 538 c 0
 767 536 741 510 710 479 c 0
 654 425 653 425 655 423 c 0
 661 419 677 405 683 398 c 0
 729 343 732 259 690 174 c 0
 673 140 654 114 626 87 c 0
 555 17 453 -19 340 -16 c 0
 297 -15 262 -9 231 2 c 2
 223 5 l 1
 207 -11 l 2
 154 -62 102 -113 99 -114 c 0
 94 -116 90 -113 81 -104 c 0
 72 -95 70 -92 72 -87 c 0
 72 -85 98 -60 129 -29 c 0
 185 25 185 26 183 28 c 0
 182 29 177 33 172 37 c 0
 117 83 103 166 137 251 c 0
 153 293 180 332 213 364 c 0
 284 434 386 470 500 467 c 0
 542 466 576 460 607 449 c 2
 615 445 l 1
 632 462 l 2
 679 507 736 563 738 564 c 0
505 422 m 0
 496 423 471 423 463 422 c 0
 438 420 426 418 409 413 c 0
 368 402 332 379 305 349 c 0
 277 316 260 283 243 225 c 0
 226 169 220 128 228 98 c 0
 230 90 237 77 238 78 c 0
 239 78 570 401 571 402 c 0
 571 403 557 411 547 414 c 0
 536 418 520 421 505 422 c 0
607 361 m 2
 602 372 l 2
 601 374 599 372 434 211 c 0
 343 122 267 48 267 48 c 2
 267 47 282 40 292 37 c 0
 330 25 385 25 430 38 c 0
 492 55 539 96 569 156 c 0
 586 192 606 250 612 291 c 0
 613 298 613 308 613 319 c 0
 613 338 612 348 607 361 c 2
EndSplineSet
EndChar

StartChar: AE
Encoding: 198 198 17
Width: 704
Flags: HW
LayerCount: 2
Fore
SplineSet
399 615 m 0
 401 616 472 616 609 616 c 0
 792 616 817 616 820 614 c 0
 824 613 825 610 825 606 c 0
 825 601 775 380 773 377 c 0
 771 374 768 373 754 373 c 0
 742 373 739 373 736 375 c 0
 731 378 731 382 733 393 c 0
 749 461 756 511 752 530 c 0
 750 539 744 547 737 555 c 0
 725 566 714 570 692 571 c 0
 680 571 678 571 674 569 c 0
 670 567 661 559 658 554 c 0
 656 549 646 526 641 511 c 0
 634 491 584 323 585 322 c 0
 587 321 601 329 608 335 c 0
 617 342 623 351 630 366 c 0
 634 375 645 408 651 426 c 0
 654 438 656 439 674 439 c 0
 689 439 693 438 695 432 c 0
 696 429 693 419 658 303 c 0
 638 234 620 174 618 169 c 0
 614 155 613 155 595 155 c 0
 580 155 575 156 573 162 c 0
 572 165 573 167 577 179 c 0
 583 198 589 223 590 234 c 0
 593 247 592 255 590 260 c 0
 587 266 577 273 571 273 c 0
 570 273 569 272 568 270 c 0
 563 254 523 119 520 108 c 0
 511 73 508 52 512 47 c 0
 513 45 514 45 527 45 c 0
 550 45 566 48 586 58 c 0
 604 67 628 87 639 102 c 0
 657 127 681 175 710 247 c 0
 715 261 720 273 722 274 c 0
 724 276 725 278 738 278 c 0
 747 278 754 277 756 276 c 0
 759 275 762 270 762 267 c 0
 762 264 661 10 658 5 c 0
 657 3 656 2 654 1 c 0
 651 0 327 0 324 1 c 0
 321 2 317 7 317 10 c 0
 317 13 325 37 327 40 c 0
 329 43 331 44 341 46 c 0
 351 47 360 52 366 59 c 0
 374 67 381 83 393 118 c 0
 397 131 440 271 440 273 c 0
 440 274 407 274 366 274 c 2
 290 274 l 1
 282 261 l 2
 242 196 215 145 196 94 c 0
 188 72 183 59 182 52 c 2
 182 46 l 1
 186 44 l 2
 189 43 191 41 193 39 c 0
 194 35 193 33 189 20 c 0
 184 4 184 3 180 2 c 0
 176 0 174 0 164 2 c 0
 129 11 86 11 53 3 c 0
 43 1 41 0 39 2 c 0
 37 2 35 5 34 7 c 0
 33 10 33 12 37 25 c 0
 39 32 42 39 42 40 c 0
 43 43 48 45 53 45 c 0
 68 47 87 63 118 100 c 0
 153 140 186 188 228 256 c 0
 238 271 247 285 249 286 c 0
 250 287 291 352 339 430 c 2
 428 571 l 1
 411 571 l 2
 402 571 393 572 392 572 c 0
 390 573 387 579 387 582 c 0
 387 585 394 608 396 611 c 0
 397 613 398 614 399 615 c 0
481 564 m 0
 478 565 474 566 473 566 c 0
 472 566 446 526 394 443 c 0
 352 375 317 321 317 321 c 2
 317 320 348 319 386 319 c 2
 455 319 l 1
 476 393 l 2
 507 493 507 497 507 524 c 0
 507 540 507 542 505 547 c 0
 501 555 494 560 481 564 c 0
EndSplineSet
EndChar

StartChar: OE
Encoding: 338 338 18
Width: 704
Flags: HW
LayerCount: 2
Fore
SplineSet
412 628 m 0
 415 629 435 629 457 628 c 0
 498 628 495 628 554 620 c 2
 573 617 l 1
 698 616 l 2
 787 616 823 616 825 615 c 0
 829 613 831 610 831 606 c 0
 831 601 780 382 778 378 c 0
 776 374 772 373 758 373 c 0
 743 373 739 374 736 380 c 0
 735 383 735 384 740 406 c 0
 758 484 762 523 753 540 c 0
 748 549 738 558 728 563 c 0
 715 569 708 571 682 571 c 2
 660 571 l 1
 657 568 l 2
 644 558 637 540 602 425 c 0
 590 382 579 346 579 345 c 2
 578 342 l 1
 590 342 l 2
 597 343 606 344 610 345 c 0
 625 349 641 358 649 368 c 0
 659 379 672 406 681 440 c 0
 688 462 688 461 706 462 c 0
 715 462 721 462 723 461 c 0
 726 460 729 455 729 452 c 0
 729 449 651 187 648 182 c 0
 646 178 643 177 627 177 c 0
 614 177 612 178 610 180 c 0
 606 184 605 188 609 200 c 0
 617 226 624 256 624 267 c 0
 624 274 621 280 617 285 c 0
 609 293 602 296 580 297 c 2
 564 297 l 1
 561 287 l 2
 559 282 547 240 534 195 c 0
 504 98 497 67 497 54 c 0
 497 44 495 45 524 45 c 0
 547 46 551 46 560 48 c 0
 595 57 628 81 648 111 c 0
 667 141 688 184 716 257 c 0
 719 265 722 273 724 274 c 0
 726 276 727 278 740 278 c 0
 749 278 756 277 758 276 c 0
 761 275 764 270 764 267 c 0
 764 264 669 16 665 6 c 0
 664 4 661 2 659 1 c 0
 658 0 623 0 530 0 c 0
 449 0 398 0 390 -1 c 0
 383 -2 363 -4 346 -6 c 0
 298 -12 289 -12 245 -12 c 0
 206 -11 192 -10 173 -7 c 0
 130 -2 103 12 94 32 c 0
 80 62 88 125 121 241 c 0
 153 353 182 441 202 489 c 0
 232 557 254 587 291 604 c 0
 320 618 355 626 412 628 c 0
478 583 m 0
 472 584 445 585 437 584 c 0
 408 581 384 570 370 556 c 0
 356 540 340 506 318 441 c 0
 298 383 257 245 242 184 c 0
 226 124 218 84 221 70 c 0
 224 53 236 41 259 35 c 0
 268 33 271 33 288 33 c 0
 305 33 307 33 316 35 c 0
 353 45 368 65 392 126 c 0
 398 140 497 471 502 489 c 0
 509 523 511 551 506 562 c 0
 502 571 492 579 478 583 c 0
EndSplineSet
EndChar

StartChar: Oslash
Encoding: 216 216 19
Width: 704
Flags: HW
LayerCount: 2
Fore
SplineSet
700 678 m 0
 704 681 709 680 720 674 c 0
 732 668 734 665 734 659 c 0
 734 655 735 656 707 620 c 2
 705 616 l 1
 711 615 l 2
 733 608 751 597 759 585 c 0
 776 560 774 506 751 415 c 0
 734 348 696 227 677 175 c 0
 647 94 619 49 587 27 c 0
 561 10 523 -2 474 -7 c 0
 441 -11 426 -11 349 -11 c 0
 277 -11 251 -11 233 -8 c 2
 229 -8 l 1
 210 -35 l 2
 197 -52 188 -62 186 -62 c 0
 182 -64 178 -63 168 -57 c 0
 157 -51 154 -48 154 -42 c 0
 155 -40 160 -32 169 -19 c 0
 177 -9 183 -1 183 -1 c 2
 183 0 178 1 172 3 c 0
 133 16 120 34 118 73 c 0
 116 121 132 193 183 356 c 0
 225 492 261 562 303 590 c 0
 329 607 367 619 416 624 c 0
 450 628 464 628 541 628 c 0
 612 628 628 628 654 625 c 2
 659 625 l 1
 678 650 l 2
 689 664 698 677 700 678 c 0
575 584 m 0
 557 585 494 585 477 584 c 0
 437 581 410 572 393 558 c 0
 384 552 382 548 377 536 c 0
 357 487 246 116 240 77 c 0
 239 73 239 73 240 74 c 0
 243 77 621 574 621 575 c 0
 621 577 597 583 575 584 c 0
648 537 m 0
 649 542 650 545 650 545 c 1
 650 545 567 436 467 303 c 0
 366 171 279 57 275 51 c 0
 270 46 267 41 267 40 c 0
 268 39 285 36 296 34 c 0
 313 32 382 31 408 33 c 0
 448 35 472 41 490 53 c 0
 500 60 507 68 511 78 c 0
 522 108 544 176 588 321 c 0
 626 449 644 513 648 537 c 0
EndSplineSet
EndChar

StartChar: exclam
Encoding: 33 33 21
Width: 704
Flags: HW
LayerCount: 2
Fore
SplineSet
527 651 m 0
 576 659 614 627 603 585 c 0
 602 580 573 515 522 404 c 0
 479 309 443 228 441 226 c 0
 440 223 438 221 437 220 c 0
 435 219 429 219 421 219 c 0
 404 219 399 221 399 231 c 0
 399 233 411 314 425 410 c 0
 444 542 452 586 453 591 c 0
 461 613 476 629 500 641 c 0
 511 646 517 649 527 651 c 0
375 148 m 0
 384 150 397 150 406 148 c 0
 428 144 445 128 450 106 c 0
 453 97 452 83 450 73 c 0
 435 11 353 -23 314 17 c 0
 306 25 302 33 299 44 c 0
 292 70 302 100 326 123 c 0
 341 136 356 144 375 148 c 0
EndSplineSet
EndChar

StartChar: quotedbl
Encoding: 34 34 22
Width: 704
Flags: HW
LayerCount: 2
Fore
SplineSet
416 676 m 0
 425 677 446 677 454 675 c 0
 469 671 480 662 487 652 c 0
 497 636 498 617 488 592 c 0
 487 589 459 534 425 473 c 0
 376 384 362 360 360 358 c 0
 356 356 332 356 328 359 c 0
 321 362 321 354 328 480 c 0
 334 605 334 601 341 618 c 0
 354 647 382 669 416 676 c 0
652 676 m 0
 664 678 683 677 694 674 c 0
 719 666 732 649 732 624 c 0
 732 614 731 605 726 594 c 0
 725 590 697 536 662 474 c 0
 615 387 599 360 597 359 c 0
 593 356 568 356 564 359 c 0
 558 362 558 356 564 479 c 0
 567 540 570 594 571 597 c 0
 573 607 579 623 584 630 c 0
 598 654 623 670 652 676 c 0
EndSplineSet
EndChar

StartChar: numbersign
Encoding: 35 35 23
Width: 704
Flags: HW
LayerCount: 2
Fore
SplineSet
458 639 m 0
 462 640 469 640 475 638 c 0
 481 636 490 628 492 621 c 0
 496 610 497 612 454 516 c 2
 414 430 l 1
 508 429 l 2
 560 429 603 429 603 430 c 1
 604 430 623 473 647 526 c 0
 672 578 692 623 693 626 c 0
 699 637 714 643 727 638 c 0
 734 636 742 628 744 621 c 0
 748 610 750 612 707 516 c 2
 667 430 l 1
 711 429 l 2
 761 428 760 429 767 421 c 0
 782 407 777 381 758 374 c 0
 753 372 749 372 696 372 c 2
 639 372 l 1
 587 256 l 1
 534 140 l 1
 601 140 l 1
 670 140 l 1
 675 136 l 2
 685 131 691 119 690 109 c 0
 688 99 683 91 674 86 c 2
 670 84 l 1
 588 83 l 1
 507 83 l 1
 469 1 l 2
 449 -44 429 -88 424 -97 c 0
 420 -107 415 -117 414 -119 c 0
 407 -126 393 -130 383 -126 c 0
 376 -124 368 -116 366 -109 c 0
 362 -98 360 -100 403 -4 c 2
 443 83 l 1
 349 83 l 2
 297 83 254 83 254 82 c 1
 253 82 234 39 210 -14 c 0
 185 -66 165 -111 164 -113 c 0
 158 -125 143 -131 130 -126 c 0
 123 -124 115 -116 113 -109 c 0
 109 -98 108 -100 151 -4 c 2
 190 83 l 1
 146 83 l 2
 96 84 97 83 90 91 c 0
 75 105 80 131 99 138 c 0
 104 140 108 140 161 140 c 2
 218 140 l 1
 270 256 l 1
 324 372 l 1
 256 372 l 2
 188 372 187 373 183 375 c 0
 174 380 169 387 167 397 c 0
 166 407 172 420 182 425 c 2
 188 429 l 1
 269 429 l 1
 350 430 l 1
 388 511 l 2
 408 556 428 600 433 609 c 0
 437 619 442 629 443 631 c 0
 446 634 453 638 458 639 c 0
523 256 m 1
 577 372 l 1
 481 372 l 1
 386 372 l 1
 334 256 l 1
 281 140 l 1
 376 140 l 1
 471 140 l 1
 523 256 l 1
EndSplineSet
EndChar

StartChar: dollar
Encoding: 36 36 24
Width: 704
Flags: HW
LayerCount: 2
Fore
SplineSet
563 655 m 0
 577 656 607 655 617 653 c 0
 644 647 668 631 683 611 c 0
 695 595 704 570 706 545 c 0
 708 517 701 482 690 460 c 0
 678 434 654 415 625 408 c 0
 614 405 596 405 586 407 c 0
 557 415 541 438 545 468 c 0
 549 498 564 523 589 539 c 0
 607 551 623 555 645 555 c 2
 657 554 l 1
 657 557 l 2
 655 566 648 580 640 589 c 0
 615 618 566 620 529 596 c 0
 509 583 494 563 482 531 c 0
 476 516 471 500 446 420 c 2
 424 344 l 1
 462 343 l 2
 504 342 504 342 506 335 c 0
 507 332 507 329 503 317 c 0
 501 309 499 304 497 302 c 2
 494 299 l 1
 452 298 l 1
 411 298 l 1
 388 223 l 2
 376 182 364 145 362 141 c 0
 358 131 348 110 344 103 c 0
 342 99 341 98 342 98 c 0
 343 97 352 94 362 91 c 0
 411 73 442 67 475 67 c 0
 490 67 497 67 511 72 c 0
 528 77 543 86 555 98 c 0
 564 108 570 117 573 127 c 0
 578 139 580 139 596 139 c 0
 610 139 613 138 616 134 c 0
 620 129 617 117 608 100 c 0
 591 64 560 34 521 15 c 0
 478 -7 438 -11 387 -1 c 0
 362 3 341 10 299 25 c 0
 287 29 275 33 275 33 c 2
 274 33 269 31 264 27 c 0
 224 4 175 -7 129 -6 c 0
 112 -5 99 -2 88 3 c 0
 64 14 59 34 72 61 c 0
 81 80 96 97 121 109 c 0
 138 117 152 122 175 126 c 0
 186 128 218 128 234 127 c 2
 245 126 l 1
 249 138 l 2
 251 144 262 183 274 224 c 2
 297 298 l 1
 272 298 l 2
 245 299 245 299 242 303 c 0
 239 307 240 312 243 325 c 0
 249 344 247 343 283 343 c 2
 310 343 l 1
 313 353 l 2
 315 358 325 392 336 428 c 0
 356 498 359 503 369 523 c 0
 381 547 394 566 411 583 c 0
 450 624 503 649 563 655 c 0
190 54 m 2
 184 55 160 56 156 55 c 0
 141 54 132 51 129 45 c 0
 127 42 127 42 128 40 c 0
 131 38 138 38 148 38 c 0
 161 40 178 44 190 51 c 2
 196 53 l 1
 190 54 l 2
EndSplineSet
EndChar

StartChar: percent
Encoding: 37 37 25
Width: 704
Flags: HW
LayerCount: 2
Fore
SplineSet
388 758 m 0
 395 759 410 759 418 758 c 0
 427 756 439 749 445 744 c 0
 447 742 457 734 464 726 c 0
 490 701 516 686 550 677 c 0
 567 673 582 671 601 671 c 0
 628 671 649 675 674 684 c 0
 690 691 701 697 715 708 c 0
 728 717 732 721 744 736 c 0
 750 743 757 752 759 753 c 0
 770 761 786 760 796 751 c 0
 798 750 800 745 802 743 c 0
 805 736 806 725 802 718 c 0
 801 716 651 527 469 301 c 0
 165 -80 138 -113 133 -115 c 0
 115 -125 91 -112 91 -90 c 0
 91 -87 92 -82 93 -80 c 0
 94 -76 399 305 627 589 c 2
 666 638 l 1
 656 635 l 1
 599 622 541 627 490 653 c 2
 474 662 l 1
 474 654 l 2
 471 629 462 595 451 568 c 0
 435 526 411 493 383 473 c 0
 373 465 351 454 340 451 c 0
 328 448 310 447 298 449 c 0
 255 456 228 482 220 523 c 0
 219 534 219 559 221 572 c 0
 225 602 237 635 253 664 c 0
 283 717 332 751 388 758 c 0
407 713 m 0
 404 714 399 715 397 715 c 0
 385 715 370 704 359 688 c 0
 354 681 344 651 327 592 c 0
 317 557 308 524 306 516 c 0
 306 508 308 501 313 496 c 0
 316 493 317 493 324 493 c 0
 353 493 387 524 407 571 c 0
 416 591 425 627 428 645 c 0
 429 656 429 677 428 685 c 0
 425 699 417 710 407 713 c 0
593 191 m 0
 600 192 617 192 623 191 c 0
 642 187 660 174 668 158 c 0
 677 140 679 127 679 100 c 0
 678 75 674 57 665 26 c 0
 642 -43 606 -91 559 -111 c 0
 546 -117 537 -118 521 -118 c 0
 492 -119 473 -111 454 -96 c 0
 442 -86 432 -70 427 -51 c 0
 424 -38 423 -13 425 4 c 0
 430 36 443 69 459 98 c 0
 490 150 538 184 593 191 c 0
610 147 m 0
 604 148 599 148 593 146 c 0
 581 142 568 130 561 116 c 0
 551 93 515 -26 512 -50 c 0
 511 -57 513 -66 517 -70 c 2
 521 -74 l 1
 529 -74 l 2
 543 -74 558 -66 573 -51 c 0
 595 -29 610 -5 621 32 c 0
 631 61 634 80 634 100 c 0
 634 126 625 142 610 147 c 0
EndSplineSet
EndChar

StartChar: ampersand
Encoding: 38 38 26
Width: 704
Flags: HW
LayerCount: 2
Fore
SplineSet
379 651 m 0
 419 654 464 649 494 638 c 0
 533 623 552 597 551 563 c 0
 549 532 533 503 506 486 c 0
 479 469 447 465 423 477 c 0
 398 488 389 513 396 543 c 0
 401 567 415 587 433 600 c 2
 440 606 l 1
 435 606 l 2
 422 608 393 608 385 607 c 0
 358 604 334 591 318 574 c 0
 303 559 293 540 282 510 c 0
 279 499 264 451 263 445 c 0
 262 442 262 442 264 442 c 0
 274 447 306 455 325 457 c 0
 339 459 374 459 384 457 c 0
 406 452 422 441 430 426 c 0
 439 409 438 387 428 365 c 0
 418 343 403 328 380 316 c 0
 357 306 338 302 308 303 c 0
 278 304 257 308 237 315 c 2
 225 319 l 1
 221 308 l 2
 212 286 205 266 195 233 c 0
 185 198 181 187 180 165 c 0
 179 126 189 97 212 78 c 0
 250 45 304 32 394 32 c 0
 435 32 476 35 507 39 c 0
 563 47 614 66 654 93 c 0
 668 102 677 109 690 123 c 0
 722 154 746 190 760 231 c 0
 768 256 771 273 769 289 c 0
 766 314 758 331 726 370 c 0
 718 380 707 394 703 400 c 2
 695 413 l 2
 695 414 692 413 690 412 c 0
 687 412 673 407 659 403 c 0
 619 392 603 386 591 378 c 0
 574 367 563 350 561 330 c 2
 560 324 l 1
 563 329 l 2
 587 365 637 377 666 353 c 0
 669 351 671 347 674 341 c 0
 678 333 678 332 679 323 c 0
 679 310 677 300 671 287 c 0
 663 270 649 257 633 249 c 0
 620 244 609 242 595 242 c 0
 575 243 557 249 543 260 c 0
 531 270 521 286 517 302 c 0
 515 314 516 335 519 347 c 0
 528 378 547 398 580 415 c 0
 595 423 613 430 651 443 c 0
 668 448 689 456 695 459 c 0
 728 471 756 489 780 508 c 2
 791 516 l 1
 783 518 l 2
 769 522 760 531 755 542 c 0
 748 556 750 576 759 595 c 0
 779 637 835 655 866 627 c 0
 869 624 873 620 876 614 c 0
 879 606 879 605 879 595 c 0
 879 583 877 576 871 560 c 0
 861 535 846 516 826 494 c 0
 802 471 774 450 745 435 c 0
 738 432 738 432 739 430 c 0
 742 425 754 407 767 391 c 0
 791 359 802 341 808 321 c 0
 812 307 814 299 813 282 c 0
 813 268 813 263 811 254 c 0
 803 218 784 174 759 140 c 0
 733 103 697 71 658 48 c 0
 581 4 493 -14 369 -12 c 0
 350 -11 328 -11 321 -10 c 0
 243 -4 188 11 142 39 c 0
 92 70 65 111 60 164 c 0
 57 198 67 239 91 286 c 0
 108 320 125 344 150 369 c 2
 161 381 l 1
 159 388 l 2
 154 401 153 410 153 432 c 0
 153 448 153 453 155 464 c 0
 167 522 205 576 256 609 c 0
 267 617 296 632 309 636 c 0
 328 643 356 649 379 651 c 0
379 413 m 0
 371 415 345 415 335 413 c 0
 310 409 283 394 267 379 c 2
 262 373 l 1
 266 368 l 2
 278 354 301 346 333 347 c 0
 360 348 372 355 383 369 c 0
 388 377 392 390 392 398 c 0
 391 403 391 405 388 408 c 0
 386 409 382 412 379 413 c 0
EndSplineSet
EndChar

StartChar: quoteright
Encoding: 8217 8217 27
Width: 704
Flags: HW
LayerCount: 2
Fore
SplineSet
523 638 m 0
 540 642 561 639 575 633 c 0
 605 619 622 588 622 545 c 0
 622 517 615 489 601 456 c 0
 563 366 490 288 400 241 c 0
 380 231 362 223 358 223 c 0
 354 223 350 226 344 234 c 0
 337 245 336 249 339 254 c 0
 340 258 341 259 360 266 c 0
 374 273 392 282 408 292 c 0
 477 335 533 401 561 472 c 0
 567 487 572 504 574 514 c 0
 575 518 575 521 575 522 c 0
 576 523 572 521 568 517 c 0
 554 503 536 495 518 492 c 0
 494 487 473 492 459 505 c 0
 452 511 444 525 443 537 c 0
 440 562 452 593 474 613 c 0
 489 626 505 635 523 638 c 0
EndSplineSet
EndChar

StartChar: parenleft
Encoding: 40 40 28
Width: 704
Flags: HW
LayerCount: 2
Fore
SplineSet
753 746 m 2
 776 759 l 1
 788 759 l 2
 800 759 803 759 806 757 c 0
 810 754 812 748 810 743 c 0
 809 739 808 738 791 728 c 0
 732 692 681 653 632 602 c 0
 500 468 414 292 396 117 c 0
 394 92 394 34 396 11 c 0
 403 -49 419 -101 444 -144 c 0
 459 -170 475 -189 498 -212 c 0
 507 -221 514 -229 515 -230 c 0
 517 -235 515 -243 510 -245 c 0
 508 -247 504 -247 494 -247 c 2
 480 -247 l 1
 473 -242 l 2
 448 -226 411 -191 393 -167 c 0
 344 -106 313 -29 306 54 c 0
 293 204 351 371 466 514 c 0
 543 608 643 691 753 746 c 2
EndSplineSet
EndChar

StartChar: parenright
Encoding: 41 41 29
Width: 704
Flags: HW
LayerCount: 2
Fore
SplineSet
347 757 m 0
 349 759 354 759 364 759 c 2
 377 759 l 1
 384 754 l 2
 409 738 446 703 464 680 c 0
 503 632 531 572 543 512 c 0
 550 476 552 452 552 414 c 0
 552 377 550 352 543 315 c 0
 525 217 479 115 412 25 c 0
 332 -83 224 -174 104 -234 c 2
 81 -247 l 1
 69 -247 l 2
 57 -247 54 -247 51 -245 c 0
 47 -242 45 -236 47 -231 c 0
 48 -227 50 -226 67 -216 c 0
 126 -180 176 -141 225 -90 c 0
 357 44 443 220 461 395 c 0
 463 420 463 478 461 501 c 0
 454 561 438 613 413 656 c 0
 398 682 382 701 359 724 c 0
 350 733 343 741 342 742 c 0
 340 747 342 755 347 757 c 0
EndSplineSet
EndChar

StartChar: asterisk
Encoding: 42 42 30
Width: 704
Flags: HW
LayerCount: 2
Fore
SplineSet
569 758 m 0
 571 758 576 759 580 759 c 0
 600 759 615 743 612 726 c 0
 611 722 600 694 574 640 c 0
 554 596 537 559 537 559 c 1
 538 559 586 583 644 614 c 0
 703 644 754 670 757 671 c 0
 764 674 777 673 783 670 c 0
 792 665 799 654 800 643 c 0
 801 621 785 598 763 591 c 0
 760 589 711 575 657 561 c 0
 603 546 558 534 558 534 c 1
 558 534 596 520 642 506 c 0
 688 491 729 477 732 475 c 0
 739 471 742 465 743 455 c 0
 743 449 743 445 741 439 c 0
 733 413 707 393 684 394 c 0
 680 394 675 395 673 396 c 0
 671 397 636 423 596 454 c 0
 555 484 521 508 521 508 c 1
 521 507 516 472 511 428 c 0
 505 385 500 348 499 347 c 0
 498 340 492 333 486 326 c 0
 467 308 437 303 420 316 c 0
 413 321 409 334 412 344 c 0
 413 346 430 384 450 428 c 0
 470 471 486 507 486 507 c 2
 486 508 438 484 380 453 c 0
 321 423 270 397 267 396 c 0
 257 393 249 393 241 397 c 0
 235 400 230 405 227 411 c 0
 225 415 225 417 225 427 c 2
 225 439 l 1
 229 449 l 2
 234 459 244 469 254 474 c 0
 257 476 295 487 362 505 c 0
 419 520 466 534 466 534 c 1
 466 534 427 547 380 562 c 0
 321 581 292 591 290 593 c 0
 282 599 279 610 281 622 c 0
 286 645 304 665 327 671 c 0
 334 674 344 673 350 671 c 0
 352 670 387 644 428 614 c 2
 502 559 l 2
 503 559 508 596 513 640 c 0
 523 718 524 722 527 728 c 0
 534 741 552 755 569 758 c 0
EndSplineSet
EndChar

StartChar: plus
Encoding: 43 43 31
Width: 704
Flags: HW
LayerCount: 2
Fore
SplineSet
504 557 m 0
 505 557 509 558 511 558 c 0
 526 558 540 544 540 529 c 0
 540 526 529 489 504 406 c 0
 485 340 468 286 468 286 c 2
 468 285 521 285 587 285 c 0
 723 285 712 285 722 275 c 0
 727 270 730 263 730 256 c 0
 730 246 723 234 714 230 c 2
 710 228 l 1
 580 227 l 1
 451 227 l 1
 413 100 l 2
 391 29 373 -29 372 -31 c 0
 366 -43 351 -49 338 -44 c 0
 327 -41 318 -28 318 -17 c 0
 318 -14 329 24 354 105 c 0
 373 170 389 224 390 225 c 2
 390 227 l 1
 269 227 l 1
 148 228 l 1
 143 230 l 2
 132 236 128 245 128 256 c 0
 128 267 132 276 143 282 c 2
 148 285 l 1
 278 285 l 1
 408 286 l 1
 446 413 l 2
 466 483 485 541 486 544 c 0
 489 550 496 555 504 557 c 0
EndSplineSet
EndChar

StartChar: comma
Encoding: 44 44 32
Width: 704
Flags: HW
LayerCount: 2
Fore
SplineSet
388 186 m 0
 421 191 454 181 472 158 c 0
 478 151 485 136 488 126 c 0
 492 113 493 107 493 89 c 0
 493 67 491 58 483 35 c 0
 454 -55 384 -137 293 -186 c 0
 269 -198 234 -213 227 -213 c 0
 223 -213 219 -209 212 -199 c 0
 207 -191 206 -186 208 -181 c 0
 210 -177 212 -176 225 -172 c 0
 286 -150 344 -109 386 -56 c 0
 409 -28 424 -2 436 29 c 2
 438 34 l 1
 432 29 l 2
 419 18 401 8 383 3 c 0
 375 1 370 1 356 1 c 0
 337 1 329 2 316 8 c 0
 304 14 296 23 291 34 c 0
 284 47 283 55 283 72 c 0
 284 81 284 88 286 93 c 0
 295 128 320 159 351 175 c 0
 363 180 377 184 388 186 c 0
EndSplineSet
EndChar

StartChar: hyphen
Encoding: 45 45 33
Width: 704
Flags: HW
LayerCount: 2
Fore
SplineSet
174 284 m 0
 175 284 290 285 429 285 c 0
 714 285 686 285 696 275 c 0
 707 264 707 248 696 237 c 0
 686 227 714 227 427 227 c 2
 174 228 l 1
 169 230 l 2
 158 235 154 244 154 256 c 0
 154 262 154 264 156 268 c 0
 160 276 166 282 174 284 c 0
EndSplineSet
EndChar

StartChar: period
Encoding: 46 46 34
Width: 704
Flags: HW
LayerCount: 2
Fore
SplineSet
387 185 m 0
 435 194 474 167 477 122 c 0
 478 95 466 64 443 40 c 0
 427 24 402 9 382 3 c 0
 369 0 346 -1 335 2 c 0
 320 6 304 17 297 27 c 0
 287 40 282 57 283 75 c 0
 284 89 287 100 294 115 c 0
 301 129 310 141 321 152 c 0
 340 169 363 181 387 185 c 0
EndSplineSet
EndChar

StartChar: slash
Encoding: 47 47 35
Width: 704
Flags: HW
LayerCount: 2
Fore
SplineSet
806 757 m 0
 812 760 822 759 828 756 c 0
 834 753 839 748 842 743 c 0
 845 736 846 725 842 718 c 0
 839 713 67 -233 60 -239 c 0
 46 -252 24 -247 15 -230 c 0
 12 -224 11 -213 15 -206 c 0
 18 -201 790 745 797 751 c 0
 800 754 804 757 806 757 c 0
EndSplineSet
EndChar

StartChar: zero
Encoding: 48 48 36
Width: 704
Flags: HW
LayerCount: 2
Fore
SplineSet
512 628 m 0
 526 629 568 628 582 627 c 0
 647 618 696 589 725 546 c 0
 741 523 752 496 757 463 c 0
 759 449 759 403 757 387 c 0
 746 293 706 203 648 132 c 0
 635 117 609 91 595 78 c 0
 535 29 464 -1 386 -10 c 0
 371 -12 325 -12 311 -10 c 0
 260 -4 219 13 187 40 c 0
 156 67 136 109 130 158 c 0
 122 225 141 311 181 391 c 0
 250 529 370 615 512 628 c 0
559 582 m 0
 549 584 519 586 510 584 c 0
 463 579 426 564 391 536 c 0
 380 528 359 506 350 493 c 0
 327 462 310 426 293 376 c 0
 286 357 268 298 261 270 c 0
 235 180 234 123 256 84 c 0
 262 74 276 59 287 52 c 0
 338 18 423 28 486 76 c 0
 520 101 545 133 569 180 c 0
 585 214 601 250 620 317 c 0
 644 397 650 431 650 467 c 0
 650 506 642 531 620 553 c 0
 604 567 585 577 559 582 c 0
EndSplineSet
EndChar

StartChar: one
Encoding: 49 49 37
Width: 704
Flags: HW
LayerCount: 2
Fore
SplineSet
570 625 m 0
 571 626 576 626 580 626 c 0
 594 626 604 616 603 604 c 0
 603 599 591 557 537 376 c 0
 500 254 469 149 468 143 c 0
 462 119 459 94 462 82 c 0
 467 55 493 47 573 45 c 0
 603 45 603 44 605 42 c 0
 610 38 610 34 605 19 c 0
 600 1 599 0 587 1 c 0
 582 1 565 2 549 3 c 0
 479 8 426 9 343 9 c 0
 307 8 267 8 255 7 c 0
 220 5 181 3 161 1 c 0
 139 0 137 0 134 7 c 0
 133 10 133 12 137 25 c 0
 141 40 143 43 147 44 c 0
 148 45 158 45 168 45 c 0
 226 45 269 53 292 65 c 0
 299 69 309 77 314 83 c 0
 325 96 339 120 348 145 c 0
 350 151 374 233 403 326 c 0
 431 419 454 496 455 497 c 0
 455 499 455 499 454 499 c 0
 453 498 446 496 439 493 c 0
 391 471 330 458 284 458 c 2
 269 458 l 1
 266 461 l 2
 262 465 262 468 267 483 c 0
 273 502 272 502 294 503 c 0
 353 505 408 519 463 548 c 0
 498 565 526 584 558 614 c 0
 564 619 569 625 570 625 c 0
EndSplineSet
EndChar

StartChar: two
Encoding: 50 50 38
Width: 704
Flags: HW
LayerCount: 2
Fore
SplineSet
473 628 m 0
 481 629 520 629 537 628 c 0
 618 623 679 601 718 564 c 0
 737 545 750 523 756 494 c 0
 758 486 758 479 758 466 c 0
 758 409 737 375 678 335 c 0
 628 302 558 272 434 230 c 0
 409 222 384 213 378 211 c 0
 322 192 265 158 224 122 c 2
 214 113 l 1
 251 112 l 2
 289 111 308 109 384 104 c 0
 461 98 481 97 521 97 c 0
 552 97 561 97 571 98 c 0
 618 105 652 119 674 142 c 0
 683 152 688 159 692 171 c 0
 697 182 699 182 714 183 c 0
 725 183 728 183 730 181 c 0
 735 179 737 175 737 170 c 0
 735 159 720 124 708 105 c 0
 686 72 654 41 621 22 c 0
 568 -10 518 -18 460 -7 c 0
 432 -2 409 6 359 29 c 0
 317 47 296 55 272 61 c 0
 258 65 238 68 223 68 c 0
 212 68 209 68 202 66 c 0
 190 62 179 54 168 43 c 0
 154 29 146 18 138 -5 c 0
 136 -11 132 -12 117 -12 c 0
 107 -12 103 -12 100 -10 c 0
 96 -7 94 -3 96 4 c 0
 99 19 118 57 132 80 c 0
 145 98 156 112 173 129 c 0
 220 178 281 217 351 245 c 0
 357 247 377 254 393 259 c 0
 499 295 550 321 588 359 c 0
 613 385 624 404 633 440 c 0
 638 460 639 471 639 490 c 0
 639 509 638 519 631 531 c 0
 626 541 612 555 602 561 c 0
 575 577 533 586 482 585 c 0
 369 581 277 536 244 469 c 0
 234 449 230 434 233 422 c 0
 239 400 258 392 289 396 c 0
 325 402 358 422 380 452 c 0
 390 465 397 481 397 490 c 0
 397 495 392 503 384 512 c 0
 379 516 375 520 375 521 c 0
 374 524 374 529 376 532 c 0
 378 535 397 551 401 552 c 0
 406 554 412 551 421 541 c 0
 428 534 431 529 435 521 c 0
 443 505 444 494 439 476 c 0
 436 465 424 440 416 429 c 0
 382 384 325 353 271 351 c 0
 254 351 241 353 228 359 c 0
 208 368 196 383 190 406 c 0
 187 417 187 437 190 450 c 0
 202 495 233 533 279 565 c 0
 325 598 394 622 457 627 c 0
 464 628 471 628 473 628 c 0
EndSplineSet
EndChar

StartChar: three
Encoding: 51 51 39
Width: 704
Flags: HW
LayerCount: 2
Fore
SplineSet
502 628 m 0
 517 629 581 628 595 627 c 0
 648 621 686 609 719 587 c 0
 730 580 745 565 751 556 c 0
 757 547 764 532 766 523 c 0
 774 488 767 453 743 418 c 0
 732 400 719 387 700 371 c 0
 675 352 640 333 606 322 c 0
 600 320 595 318 595 317 c 1
 594 317 598 315 603 312 c 0
 643 290 666 264 675 225 c 0
 677 217 677 213 677 196 c 0
 678 174 676 164 670 146 c 0
 667 135 656 116 649 106 c 0
 604 46 509 3 394 -8 c 0
 355 -12 296 -13 268 -10 c 0
 206 -4 160 14 130 42 c 0
 120 51 115 60 108 73 c 0
 99 92 96 114 100 138 c 0
 107 175 126 200 157 215 c 0
 174 224 197 227 213 224 c 0
 236 219 252 203 256 183 c 0
 258 175 257 157 254 148 c 0
 250 134 241 119 231 108 c 0
 222 97 201 84 186 79 c 0
 182 78 176 77 171 76 c 2
 163 75 l 1
 166 72 l 2
 167 70 172 66 176 63 c 0
 206 43 260 32 322 32 c 0
 395 32 448 45 488 72 c 0
 498 78 515 94 523 106 c 0
 545 136 560 185 560 222 c 0
 560 245 556 256 543 269 c 0
 536 276 532 280 524 283 c 0
 509 291 493 295 470 297 c 0
 463 298 438 298 412 298 c 0
 366 298 363 298 360 300 c 0
 358 301 356 304 355 306 c 0
 354 309 354 311 358 323 c 0
 364 346 359 343 419 343 c 0
 482 343 502 344 530 351 c 0
 565 360 591 373 610 393 c 0
 630 413 644 437 653 470 c 0
 658 486 659 498 659 512 c 0
 659 536 653 550 637 561 c 0
 611 579 576 586 513 585 c 0
 446 583 404 576 364 563 c 0
 326 551 301 535 283 511 c 0
 273 497 264 478 264 467 c 0
 264 462 265 460 267 456 c 0
 275 444 296 437 322 438 c 0
 357 440 383 454 392 473 c 0
 395 478 395 481 395 486 c 0
 395 494 392 502 383 511 c 0
 379 515 376 519 375 521 c 0
 374 524 374 529 376 532 c 0
 378 535 397 551 401 552 c 0
 404 553 410 552 414 548 c 0
 424 540 435 520 439 507 c 0
 441 499 441 483 439 475 c 0
 435 460 425 443 413 432 c 0
 389 409 353 396 315 394 c 0
 285 393 259 401 241 416 c 0
 218 434 213 461 226 494 c 0
 251 560 318 603 423 620 c 0
 446 624 468 626 502 628 c 0
EndSplineSet
EndChar

StartChar: four
Encoding: 52 52 40
Width: 704
Flags: HW
LayerCount: 2
Fore
SplineSet
563 628 m 0
 580 631 598 626 609 616 c 0
 615 610 621 600 622 591 c 0
 622 581 620 573 611 548 c 0
 561 400 454 261 296 142 c 0
 267 122 231 96 201 78 c 2
 190 73 l 1
 227 72 l 2
 285 71 308 67 391 47 c 0
 408 43 424 40 424 41 c 2
 424 41 434 75 446 117 c 0
 471 196 474 205 482 215 c 0
 491 226 509 238 524 240 c 0
 548 245 571 236 579 220 c 0
 583 210 585 200 583 190 c 0
 582 185 569 146 557 102 c 2
 532 24 l 1
 549 23 l 2
 581 23 619 26 650 32 c 0
 669 36 670 36 679 22 c 0
 687 12 688 6 684 1 c 0
 682 -2 678 -4 658 -8 c 0
 612 -18 583 -22 546 -22 c 0
 523 -22 519 -23 519 -24 c 0
 482 -147 479 -157 470 -168 c 0
 457 -183 434 -195 415 -195 c 0
 403 -195 390 -190 381 -183 c 0
 372 -175 368 -158 370 -145 c 0
 370 -141 380 -108 391 -72 c 0
 401 -35 411 -5 411 -4 c 1
 410 -4 343 11 326 15 c 0
 285 23 265 26 223 27 c 0
 174 27 126 24 100 19 c 0
 92 18 87 16 73 9 c 0
 54 0 49 -1 44 2 c 0
 41 3 33 15 30 22 c 0
 26 29 28 34 38 42 c 0
 48 49 59 54 75 58 c 0
 86 62 125 85 159 108 c 0
 206 141 247 174 292 219 c 0
 337 265 370 307 404 359 c 0
 446 422 477 486 502 558 c 0
 506 572 512 587 514 591 c 0
 523 608 541 623 563 628 c 0
EndSplineSet
EndChar

StartChar: five
Encoding: 53 53 41
Width: 704
Flags: HW
LayerCount: 2
Fore
SplineSet
331 627 m 0
 335 630 338 630 346 627 c 0
 356 623 380 616 396 613 c 0
 498 589 612 594 729 624 c 0
 741 627 752 629 753 629 c 0
 757 629 762 625 763 621 c 0
 764 617 764 616 759 600 c 2
 756 589 l 1
 744 581 l 2
 702 551 653 525 604 507 c 0
 576 498 537 487 504 483 c 0
 489 481 483 481 446 481 c 0
 403 481 388 482 353 486 c 0
 344 488 336 489 336 489 c 1
 336 488 296 357 296 356 c 1
 297 356 301 358 306 360 c 0
 352 382 408 393 476 393 c 0
 554 393 609 378 650 345 c 0
 665 333 675 320 684 302 c 0
 694 280 698 260 697 233 c 0
 694 174 662 117 608 73 c 0
 558 33 490 5 414 -6 c 0
 363 -13 305 -14 263 -8 c 0
 212 -1 171 16 144 41 c 0
 134 50 128 59 122 71 c 0
 114 87 112 98 112 117 c 0
 112 139 116 157 125 175 c 0
 142 209 179 231 216 231 c 0
 241 231 263 220 272 202 c 0
 278 188 279 173 275 155 c 0
 268 124 249 98 220 85 c 0
 207 78 200 76 180 73 c 2
 177 73 l 1
 180 70 l 2
 184 66 196 58 206 53 c 0
 253 29 340 23 402 38 c 0
 419 42 434 47 450 54 c 0
 470 64 483 74 498 89 c 0
 525 116 540 146 556 200 c 0
 571 253 574 278 568 301 c 0
 558 332 523 349 471 349 c 0
 431 349 388 343 357 333 c 0
 324 323 301 311 268 287 c 0
 263 284 262 284 255 284 c 0
 247 284 241 286 238 290 c 0
 235 293 231 300 231 304 c 0
 231 307 321 605 325 617 c 0
 327 622 329 625 331 627 c 0
EndSplineSet
EndChar

StartChar: six
Encoding: 54 54 42
Width: 704
Flags: HW
LayerCount: 2
Fore
SplineSet
586 628 m 0
 595 629 645 628 653 627 c 0
 686 623 712 612 731 598 c 0
 741 590 748 581 754 570 c 0
 761 556 762 547 762 529 c 0
 762 514 762 511 760 501 c 0
 752 469 739 447 714 432 c 0
 699 422 685 418 666 417 c 0
 654 417 650 417 643 419 c 0
 617 426 603 444 603 471 c 0
 603 495 615 521 633 538 c 0
 648 554 671 564 691 566 c 0
 699 566 699 566 697 568 c 0
 694 572 682 579 672 582 c 0
 633 595 571 593 516 579 c 0
 484 570 453 555 426 538 c 0
 408 526 395 515 380 499 c 0
 341 460 315 409 291 334 c 0
 287 324 284 313 283 310 c 0
 282 306 282 306 295 319 c 0
 327 350 359 372 400 388 c 0
 420 396 439 402 465 406 c 0
 480 408 532 408 554 406 c 0
 601 400 633 387 664 361 c 0
 681 346 693 330 702 311 c 0
 714 284 718 255 711 220 c 0
 702 177 684 140 660 110 c 0
 641 86 609 60 574 41 c 0
 560 33 526 17 513 12 c 0
 466 -6 413 -13 346 -12 c 0
 331 -11 312 -10 305 -10 c 0
 254 -4 215 11 184 36 c 0
 146 68 126 120 128 186 c 0
 130 223 139 269 153 314 c 0
 200 469 330 581 499 617 c 0
 527 622 548 626 586 628 c 0
505 362 m 0
 493 363 463 363 457 362 c 0
 456 362 449 362 445 361 c 0
 422 358 400 351 376 339 c 0
 349 327 328 312 308 292 c 0
 282 266 265 240 256 211 c 0
 252 198 246 170 244 151 c 0
 238 105 243 82 262 62 c 0
 276 47 296 38 326 32 c 0
 338 30 386 30 402 32 c 0
 437 36 462 45 489 62 c 0
 509 75 524 90 536 108 c 0
 550 130 557 147 574 202 c 0
 591 262 596 287 591 309 c 0
 589 318 584 326 575 336 c 0
 560 352 540 359 505 362 c 0
EndSplineSet
EndChar

StartChar: seven
Encoding: 55 55 43
Width: 704
Flags: HW
LayerCount: 2
Fore
SplineSet
271 627 m 0
 275 630 299 630 303 628 c 0
 307 625 309 621 309 616 c 0
 309 612 308 611 289 583 c 0
 286 578 283 573 283 573 c 1
 284 573 292 578 302 583 c 0
 354 609 410 624 468 628 c 0
 501 630 515 629 532 621 c 0
 544 615 555 607 575 588 c 0
 593 570 604 562 614 559 c 0
 621 557 624 557 640 557 c 0
 699 557 760 580 806 621 c 0
 810 624 813 627 815 628 c 0
 816 629 822 629 830 629 c 0
 844 629 849 628 851 621 c 0
 853 615 852 612 834 595 c 0
 740 503 657 388 595 264 c 0
 562 198 538 138 514 62 c 0
 504 31 499 23 487 11 c 0
 448 -26 389 -18 380 25 c 0
 377 38 380 51 393 89 c 0
 430 189 496 292 593 404 c 0
 620 435 633 450 677 495 c 2
 706 524 l 1
 694 521 l 2
 652 510 629 510 542 517 c 0
 471 522 380 521 329 513 c 0
 289 507 255 495 230 479 c 0
 220 472 204 456 198 447 c 0
 193 439 190 439 174 439 c 0
 159 439 157 440 154 445 c 0
 153 449 153 452 155 456 c 0
 159 464 269 626 271 627 c 0
EndSplineSet
EndChar

StartChar: eight
Encoding: 56 56 44
Width: 704
Flags: HW
LayerCount: 2
Fore
SplineSet
498 628 m 0
 514 629 586 628 604 627 c 0
 664 622 702 610 728 590 c 0
 741 580 752 564 756 548 c 0
 759 537 759 514 756 500 c 0
 749 468 735 442 712 420 c 0
 704 412 685 397 674 390 c 0
 654 378 623 362 596 353 c 0
 591 351 587 349 587 349 c 1
 587 349 595 345 604 340 c 0
 626 330 636 322 647 314 c 0
 658 306 672 293 679 284 c 0
 686 275 695 257 698 247 c 0
 705 223 705 198 696 169 c 0
 671 94 617 43 530 13 c 0
 496 2 456 -6 408 -10 c 0
 389 -12 307 -12 284 -10 c 0
 228 -6 189 2 159 16 c 0
 124 33 103 58 98 90 c 0
 96 101 97 127 100 139 c 0
 104 161 115 185 126 203 c 0
 156 251 211 288 293 315 c 2
 309 321 l 1
 302 325 l 2
 266 344 242 373 233 406 c 0
 230 418 230 439 232 452 c 0
 236 470 247 496 258 514 c 0
 290 564 347 601 423 617 c 0
 446 622 472 626 498 628 c 0
566 590 m 0
 553 591 499 591 477 590 c 0
 404 588 365 575 341 544 c 0
 331 531 323 511 324 501 c 0
 325 491 332 481 344 472 c 0
 352 467 529 377 532 377 c 0
 535 377 570 389 584 395 c 0
 627 414 657 441 672 472 c 0
 685 501 688 529 678 546 c 0
 677 549 673 554 669 558 c 0
 652 575 617 587 566 590 c 0
467 242 m 0
 413 269 369 291 368 291 c 0
 367 291 361 289 355 288 c 0
 298 270 258 248 229 219 c 0
 198 188 181 150 181 114 c 0
 181 102 183 94 187 84 c 0
 190 77 201 65 209 60 c 0
 225 48 257 38 293 34 c 0
 333 29 401 29 449 34 c 0
 518 40 558 58 583 93 c 0
 598 116 605 141 600 156 c 0
 597 166 586 177 572 187 c 0
 568 189 521 214 467 242 c 0
EndSplineSet
EndChar

StartChar: nine
Encoding: 57 57 45
Width: 704
Flags: HW
LayerCount: 2
Fore
SplineSet
497 628 m 0
 517 629 559 629 574 628 c 0
 636 623 684 604 717 571 c 0
 741 547 756 512 760 470 c 0
 762 454 761 413 758 396 c 0
 752 355 739 307 726 272 c 0
 718 253 699 216 688 198 c 0
 620 90 510 18 379 -5 c 0
 353 -9 333 -11 305 -12 c 0
 216 -14 156 6 136 47 c 0
 129 59 127 69 126 84 c 0
 125 106 129 125 139 145 c 0
 149 165 162 179 185 190 c 0
 199 197 206 199 222 200 c 0
 238 200 246 199 257 193 c 0
 286 180 293 148 278 111 c 0
 269 88 252 71 230 60 c 0
 220 55 204 50 198 50 c 0
 196 50 196 50 199 48 c 0
 209 42 232 35 254 33 c 0
 272 30 304 30 322 31 c 0
 375 35 422 50 465 78 c 0
 492 96 521 124 540 154 c 0
 565 189 580 224 600 291 c 2
 607 311 l 1
 593 298 l 2
 568 273 544 256 514 241 c 0
 487 228 464 219 436 214 c 0
 416 210 401 209 373 209 c 0
 324 211 292 217 263 230 c 0
 236 243 211 265 196 288 c 0
 180 313 172 342 175 373 c 0
 178 414 193 456 216 489 c 0
 240 525 278 556 331 584 c 0
 385 612 435 624 497 628 c 0
572 588 m 0
 565 590 557 590 540 590 c 0
 515 591 513 591 495 589 c 0
 459 586 429 574 400 555 c 0
 365 532 346 507 330 464 c 0
 325 450 308 393 303 375 c 0
 294 337 294 310 303 294 c 0
 308 287 323 271 330 267 c 0
 339 262 356 257 369 256 c 0
 385 253 419 252 434 254 c 0
 477 258 523 277 561 307 c 0
 571 315 590 334 598 345 c 0
 621 372 633 398 640 432 c 0
 650 481 652 518 644 537 c 0
 634 563 608 581 572 588 c 0
EndSplineSet
EndChar

StartChar: colon
Encoding: 58 58 46
Width: 704
Flags: HW
LayerCount: 2
Fore
SplineSet
466 449 m 0
 475 451 496 451 505 449 c 0
 519 445 535 434 542 424 c 0
 552 411 557 394 556 376 c 0
 555 362 552 351 545 336 c 0
 538 322 529 310 518 299 c 0
 507 289 497 282 482 275 c 0
 444 257 406 260 381 284 c 0
 367 298 358 322 362 346 c 0
 365 362 374 383 384 397 c 0
 403 423 435 444 466 449 c 0
387 185 m 0
 435 194 474 167 477 122 c 0
 478 95 466 64 443 40 c 0
 427 24 402 9 382 3 c 0
 369 0 346 -1 335 2 c 0
 320 6 304 17 297 27 c 0
 287 40 282 57 283 75 c 0
 284 89 287 100 294 115 c 0
 301 129 310 141 321 152 c 0
 340 169 363 181 387 185 c 0
EndSplineSet
EndChar

StartChar: semicolon
Encoding: 59 59 47
Width: 704
Flags: HW
LayerCount: 2
Fore
SplineSet
466 449 m 0
 475 451 496 451 505 449 c 0
 519 445 535 434 542 424 c 0
 552 411 557 394 556 376 c 0
 555 362 552 351 545 336 c 0
 538 322 529 310 518 299 c 0
 507 289 497 282 482 275 c 0
 444 257 406 260 381 284 c 0
 367 298 358 322 362 346 c 0
 365 362 374 383 384 397 c 0
 403 423 435 444 466 449 c 0
388 186 m 0
 397 187 411 187 420 186 c 0
 445 181 464 162 471 134 c 0
 480 100 474 57 455 10 c 0
 450 -2 437 -27 430 -39 c 0
 389 -108 326 -166 251 -204 c 0
 231 -214 226 -215 221 -210 c 0
 219 -209 215 -204 212 -199 c 0
 208 -193 207 -190 207 -187 c 0
 207 -180 209 -178 216 -175 c 0
 282 -145 335 -101 377 -44 c 0
 388 -29 401 -7 407 6 c 2
 410 13 l 1
 401 9 l 2
 397 7 389 5 383 3 c 0
 375 1 370 1 356 1 c 0
 337 1 329 2 316 8 c 0
 304 14 296 23 291 34 c 0
 284 47 283 55 283 72 c 0
 284 81 284 88 286 93 c 0
 295 128 320 159 351 175 c 0
 363 180 377 184 388 186 c 0
EndSplineSet
EndChar

StartChar: less
Encoding: 60 60 48
Width: 704
Flags: HW
LayerCount: 2
Fore
SplineSet
760 588 m 0
 769 591 779 588 787 581 c 0
 795 573 798 561 794 550 c 0
 790 539 808 549 508 393 c 2
 234 252 l 1
 241 247 l 1
 359 159 602 -26 604 -28 c 0
 606 -29 608 -33 610 -35 c 0
 612 -40 612 -42 612 -48 c 0
 612 -59 608 -69 598 -74 c 0
 591 -77 579 -78 573 -74 c 0
 569 -73 167 231 162 236 c 0
 160 237 158 241 156 244 c 0
 151 254 153 268 162 276 c 0
 165 279 754 586 760 588 c 0
EndSplineSet
EndChar

StartChar: equal
Encoding: 61 61 49
Width: 704
Flags: HW
LayerCount: 2
Fore
SplineSet
180 394 m 0
 183 395 231 395 462 395 c 0
 736 395 739 395 744 393 c 0
 755 389 763 379 763 367 c 0
 763 355 755 344 744 340 c 0
 739 338 736 338 462 338 c 0
 284 338 183 338 181 339 c 0
 171 342 163 351 161 361 c 0
 158 374 166 389 180 394 c 0
113 172 m 0
 117 174 123 174 397 174 c 2
 677 174 l 1
 682 171 l 2
 691 165 696 156 696 145 c 0
 696 134 691 126 682 120 c 2
 677 118 l 1
 397 117 l 2
 85 117 112 116 103 124 c 0
 88 138 93 164 113 172 c 0
EndSplineSet
EndChar

StartChar: greater
Encoding: 62 62 50
Width: 704
Flags: HW
LayerCount: 2
Fore
SplineSet
265 588 m 0
 269 589 280 589 285 586 c 0
 290 584 692 280 697 274 c 0
 706 264 706 248 697 238 c 0
 693 233 666 218 407 84 c 0
 249 2 116 -68 110 -71 c 0
 97 -77 89 -78 81 -75 c 0
 74 -73 65 -64 63 -58 c 0
 59 -47 62 -36 71 -29 c 0
 75 -24 105 -7 349 119 c 2
 623 260 l 1
 616 265 l 1
 498 353 255 538 253 540 c 0
 251 541 249 545 247 548 c 0
 244 554 243 565 247 572 c 0
 251 580 256 585 265 588 c 0
EndSplineSet
EndChar

StartChar: question
Encoding: 63 63 51
Width: 704
Flags: HW
LayerCount: 2
Fore
SplineSet
481 651 m 0
 511 652 580 651 596 650 c 0
 645 644 679 631 707 608 c 0
 717 601 725 590 731 578 c 0
 738 564 740 554 741 538 c 0
 743 485 707 434 639 399 c 0
 631 395 576 371 516 345 c 0
 456 319 404 296 401 294 c 0
 388 286 386 274 397 268 c 0
 405 264 413 263 437 263 c 0
 460 264 475 266 489 269 c 0
 517 277 532 289 540 309 c 0
 543 316 546 317 562 317 c 0
 574 317 576 317 578 315 c 0
 585 310 585 305 579 291 c 0
 560 247 499 219 423 219 c 0
 390 219 367 226 349 239 c 0
 341 245 337 250 333 260 c 0
 328 270 326 279 326 292 c 0
 326 308 330 324 340 340 c 0
 349 355 370 375 390 386 c 0
 394 389 448 412 508 439 c 0
 568 465 622 488 627 490 c 0
 652 502 670 521 676 537 c 0
 678 545 678 556 675 563 c 0
 664 588 625 603 567 607 c 0
 549 608 467 608 443 606 c 0
 414 604 382 599 367 595 c 2
 362 594 l 1
 368 591 l 2
 382 581 389 566 389 547 c 0
 389 532 386 519 378 503 c 0
 369 486 352 470 334 461 c 0
 302 446 268 448 248 467 c 0
 237 477 231 492 232 510 c 0
 233 522 237 535 245 551 c 0
 254 569 264 582 279 594 c 0
 321 630 382 647 481 651 c 0
375 148 m 0
 384 150 397 150 406 148 c 0
 428 144 445 128 450 106 c 0
 453 97 452 83 450 73 c 0
 435 11 353 -23 314 17 c 0
 306 25 302 33 299 44 c 0
 292 70 302 100 326 123 c 0
 341 136 356 144 375 148 c 0
EndSplineSet
EndChar

StartChar: at
Encoding: 64 64 52
Width: 704
Flags: HW
LayerCount: 2
Fore
SplineSet
573 645 m 0
 582 646 631 645 639 644 c 0
 679 639 708 626 732 606 c 0
 757 586 771 552 774 507 c 0
 777 463 768 410 742 323 c 0
 726 269 703 225 670 191 c 0
 647 168 627 153 599 140 c 0
 575 129 556 123 529 118 c 0
 513 116 475 116 458 118 c 0
 443 121 421 126 411 130 c 0
 383 140 359 159 346 178 c 0
 340 187 332 206 329 215 c 0
 319 253 323 300 341 345 c 0
 351 371 368 399 385 421 c 0
 400 440 423 461 447 476 c 0
 472 493 511 510 542 516 c 0
 622 534 684 522 721 482 c 2
 729 474 l 1
 729 482 l 2
 729 509 723 537 714 553 c 0
 708 562 694 576 684 582 c 0
 669 591 652 596 630 600 c 0
 614 602 571 602 548 600 c 0
 420 586 317 524 248 423 c 0
 214 372 191 312 185 255 c 0
 184 242 184 212 185 200 c 0
 189 170 199 141 214 121 c 0
 222 110 240 91 250 84 c 0
 286 57 331 43 391 39 c 0
 409 38 439 38 454 40 c 0
 493 46 531 60 570 83 c 2
 580 88 l 1
 618 88 l 2
 661 88 663 88 666 83 c 0
 667 82 668 79 668 76 c 0
 668 70 664 66 645 56 c 0
 583 23 521 3 454 -4 c 0
 437 -6 382 -6 364 -4 c 0
 322 1 288 11 258 25 c 0
 184 60 144 119 139 203 c 0
 136 252 147 312 170 367 c 0
 177 383 192 412 202 428 c 0
 252 512 327 575 421 612 c 0
 468 630 514 641 573 645 c 0
634 478 m 0
 622 480 598 480 589 478 c 0
 543 470 503 436 472 382 c 0
 457 355 440 310 435 276 c 0
 430 242 432 213 442 194 c 0
 447 185 461 171 469 167 c 0
 481 162 488 161 506 161 c 0
 529 161 546 164 569 173 c 0
 621 193 664 240 688 298 c 0
 712 356 713 408 693 440 c 0
 681 459 661 472 634 478 c 0
EndSplineSet
EndChar

StartChar: A
Encoding: 65 65 53
Width: 704
Flags: HW
LayerCount: 2
Fore
SplineSet
526 629 m 0
 535 632 549 632 556 628 c 0
 561 626 565 619 567 615 c 0
 567 613 578 504 588 372 c 0
 599 240 609 125 610 118 c 0
 616 79 622 62 631 55 c 0
 639 49 647 47 663 45 c 0
 670 44 673 44 675 42 c 0
 679 38 678 34 674 19 c 0
 669 2 667 0 658 1 c 0
 654 1 645 2 638 3 c 0
 605 8 590 8 541 8 c 0
 492 8 473 7 430 3 c 0
 413 1 410 0 408 2 c 0
 402 5 402 11 407 29 c 0
 412 43 413 44 422 45 c 0
 430 47 435 49 442 56 c 0
 453 66 459 79 463 105 c 0
 465 117 467 144 466 155 c 2
 465 164 l 1
 360 164 l 1
 256 164 l 1
 248 146 l 2
 230 109 215 72 212 56 c 0
 211 48 211 45 215 45 c 0
 219 45 223 42 225 38 c 0
 226 35 226 33 222 20 c 0
 216 -2 216 -2 194 2 c 0
 169 7 158 8 132 9 c 0
 101 9 79 7 54 2 c 0
 48 0 47 0 45 2 c 0
 43 2 41 5 40 7 c 0
 39 10 39 12 43 25 c 0
 49 44 48 44 63 46 c 0
 78 48 94 59 123 87 c 0
 168 133 208 183 264 266 c 0
 271 275 278 285 279 287 c 0
 281 288 331 362 392 450 c 0
 452 539 504 613 505 615 c 0
 509 619 518 626 526 629 c 0
452 328 m 0
 446 394 441 445 441 446 c 1
 440 446 326 277 325 275 c 0
 325 273 318 265 312 256 c 0
 306 247 297 232 292 224 c 2
 283 210 l 1
 372 209 l 1
 461 209 l 1
 461 210 457 263 452 328 c 0
EndSplineSet
EndChar

StartChar: B
Encoding: 66 66 54
Width: 704
Flags: HW
LayerCount: 2
Fore
SplineSet
234 615 m 0
 238 616 601 616 618 615 c 0
 669 611 707 598 734 573 c 0
 746 562 758 543 762 526 c 0
 765 514 765 489 763 476 c 0
 755 436 730 400 692 372 c 0
 665 352 633 336 595 327 c 0
 581 324 578 322 584 322 c 0
 588 322 610 316 621 312 c 0
 677 294 707 254 705 202 c 0
 704 188 701 177 696 162 c 0
 681 116 646 73 601 45 c 0
 561 19 514 5 461 1 c 0
 442 0 59 0 56 1 c 0
 53 2 50 7 50 10 c 0
 50 13 57 37 59 40 c 0
 61 44 65 45 72 45 c 0
 79 45 93 47 101 49 c 0
 114 52 125 60 133 70 c 0
 141 80 153 104 162 133 c 0
 169 151 264 471 269 490 c 0
 276 521 281 546 278 555 c 0
 277 560 270 565 263 567 c 0
 256 569 244 571 237 571 c 0
 229 571 224 574 222 579 c 0
 221 582 221 584 225 596 c 0
 229 610 231 614 234 615 c 0
589 570 m 0
 579 572 450 572 445 570 c 0
 439 567 430 561 427 556 c 0
 421 548 412 531 403 504 c 0
 400 493 357 354 355 346 c 2
 355 343 l 1
 424 343 l 2
 499 343 501 343 520 349 c 0
 551 359 579 380 598 409 c 0
 612 429 621 449 628 478 c 0
 630 488 630 492 630 509 c 0
 630 525 630 528 628 535 c 0
 622 554 607 566 589 570 c 0
515 298 m 0
 510 299 474 299 424 299 c 2
 342 299 l 1
 315 210 l 2
 287 120 279 90 276 70 c 0
 274 57 276 52 280 48 c 2
 283 46 l 1
 357 46 l 2
 437 46 438 45 455 51 c 0
 477 58 493 69 511 87 c 0
 533 107 546 131 556 163 c 0
 568 201 571 233 563 257 c 0
 560 267 559 270 554 278 c 0
 545 289 531 296 515 298 c 0
EndSplineSet
EndChar

StartChar: C
Encoding: 67 67 55
Width: 704
Flags: HW
LayerCount: 2
Fore
SplineSet
558 628 m 0
 569 629 615 628 625 627 c 0
 639 624 658 619 670 615 c 0
 685 611 710 598 721 590 c 0
 726 586 731 583 731 583 c 1
 731 584 748 593 768 604 c 0
 815 630 812 629 819 629 c 0
 827 629 832 626 834 621 c 0
 835 617 834 612 809 528 c 0
 794 480 781 439 780 436 c 0
 777 430 775 429 757 429 c 0
 744 429 741 429 738 431 c 0
 734 434 733 439 734 450 c 0
 736 462 735 486 732 497 c 0
 727 517 719 532 705 547 c 0
 675 578 627 589 566 582 c 0
 460 568 379 508 331 411 c 0
 314 375 293 314 279 259 c 0
 257 170 263 115 301 77 c 0
 324 54 356 40 400 35 c 0
 414 33 456 33 469 35 c 0
 506 41 540 53 569 70 c 0
 609 93 640 127 652 162 c 0
 658 178 660 178 678 178 c 0
 693 178 696 177 698 170 c 0
 699 167 699 165 697 158 c 0
 690 139 677 113 663 96 c 0
 654 85 636 68 622 57 c 0
 573 20 511 -2 440 -10 c 0
 423 -12 370 -12 352 -10 c 0
 280 -2 226 21 187 59 c 0
 176 71 168 82 160 96 c 0
 134 141 126 197 135 258 c 0
 145 329 179 403 225 461 c 0
 295 549 397 607 514 624 c 0
 526 626 534 627 558 628 c 0
EndSplineSet
EndChar

StartChar: D
Encoding: 68 68 56
Width: 704
Flags: HW
LayerCount: 2
Fore
SplineSet
230 615 m 0
 232 616 259 616 409 616 c 0
 584 615 585 615 598 613 c 0
 642 606 675 592 703 568 c 0
 735 540 756 497 761 446 c 0
 763 431 762 393 760 378 c 0
 746 278 702 185 637 117 c 0
 583 60 512 20 436 6 c 0
 404 0 415 1 228 0 c 0
 35 0 50 -1 47 7 c 0
 46 10 46 12 50 25 c 0
 52 32 55 39 55 40 c 0
 57 43 62 45 73 45 c 0
 98 47 114 55 124 69 c 0
 132 79 141 98 151 125 c 0
 157 141 255 470 261 493 c 0
 269 527 272 552 268 559 c 0
 264 566 254 570 237 571 c 0
 226 571 222 573 220 577 c 0
 217 581 218 583 222 596 c 0
 226 611 227 613 230 615 c 0
538 569 m 0
 525 571 443 572 438 570 c 0
 430 567 421 558 417 549 c 0
 413 541 405 523 399 507 c 0
 393 488 286 130 280 108 c 0
 269 65 267 50 276 46 c 0
 281 44 369 45 383 47 c 0
 408 51 429 59 449 68 c 0
 514 99 551 148 584 243 c 0
 596 280 615 342 623 375 c 0
 640 445 639 487 620 520 c 0
 615 528 598 545 588 551 c 0
 574 559 557 565 538 569 c 0
EndSplineSet
EndChar

StartChar: E
Encoding: 69 69 57
Width: 704
Flags: HW
LayerCount: 2
Fore
SplineSet
236 610 m 0
 238 611 331 611 517 611 c 2
 796 611 l 1
 798 608 l 2
 800 607 801 604 802 603 c 0
 802 601 794 562 781 494 c 0
 754 364 757 374 754 371 c 0
 752 369 750 368 737 368 c 0
 721 368 718 368 715 373 c 0
 713 377 713 376 718 404 c 0
 729 462 728 492 716 518 c 0
 712 526 709 530 702 537 c 0
 695 544 692 546 683 550 c 0
 654 564 629 566 529 566 c 2
 465 566 l 1
 459 562 l 2
 444 555 435 541 419 495 c 0
 415 481 373 342 373 341 c 0
 373 340 433 340 446 341 c 0
 477 344 497 352 514 369 c 0
 529 383 542 406 553 445 c 0
 557 459 559 460 577 460 c 0
 592 460 596 459 598 453 c 0
 599 450 596 440 561 324 c 0
 541 255 523 194 521 189 c 0
 517 175 516 175 498 175 c 0
 483 175 479 176 476 182 c 0
 475 185 475 187 479 202 c 0
 486 226 488 238 488 251 c 0
 489 265 487 272 480 279 c 0
 469 292 451 295 393 295 c 2
 358 295 l 1
 333 207 l 2
 301 102 295 77 295 60 c 0
 295 53 295 53 298 49 c 0
 301 47 303 46 306 45 c 2
 385 45 l 2
 444 46 461 46 473 47 c 0
 540 55 582 74 620 114 c 0
 649 143 670 180 700 248 c 0
 706 261 712 273 714 274 c 0
 716 276 717 278 730 278 c 0
 739 278 746 277 748 276 c 0
 751 275 754 270 754 267 c 0
 754 264 645 11 641 5 c 0
 640 3 638 2 637 1 c 0
 635 0 547 0 347 0 c 2
 59 1 l 1
 57 3 l 2
 52 7 52 11 57 26 c 0
 62 43 64 44 73 45 c 0
 88 46 104 47 110 49 c 0
 135 56 147 71 163 112 c 0
 171 131 176 145 224 306 c 0
 280 493 282 498 285 528 c 0
 288 557 281 563 243 566 c 0
 231 567 229 567 227 569 c 0
 222 573 222 577 227 591 c 0
 231 605 233 608 236 610 c 0
EndSplineSet
EndChar

StartChar: F
Encoding: 70 70 58
Width: 704
Flags: HW
LayerCount: 2
Fore
SplineSet
238 609 m 0
 241 611 244 611 524 611 c 2
 807 611 l 1
 809 608 l 2
 811 607 812 604 813 603 c 0
 813 601 806 560 793 492 c 0
 781 432 771 380 770 378 c 0
 769 375 768 372 766 371 c 0
 764 369 763 368 750 368 c 0
 734 368 730 368 727 374 c 0
 726 377 726 377 727 387 c 0
 728 392 730 404 731 412 c 0
 736 438 737 454 737 473 c 0
 736 499 732 512 722 527 c 0
 710 543 691 555 663 560 c 0
 638 565 630 566 548 566 c 2
 472 566 l 1
 466 562 l 2
 455 557 448 550 442 538 c 0
 431 514 427 500 398 407 c 2
 375 329 l 1
 417 329 l 2
 468 330 480 331 499 340 c 0
 530 354 547 380 563 433 c 0
 564 438 566 443 568 445 c 0
 570 447 571 449 585 449 c 0
 595 449 600 448 602 447 c 0
 605 446 608 441 608 438 c 0
 608 434 529 172 527 169 c 0
 525 164 522 164 506 164 c 0
 493 164 491 165 489 167 c 0
 484 171 485 174 489 189 c 0
 496 214 498 224 498 239 c 0
 499 254 496 260 489 267 c 0
 478 280 460 284 399 284 c 2
 361 284 l 1
 360 281 l 2
 353 258 318 139 316 130 c 0
 310 103 307 79 310 68 c 0
 314 53 330 47 368 45 c 0
 387 45 388 44 390 42 c 0
 395 38 395 34 390 19 c 0
 386 5 384 1 379 0 c 0
 377 0 365 1 354 2 c 0
 299 8 254 9 196 9 c 0
 171 8 142 7 131 7 c 0
 108 5 72 1 68 0 c 0
 65 0 59 2 57 5 c 0
 56 6 56 8 56 10 c 0
 56 13 63 37 65 40 c 0
 67 44 71 45 86 45 c 0
 118 47 136 56 148 72 c 0
 157 85 169 108 178 136 c 0
 186 158 281 474 284 489 c 0
 292 522 293 543 289 552 c 0
 284 561 273 564 248 566 c 0
 239 566 232 567 231 568 c 0
 227 570 225 576 226 580 c 0
 226 582 228 589 230 595 c 0
 234 606 235 607 238 609 c 0
EndSplineSet
EndChar

StartChar: G
Encoding: 71 71 59
Width: 704
Flags: HW
LayerCount: 2
Fore
SplineSet
530 628 m 0
 541 629 570 629 579 628 c 0
 618 624 652 610 678 590 c 2
 684 585 l 1
 701 595 l 2
 760 629 761 629 768 629 c 0
 776 629 780 627 782 621 c 0
 783 617 783 612 758 528 c 0
 743 480 730 439 729 436 c 0
 726 430 724 429 706 429 c 0
 693 429 690 429 687 431 c 0
 683 434 682 438 683 446 c 0
 689 482 681 518 663 543 c 0
 648 563 627 576 599 582 c 0
 587 584 555 584 539 582 c 0
 523 579 499 573 486 568 c 0
 472 563 446 551 436 544 c 0
 384 511 344 460 316 389 c 0
 302 354 276 271 267 232 c 0
 254 173 255 131 269 98 c 0
 279 78 297 59 319 49 c 0
 346 35 392 29 416 36 c 0
 444 44 471 68 488 99 c 0
 493 108 497 118 504 144 c 0
 514 177 515 187 515 205 c 0
 515 220 515 221 513 225 c 0
 508 232 495 237 478 240 c 0
 474 240 463 241 452 241 c 0
 433 241 431 242 429 244 c 0
 424 248 424 251 429 266 c 0
 433 280 435 285 440 286 c 0
 442 286 454 285 465 284 c 0
 520 279 568 276 621 276 c 0
 663 277 682 279 717 283 c 0
 729 285 735 286 737 285 c 0
 740 283 742 279 742 275 c 0
 742 272 736 249 734 246 c 0
 732 243 728 241 718 241 c 0
 687 239 676 230 663 200 c 0
 653 180 652 178 617 61 c 0
 608 31 600 7 600 6 c 0
 598 3 593 0 590 0 c 0
 588 0 580 3 572 8 c 0
 544 23 529 35 517 47 c 2
 511 54 l 1
 501 44 l 2
 471 16 437 -2 400 -9 c 0
 390 -11 387 -11 365 -11 c 0
 324 -11 288 -5 256 6 c 0
 178 36 135 94 127 178 c 0
 125 193 126 228 128 244 c 0
 143 350 198 454 276 523 c 0
 347 585 434 622 530 628 c 0
EndSplineSet
EndChar

StartChar: H
Encoding: 72 72 60
Width: 704
Flags: W
HStem: 3 42<49.7817 114.528 284.237 320.857 389.782 461.049 620.099 659.858> 298 45<354 542> 571 44<227.001 256.714 426.655 492.905 560.444 608.085 766.66 832.905> 571 36<230.142 256.714 430.062 492.905 568.141 608.224 770.062 832.905>
LayerCount: 2
Fore
SplineSet
230 615 m 0xe0
 233 616 238 616 261 613 c 0
 291 609 312 608 350 607 c 0xd0
 398 607 437 609 479 614 c 0
 491 616 495 616 497 615 c 0
 500 613 502 609 502 605 c 0
 502 602 495 578 493 575 c 0
 491 572 487 571 476 571 c 0
 450 569 435 562 424 546 c 0
 418 537 408 517 401 498 c 0
 396 485 358 360 354 346 c 1
 354 343 l 1
 455 343 l 1
 556 343 l 1
 575 411 l 2
 597 483 602 498 605 520 c 0
 611 553 610 562 597 567 c 0
 591 569 578 571 570 571 c 0xe0
 563 571 558 576 558 582 c 0
 558 587 565 610 568 613 c 0
 571 616 575 616 592 614 c 0
 631 609 663 607 705 607 c 0xd0
 745 607 782 609 819 614 c 0
 830 616 835 616 837 615 c 0
 840 613 842 609 842 605 c 0
 842 602 835 578 833 575 c 0
 831 572 827 571 816 571 c 0
 790 569 775 562 764 546 c 0
 758 537 748 517 741 498 c 0
 735 481 637 157 630 128 c 0
 622 97 619 71 620 61 c 0
 622 52 631 47 654 45 c 0
 665 44 669 42 671 37 c 0
 671 33 663 6 660 3 c 0
 657 0 652 0 636 2 c 0
 592 8 560 9 511 9 c 0
 471 8 448 7 415 3 c 0
 392 0 391 0 388 6 c 2
 386 10 l 1
 390 25 l 2
 396 44 397 44 411 45 c 0
 439 47 454 55 464 70 c 0
 472 81 481 102 490 130 c 0
 494 140 539 286 542 296 c 2
 542 298 l 1
 441 298 l 1
 340 298 l 1
 316 217 l 2
 285 117 282 99 280 75 c 0
 280 63 280 58 284 55 c 0
 289 49 297 47 314 45 c 0
 325 44 329 42 331 37 c 0
 331 33 324 6 321 3 c 0
 318 0 312 0 296 2 c 0
 252 8 220 9 171 9 c 0
 131 8 108 7 75 3 c 0
 52 0 51 0 48 6 c 2
 46 10 l 1
 50 25 l 2
 56 44 57 44 71 45 c 0
 91 47 105 51 115 59 c 0
 125 67 137 88 150 125 c 0
 155 139 254 467 259 490 c 0
 263 507 267 530 269 541 c 0
 270 556 267 563 257 567 c 0
 251 569 238 571 230 571 c 0
 223 571 218 576 218 583 c 0
 218 586 225 609 227 611 c 0
 227 613 229 614 230 615 c 0xe0
EndSplineSet
EndChar

StartChar: I
Encoding: 73 73 61
Width: 704
Flags: HW
LayerCount: 2
Fore
SplineSet
311 614 m 0
 315 616 315 616 352 614 c 0
 380 611 421 609 459 608 c 0
 498 607 608 607 643 609 c 0
 676 611 714 613 733 615 c 0
 752 616 755 616 758 612 c 0
 759 610 760 608 760 606 c 0
 760 603 754 580 752 577 c 0
 750 573 745 571 728 571 c 0
 695 571 665 568 646 564 c 0
 618 557 602 546 588 523 c 0
 581 513 569 490 564 474 c 0
 556 454 464 145 462 131 c 0
 458 112 457 101 457 89 c 0
 458 75 460 69 466 63 c 0
 478 51 503 46 555 45 c 0
 583 45 583 44 585 42 c 0
 590 38 590 34 585 20 c 0
 583 13 581 6 580 5 c 0
 577 0 575 0 545 2 c 0
 477 7 451 8 379 9 c 0
 297 9 236 8 163 2 c 0
 148 1 136 0 135 1 c 0
 132 2 129 5 128 8 c 0
 128 12 135 39 139 42 c 2
 141 45 l 1
 170 45 l 2
 247 47 277 58 300 92 c 0
 307 102 320 128 325 143 c 0
 331 159 421 461 425 477 c 0
 432 505 433 529 430 541 c 0
 424 561 397 569 336 571 c 0
 322 571 308 571 307 572 c 0
 301 573 298 581 301 590 c 0
 302 593 304 598 306 603 c 0
 308 611 309 612 311 614 c 0
EndSplineSet
EndChar

StartChar: J
Encoding: 74 74 62
Width: 704
Flags: HW
LayerCount: 2
Fore
SplineSet
451 615 m 0
 454 616 454 616 481 614 c 0
 512 611 545 609 582 608 c 0
 622 606 696 607 724 609 c 0
 744 611 778 615 782 616 c 0
 787 617 794 612 794 606 c 0
 794 603 786 581 784 577 c 0
 783 573 779 571 766 571 c 0
 741 569 727 564 715 554 c 0
 706 545 697 531 686 503 c 0
 678 481 676 475 624 302 c 0
 596 209 572 128 570 123 c 0
 564 104 554 87 539 72 c 0
 500 31 427 1 342 -8 c 0
 299 -13 226 -13 183 -8 c 0
 165 -6 142 -2 129 2 c 0
 74 20 53 58 67 108 c 0
 80 156 124 189 172 189 c 0
 195 189 211 183 225 170 c 0
 237 157 243 143 243 123 c 0
 243 93 227 60 203 42 c 2
 195 36 l 1
 199 35 l 2
 210 33 252 32 271 32 c 0
 310 33 337 39 367 53 c 0
 399 68 426 97 437 126 c 0
 441 135 539 460 543 476 c 0
 552 514 553 540 546 551 c 0
 538 564 510 571 462 571 c 0
 446 571 442 573 440 577 c 0
 437 581 438 583 442 596 c 0
 446 611 448 613 451 615 c 0
EndSplineSet
EndChar

StartChar: K
Encoding: 75 75 63
Width: 704
Flags: HW
LayerCount: 2
Fore
SplineSet
229 615 m 0
 233 616 237 616 256 614 c 0
 295 609 311 608 362 608 c 0
 411 607 424 608 465 613 c 0
 477 614 490 615 492 615 c 0
 496 615 500 612 501 608 c 0
 501 604 494 579 492 575 c 0
 490 572 486 571 475 571 c 0
 453 569 439 564 428 553 c 0
 423 547 421 542 415 530 c 0
 411 521 403 507 400 498 c 0
 394 482 341 304 341 303 c 1
 342 303 393 340 398 345 c 0
 400 347 413 358 427 368 c 0
 486 413 540 458 593 506 c 0
 618 530 651 562 656 568 c 2
 660 574 l 1
 658 579 l 2
 657 582 658 583 662 596 c 0
 664 603 667 611 668 612 c 0
 671 616 675 617 688 614 c 0
 716 609 740 607 767 607 c 0
 786 607 800 609 816 613 c 0
 827 616 827 616 830 614 c 0
 835 611 836 607 831 592 c 0
 829 585 826 578 826 577 c 0
 825 574 820 571 814 571 c 0
 795 568 749 542 666 487 c 0
 627 461 526 391 509 377 c 1
 509 377 586 158 594 140 c 0
 622 69 637 48 662 45 c 0
 670 45 672 43 674 40 c 0
 677 36 676 33 672 20 c 0
 668 5 667 3 664 1 c 0
 660 0 657 0 641 2 c 0
 614 7 599 8 566 9 c 0
 524 9 483 7 442 2 c 0
 430 0 427 0 425 1 c 0
 422 3 420 7 420 10 c 0
 420 13 426 36 428 40 c 0
 430 43 434 45 438 45 c 0
 439 45 441 46 443 48 c 0
 455 59 451 108 435 169 c 0
 431 184 394 291 393 293 c 0
 392 293 376 281 357 267 c 2
 323 241 l 1
 306 186 l 2
 284 115 281 97 279 75 c 0
 279 62 279 58 283 54 c 0
 289 49 302 45 315 45 c 0
 322 45 327 43 329 38 c 0
 330 35 330 33 326 20 c 0
 321 5 319 3 315 1 c 0
 312 0 309 0 296 2 c 0
 255 7 225 9 183 9 c 0
 142 9 100 6 65 1 c 0
 56 0 53 0 51 1 c 0
 48 3 46 7 46 11 c 0
 46 13 53 37 54 40 c 0
 56 43 61 45 72 45 c 0
 97 47 113 55 123 70 c 0
 129 79 139 101 146 120 c 0
 152 137 251 462 258 490 c 0
 263 507 267 530 268 541 c 0
 269 564 263 568 233 571 c 0
 225 572 223 572 220 574 c 0
 216 578 217 582 221 597 c 0
 225 611 226 613 229 615 c 0
EndSplineSet
EndChar

StartChar: L
Encoding: 76 76 64
Width: 704
Flags: HW
LayerCount: 2
Fore
SplineSet
242 615 m 0
 245 616 248 616 267 614 c 0
 317 608 356 607 417 607 c 0
 471 608 508 610 554 615 c 0
 569 616 572 616 574 611 c 0
 577 607 576 605 572 591 c 0
 568 577 567 574 563 572 c 0
 562 572 552 571 542 571 c 0
 511 570 496 567 481 560 c 0
 461 550 446 528 430 486 c 0
 424 470 321 134 316 109 c 0
 311 87 308 71 308 62 c 0
 307 54 309 51 315 48 c 0
 318 46 321 46 380 46 c 0
 433 46 443 46 454 47 c 0
 517 57 562 80 605 123 c 0
 636 155 659 194 685 255 c 0
 694 279 694 278 714 278 c 2
 728 278 l 1
 731 273 l 2
 733 271 734 269 734 267 c 0
 734 264 635 11 631 5 c 0
 630 3 629 2 627 1 c 0
 626 0 544 0 345 0 c 0
 98 0 66 0 63 2 c 0
 59 3 58 6 58 10 c 0
 58 13 65 37 67 40 c 0
 69 43 74 45 82 45 c 0
 93 45 111 47 120 49 c 0
 129 51 139 57 146 63 c 0
 157 73 171 98 184 134 c 0
 190 152 286 472 291 489 c 0
 297 517 300 539 298 551 c 0
 296 558 290 564 281 567 c 0
 273 569 259 571 247 571 c 0
 237 571 233 573 231 577 c 0
 228 581 229 582 233 596 c 0
 237 610 239 613 242 615 c 0
EndSplineSet
EndChar

StartChar: M
Encoding: 77 77 65
Width: 704
Flags: HW
LayerCount: 2
Fore
SplineSet
222 615 m 0
 224 616 256 616 313 616 c 2
 402 616 l 1
 408 614 l 2
 411 612 414 610 416 607 c 0
 418 603 419 602 419 594 c 0
 419 589 418 505 417 408 c 0
 415 310 414 224 414 218 c 2
 415 207 l 1
 528 402 l 2
 654 617 648 606 662 612 c 2
 669 616 l 1
 755 616 l 2
 814 616 842 616 844 615 c 0
 847 614 850 609 850 606 c 0
 850 603 843 580 841 577 c 0
 839 574 835 571 830 571 c 0
 823 571 811 568 803 565 c 0
 788 557 778 543 762 500 c 0
 756 481 652 140 647 117 c 0
 642 97 639 81 638 69 c 0
 638 62 638 59 640 56 c 0
 643 50 651 46 664 45 c 0
 672 45 676 42 678 38 c 0
 679 35 679 32 675 19 c 0
 670 2 667 0 659 1 c 0
 656 1 646 2 636 3 c 0
 605 8 593 9 551 8 c 0
 509 8 493 7 459 3 c 0
 444 0 441 0 439 2 c 0
 433 5 433 11 438 29 c 0
 443 43 445 44 457 45 c 0
 479 47 493 56 502 72 c 0
 507 81 515 100 522 119 c 0
 527 132 650 542 650 543 c 1
 650 543 581 425 497 281 c 0
 328 -7 339 10 325 4 c 0
 316 0 310 0 303 4 c 0
 300 6 298 8 296 11 c 2
 294 16 l 1
 297 265 l 2
 299 401 301 516 301 519 c 0
 301 524 294 502 255 372 c 0
 229 288 207 212 205 204 c 0
 185 127 179 58 191 47 c 0
 192 46 196 46 199 45 c 0
 205 44 209 42 210 38 c 0
 211 35 211 32 207 19 c 0
 205 12 202 5 201 3 c 0
 197 0 192 -1 180 2 c 0
 158 8 150 8 120 8 c 0
 91 8 82 8 58 3 c 0
 48 1 46 0 44 2 c 0
 38 5 38 11 43 29 c 0
 48 43 49 44 58 45 c 0
 66 46 72 49 79 57 c 0
 101 77 130 137 154 205 c 0
 161 228 237 483 242 501 c 0
 249 532 252 555 249 561 c 0
 246 566 237 570 226 571 c 0
 217 571 214 573 212 577 c 0
 209 581 210 583 214 596 c 0
 218 610 219 613 222 615 c 0
EndSplineSet
EndChar

StartChar: N
Encoding: 78 78 66
Width: 704
Flags: HW
LayerCount: 2
Fore
SplineSet
230 615 m 0
 233 616 412 617 418 615 c 0
 421 614 424 612 426 610 c 0
 430 606 439 586 514 418 c 0
 560 316 599 227 601 223 c 2
 604 216 l 1
 631 302 l 2
 664 412 670 435 676 475 c 0
 679 499 680 533 678 546 c 0
 675 559 671 566 665 569 c 0
 663 570 658 571 656 571 c 0
 650 571 645 576 645 582 c 0
 645 587 652 610 655 613 c 0
 658 616 662 617 677 614 c 0
 700 609 711 608 738 607 c 0
 770 607 795 609 826 614 c 0
 831 615 835 615 837 615 c 0
 840 613 842 609 842 605 c 0
 842 602 835 578 833 575 c 0
 832 573 827 571 820 571 c 0
 810 569 803 565 791 553 c 0
 766 528 741 481 718 419 c 0
 714 408 686 315 653 210 c 0
 622 106 596 17 595 15 c 0
 593 9 587 3 581 1 c 0
 571 -2 559 1 553 7 c 0
 551 9 525 70 460 212 c 0
 411 324 370 416 369 417 c 0
 368 418 362 428 356 441 c 0
 344 468 334 490 326 505 c 0
 321 514 319 516 318 514 c 0
 315 508 227 213 224 199 c 0
 208 133 205 76 215 56 c 0
 217 53 223 46 225 46 c 2
 225 46 228 46 231 45 c 0
 238 44 243 41 244 37 c 0
 244 33 236 6 233 3 c 0
 229 0 225 0 211 2 c 0
 185 8 175 8 140 8 c 0
 106 8 92 7 65 2 c 0
 54 0 51 0 48 6 c 2
 46 10 l 1
 50 25 l 2
 53 35 55 41 57 42 c 0
 58 43 62 44 67 45 c 0
 78 47 87 52 98 63 c 0
 112 77 126 98 141 130 c 0
 153 154 161 172 173 204 c 0
 177 215 277 545 281 558 c 0
 281 561 280 561 272 564 c 0
 263 568 251 570 238 571 c 0
 226 571 221 573 219 577 c 0
 217 581 218 584 222 597 c 0
 226 610 227 613 230 615 c 0
EndSplineSet
EndChar

StartChar: O
Encoding: 79 79 67
Width: 704
Flags: HW
LayerCount: 2
Fore
SplineSet
474 628 m 0
 492 629 622 628 635 627 c 0
 687 623 721 614 741 600 c 0
 753 592 762 578 766 564 c 0
 768 552 768 517 765 497 c 0
 759 450 746 399 714 295 c 0
 676 166 648 100 617 58 c 0
 609 47 594 33 585 27 c 0
 554 5 512 -5 442 -10 c 0
 417 -12 280 -12 256 -10 c 0
 209 -7 180 -1 158 10 c 0
 128 24 119 43 120 88 c 0
 122 138 138 206 185 356 c 0
 217 458 243 520 272 559 c 0
 307 605 360 624 474 628 c 0
584 583 m 0
 576 584 564 584 534 584 c 0
 493 585 490 585 474 583 c 0
 441 580 417 569 402 552 c 0
 387 535 366 479 318 317 c 0
 274 171 258 107 258 82 c 0
 258 72 258 71 260 66 c 0
 267 52 281 43 308 39 c 0
 321 37 380 36 402 38 c 0
 437 40 460 47 477 61 c 0
 491 71 500 86 514 125 c 0
 538 187 601 395 621 475 c 0
 634 527 636 546 631 557 c 0
 624 570 610 579 584 583 c 0
EndSplineSet
EndChar

StartChar: P
Encoding: 80 80 68
Width: 704
Flags: HW
LayerCount: 2
Fore
SplineSet
237 615 m 0
 241 616 600 616 618 615 c 0
 674 611 716 597 745 572 c 0
 774 547 786 515 784 474 c 0
 781 431 758 385 720 347 c 0
 672 301 602 272 521 265 c 0
 514 264 474 264 427 264 c 2
 345 264 l 1
 326 199 l 2
 306 130 304 123 300 105 c 0
 296 83 295 70 297 62 c 0
 299 52 311 47 335 45 c 0
 348 45 352 44 354 40 c 0
 356 36 355 33 351 19 c 0
 345 -3 347 -1 321 2 c 0
 277 7 245 9 201 9 c 0
 156 9 114 6 72 2 c 0
 60 0 56 0 54 5 c 0
 51 9 52 11 56 25 c 0
 61 44 63 45 74 45 c 0
 99 45 119 51 131 62 c 0
 142 72 155 97 168 135 c 0
 174 152 269 471 273 488 c 0
 282 523 286 549 281 558 c 0
 277 566 267 569 244 571 c 0
 230 571 226 574 224 579 c 0
 223 582 223 584 227 596 c 0
 231 610 234 614 237 615 c 0
582 569 m 0
 573 570 561 570 516 571 c 0
 485 571 459 571 458 570 c 0
 448 568 437 559 432 550 c 0
 428 542 421 525 414 507 c 0
 412 500 397 452 382 401 c 2
 353 308 l 1
 423 308 l 2
 495 309 499 309 519 313 c 0
 555 320 585 337 601 362 c 0
 612 379 622 403 635 449 c 0
 651 505 651 529 635 546 c 0
 623 558 609 564 582 569 c 0
EndSplineSet
EndChar

StartChar: Q
Encoding: 81 81 69
Width: 704
Flags: HW
LayerCount: 2
Fore
SplineSet
474 628 m 0
 492 629 622 628 635 627 c 0
 687 623 721 614 741 600 c 0
 753 592 762 578 766 564 c 0
 768 552 768 517 765 497 c 0
 759 450 746 399 714 295 c 0
 685 200 663 140 643 100 c 0
 615 46 591 23 548 8 c 0
 531 2 503 -4 481 -6 c 0
 478 -7 474 -7 473 -8 c 2
 470 -8 l 1
 470 -18 l 2
 472 -45 478 -60 488 -65 c 0
 494 -68 509 -69 518 -67 c 0
 547 -60 575 -31 586 2 c 0
 591 14 595 20 604 22 c 0
 616 25 631 13 631 1 c 0
 631 -6 616 -51 605 -80 c 0
 598 -97 582 -129 575 -140 c 0
 543 -191 506 -215 460 -213 c 0
 436 -212 421 -206 407 -193 c 0
 398 -183 393 -174 389 -160 c 0
 387 -154 387 -149 387 -132 c 0
 387 -112 388 -99 396 -68 c 0
 399 -54 410 -15 411 -13 c 0
 411 -12 393 -11 342 -11 c 0
 271 -11 253 -11 223 -7 c 0
 193 -3 173 2 158 10 c 0
 128 24 119 43 120 88 c 0
 122 138 138 206 185 356 c 0
 217 458 243 520 272 559 c 0
 307 605 360 624 474 628 c 0
585 583 m 0
 573 584 500 585 482 584 c 0
 436 580 405 566 390 540 c 0
 376 516 353 450 312 313 c 0
 267 166 250 96 251 74 c 0
 252 59 263 47 280 40 c 2
 285 38 l 1
 284 43 l 2
 282 54 285 71 290 84 c 0
 307 121 351 147 394 145 c 0
 429 143 453 124 462 88 c 0
 465 80 466 68 468 55 c 2
 469 48 l 1
 475 52 l 2
 479 54 485 59 488 63 c 0
 494 69 497 73 503 85 c 0
 518 118 538 175 578 308 c 0
 605 396 619 447 628 487 c 0
 640 537 640 552 627 565 c 0
 619 573 605 579 585 583 c 0
409 98 m 0
 402 101 385 102 376 100 c 0
 366 97 351 90 343 83 c 0
 335 75 331 67 328 58 c 0
 326 47 329 39 339 35 c 0
 344 33 347 33 366 32 c 0
 384 32 420 33 421 35 c 0
 422 36 424 55 424 66 c 0
 424 86 421 94 409 98 c 0
EndSplineSet
EndChar

StartChar: R
Encoding: 82 82 70
Width: 704
Flags: HW
LayerCount: 2
Fore
SplineSet
234 615 m 0
 237 616 533 616 551 615 c 0
 581 613 608 608 630 601 c 0
 644 597 667 586 678 578 c 0
 702 562 716 541 722 513 c 0
 725 502 725 479 723 466 c 0
 712 412 669 361 609 329 c 0
 594 321 576 313 559 307 c 2
 545 303 l 1
 551 298 l 2
 579 280 595 253 598 222 c 0
 599 208 598 200 590 151 c 0
 580 96 579 86 579 70 c 0
 578 39 585 30 609 32 c 0
 640 35 673 62 685 97 c 0
 687 106 691 111 698 114 c 0
 711 120 728 109 728 94 c 0
 728 78 708 44 689 26 c 0
 670 8 653 -3 629 -9 c 0
 622 -11 619 -11 596 -11 c 0
 568 -11 552 -10 532 -6 c 0
 466 5 433 37 433 86 c 0
 433 103 435 108 451 163 c 0
 459 191 465 212 466 218 c 0
 470 251 460 276 441 284 c 0
 436 286 435 286 387 287 c 2
 338 287 l 1
 335 276 l 2
 322 233 294 140 291 129 c 0
 282 91 279 66 284 57 c 0
 287 51 298 46 316 45 c 0
 327 45 332 44 334 40 c 0
 336 36 335 32 331 18 c 0
 325 -1 324 -1 305 1 c 0
 265 7 245 8 202 9 c 0
 153 9 117 8 73 2 c 0
 62 1 56 0 55 1 c 0
 52 2 49 7 49 10 c 0
 49 12 55 36 57 40 c 0
 59 43 64 45 70 45 c 0
 73 45 79 45 84 46 c 0
 121 51 134 64 157 129 c 0
 163 144 257 459 264 485 c 0
 270 508 273 528 274 542 c 0
 274 555 274 556 272 559 c 0
 267 566 258 569 238 571 c 0
 227 572 225 572 223 574 c 0
 220 579 220 582 224 597 c 0
 228 611 230 614 234 615 c 0
528 569 m 0
 514 571 449 572 444 570 c 0
 434 566 426 558 420 546 c 0
 410 523 405 508 376 415 c 0
 364 371 352 334 351 333 c 0
 351 331 353 331 391 331 c 0
 414 331 437 331 444 332 c 0
 489 336 524 351 542 376 c 0
 553 391 561 412 573 451 c 0
 591 512 591 533 574 549 c 0
 565 559 550 565 528 569 c 0
EndSplineSet
EndChar

StartChar: S
Encoding: 83 83 71
Width: 704
Flags: HW
LayerCount: 2
Fore
SplineSet
468 628 m 0
 483 629 537 628 552 627 c 0
 606 620 645 606 677 581 c 0
 682 577 686 573 686 574 c 1
 687 574 703 586 721 600 c 0
 739 613 756 626 758 627 c 0
 761 628 763 629 768 629 c 0
 776 629 780 627 782 621 c 0
 783 617 783 611 755 518 c 0
 739 465 724 419 723 418 c 0
 721 413 716 412 703 412 c 0
 688 412 685 413 682 418 c 0
 681 421 681 422 682 430 c 0
 688 479 679 514 652 541 c 0
 629 564 593 579 543 585 c 0
 523 587 473 587 455 585 c 0
 396 577 351 554 325 518 c 0
 308 491 304 463 317 444 c 0
 328 430 344 420 368 413 c 0
 381 408 384 407 471 391 c 0
 557 376 570 373 585 368 c 0
 598 363 623 350 634 342 c 0
 670 316 690 284 694 242 c 0
 696 223 693 197 685 174 c 0
 680 159 666 131 656 117 c 0
 637 86 610 59 578 39 c 0
 564 31 533 15 517 10 c 0
 492 1 464 -6 433 -10 c 0
 413 -12 351 -12 323 -10 c 0
 282 -6 252 0 223 9 c 0
 208 14 181 28 172 35 c 2
 165 41 l 1
 131 15 l 2
 112 1 96 -10 94 -11 c 0
 91 -13 80 -12 77 -10 c 0
 74 -9 71 -4 71 -1 c 0
 71 2 128 196 130 199 c 2
 134 203 l 2
 137 205 140 205 152 205 c 0
 164 205 165 205 167 203 c 0
 169 202 171 199 172 197 c 0
 173 194 173 192 170 182 c 0
 164 156 163 132 169 115 c 0
 177 88 201 67 236 54 c 0
 273 40 322 34 385 34 c 0
 418 34 423 34 436 36 c 0
 499 46 547 75 572 119 c 0
 580 133 586 155 584 167 c 0
 581 198 553 222 512 233 c 0
 507 234 466 243 420 251 c 0
 330 267 320 269 304 275 c 0
 266 288 235 312 218 338 c 0
 191 379 191 427 217 479 c 0
 241 527 280 564 331 591 c 0
 372 611 416 624 468 628 c 0
EndSplineSet
EndChar

StartChar: T
Encoding: 84 84 72
Width: 704
Flags: HW
LayerCount: 2
Fore
SplineSet
236 606 m 0
 238 607 282 607 531 607 c 2
 825 607 l 1
 827 604 l 2
 829 603 830 601 830 599 c 0
 831 597 822 559 806 487 c 0
 792 427 779 376 778 373 c 0
 776 365 774 364 757 364 c 0
 743 364 738 365 736 369 c 0
 734 373 735 376 740 401 c 0
 750 443 754 467 754 490 c 0
 754 516 749 528 737 539 c 0
 726 550 712 556 690 560 c 0
 681 561 674 561 646 561 c 0
 613 561 612 561 608 559 c 0
 593 552 584 539 570 495 c 0
 561 470 464 143 460 128 c 0
 454 98 452 78 456 67 c 0
 460 53 475 46 515 45 c 2
 535 44 l 1
 538 42 l 2
 539 40 540 38 541 37 c 0
 541 33 532 6 530 3 c 0
 527 0 524 0 501 2 c 0
 452 7 429 8 373 9 c 0
 310 9 261 7 205 2 c 0
 182 0 180 0 177 7 c 0
 176 10 176 12 180 25 c 0
 182 32 185 39 185 40 c 0
 187 44 192 45 205 45 c 0
 237 45 262 50 276 59 c 0
 292 70 307 92 321 131 c 0
 327 146 425 472 431 499 c 0
 440 533 442 551 439 556 c 0
 435 562 432 562 404 562 c 0
 390 562 375 562 369 561 c 0
 326 557 291 542 267 518 c 0
 244 495 227 460 201 392 c 0
 191 366 191 367 187 366 c 0
 183 364 159 363 156 365 c 0
 152 367 150 370 150 374 c 0
 150 377 226 591 231 601 c 0
 232 603 235 605 236 606 c 0
EndSplineSet
EndChar

StartChar: U
Encoding: 85 85 73
Width: 704
Flags: HW
LayerCount: 2
Fore
SplineSet
208 615 m 0
 211 616 213 616 229 614 c 0
 266 609 303 607 346 607 c 0
 389 607 435 610 472 614 c 0
 483 616 484 616 488 613 c 0
 492 609 491 606 487 591 c 0
 481 573 481 572 466 571 c 0
 434 569 418 562 407 544 c 0
 398 532 389 512 380 485 c 0
 375 472 292 195 287 175 c 0
 279 146 276 119 278 102 c 0
 280 84 285 72 295 61 c 0
 319 35 364 28 422 37 c 0
 473 45 518 66 554 101 c 0
 583 128 604 163 617 200 c 0
 623 216 676 392 680 411 c 0
 702 495 702 554 680 567 c 0
 678 569 674 570 670 571 c 0
 662 572 657 575 656 580 c 0
 656 584 664 610 667 613 c 0
 671 616 675 616 690 614 c 0
 718 608 728 608 765 608 c 0
 801 608 809 608 839 613 c 0
 859 616 859 616 863 613 c 0
 867 609 867 606 862 591 c 0
 857 574 856 572 846 571 c 0
 816 567 790 536 758 473 c 0
 739 432 732 415 696 293 c 0
 680 239 665 190 664 184 c 0
 658 168 642 137 631 120 c 0
 602 77 566 46 522 23 c 0
 473 -3 423 -13 364 -12 c 0
 332 -11 312 -8 286 -2 c 0
 220 14 175 50 159 101 c 0
 148 133 148 166 156 200 c 0
 157 205 176 268 198 341 c 0
 245 497 249 513 251 539 c 0
 252 551 251 556 247 561 c 0
 241 567 232 569 212 571 c 0
 201 572 200 572 198 574 c 0
 193 578 193 582 198 597 c 0
 202 611 204 614 208 615 c 0
EndSplineSet
EndChar

StartChar: V
Encoding: 86 86 74
Width: 704
Flags: HW
LayerCount: 2
Fore
SplineSet
211 615 m 0
 215 616 218 616 236 614 c 0
 273 608 284 608 334 608 c 0
 382 608 401 609 443 613 c 0
 466 616 468 616 471 609 c 0
 472 606 472 605 469 594 c 0
 463 574 462 572 453 571 c 0
 449 570 443 569 441 567 c 0
 434 564 425 554 422 547 c 0
 416 534 412 511 412 485 c 0
 412 469 413 455 428 316 c 0
 438 233 445 165 445 165 c 2
 446 163 569 336 572 341 c 0
 573 344 579 351 583 358 c 0
 596 376 618 410 628 427 c 0
 663 484 692 549 692 567 c 0
 692 571 692 571 689 571 c 0
 685 571 681 575 679 579 c 0
 678 582 678 583 682 596 c 0
 688 618 689 618 711 614 c 0
 739 608 747 608 779 608 c 0
 810 607 819 608 843 613 c 0
 855 616 857 616 859 611 c 0
 862 607 861 605 857 592 c 0
 852 573 852 572 839 570 c 0
 819 567 793 547 743 492 c 0
 712 458 676 410 634 352 c 0
 626 341 618 331 616 330 c 0
 615 328 564 256 503 170 c 0
 441 83 387 9 384 6 c 0
 381 2 376 -1 371 -4 c 0
 363 -8 360 -8 352 -9 c 0
 337 -10 327 -5 323 6 c 0
 322 9 311 94 294 249 c 0
 280 379 266 493 264 501 c 0
 259 537 253 552 244 560 c 0
 237 567 223 571 211 571 c 0
 206 571 203 574 201 577 c 0
 198 581 199 583 203 596 c 0
 207 610 208 613 211 615 c 0
EndSplineSet
EndChar

StartChar: W
Encoding: 87 87 75
Width: 704
Flags: HW
LayerCount: 2
Fore
SplineSet
205 615 m 0
 208 616 210 616 224 614 c 0
 249 609 264 608 297 607 c 0
 339 607 389 609 429 615 c 0
 439 616 441 616 443 615 c 0
 446 613 449 609 449 605 c 0
 449 600 440 576 438 574 c 0
 436 572 435 572 425 570 c 0
 412 568 399 560 389 548 c 0
 378 535 368 505 364 473 c 0
 362 462 351 205 351 194 c 2
 352 188 l 1
 410 267 l 2
 441 310 468 348 471 351 c 0
 475 356 487 365 495 368 c 0
 502 370 515 370 521 367 c 0
 527 364 533 357 534 350 c 0
 535 348 540 311 545 268 c 0
 551 224 555 188 555 188 c 2
 556 187 640 339 641 342 c 0
 642 343 645 349 649 356 c 0
 664 385 683 424 694 451 c 0
 705 479 716 515 720 540 c 0
 724 564 722 571 713 571 c 0
 707 571 701 577 701 582 c 0
 701 585 709 608 711 611 c 0
 714 616 718 617 733 614 c 0
 756 609 774 608 803 608 c 0
 827 608 830 608 840 610 c 0
 845 611 852 613 855 614 c 0
 858 615 861 615 862 615 c 0
 865 614 868 611 869 608 c 0
 869 604 862 577 859 574 c 0
 858 573 855 572 852 571 c 0
 844 569 837 565 827 554 c 0
 799 526 755 458 705 370 c 0
 695 352 684 334 681 330 c 0
 679 326 638 253 590 168 c 0
 542 82 501 10 500 7 c 0
 490 -5 473 -11 461 -8 c 0
 453 -6 445 1 443 8 c 0
 443 9 436 57 429 112 c 0
 422 166 416 212 416 212 c 2
 416 213 382 167 341 112 c 0
 295 50 265 8 261 5 c 0
 250 -6 233 -11 222 -8 c 0
 217 -7 211 -1 209 5 c 0
 208 8 210 50 217 246 c 0
 225 452 226 485 226 512 c 0
 225 550 223 559 216 565 c 0
 212 569 210 570 203 571 c 0
 196 572 191 576 190 580 c 0
 190 583 198 609 201 612 c 0
 202 613 203 615 205 615 c 0
EndSplineSet
EndChar

StartChar: X
Encoding: 88 88 76
Width: 704
Flags: HW
LayerCount: 2
Fore
SplineSet
233 615 m 0
 235 616 243 616 260 613 c 0
 318 605 398 605 473 614 c 0
 484 615 489 616 490 615 c 0
 493 614 497 609 497 606 c 0
 497 603 490 582 488 577 c 0
 486 575 482 571 479 571 c 0
 470 571 466 552 467 512 c 0
 468 483 471 466 479 443 c 0
 482 434 485 423 487 419 c 0
 488 414 490 411 490 411 c 2
 491 411 519 443 534 463 c 0
 566 505 595 552 600 566 c 0
 601 571 601 571 598 571 c 0
 594 572 591 577 590 580 c 0
 590 584 597 610 600 613 c 0
 603 616 609 616 623 614 c 0
 659 608 672 607 713 608 c 0
 751 608 762 608 791 613 c 0
 806 616 808 616 811 610 c 2
 813 606 l 1
 809 592 l 2
 806 582 804 575 802 574 c 0
 801 572 798 572 791 571 c 0
 778 569 765 566 750 558 c 0
 734 550 717 539 690 520 c 0
 636 479 589 439 522 374 c 2
 508 360 l 1
 551 239 l 2
 576 171 597 111 599 106 c 0
 609 81 619 66 627 59 c 0
 637 51 650 47 665 45 c 0
 675 45 678 44 680 40 c 0
 683 36 682 34 678 20 c 0
 672 -3 673 -1 646 2 c 0
 605 8 596 8 545 8 c 0
 495 8 478 8 437 3 c 0
 411 0 412 0 409 3 c 0
 407 4 405 7 404 8 c 0
 404 12 412 39 415 42 c 0
 416 43 419 44 421 45 c 0
 430 46 432 53 434 82 c 0
 436 105 434 127 428 156 c 0
 428 160 397 246 396 247 c 0
 395 248 365 213 342 187 c 0
 303 140 253 64 249 48 c 0
 249 46 249 45 252 44 c 0
 257 43 259 38 259 33 c 0
 258 27 251 5 249 3 c 0
 246 0 241 0 224 2 c 0
 190 8 179 8 139 8 c 0
 99 9 89 8 58 3 c 0
 44 0 42 0 39 4 c 0
 36 8 37 13 41 28 c 0
 46 44 46 44 63 46 c 0
 88 49 115 62 165 100 c 0
 219 142 268 185 338 254 c 0
 356 272 374 288 376 289 c 0
 378 290 379 292 380 292 c 0
 381 295 308 498 300 515 c 0
 281 557 268 568 234 571 c 0
 226 572 224 572 222 574 c 0
 219 579 219 582 223 597 c 0
 227 610 229 613 233 615 c 0
EndSplineSet
EndChar

StartChar: Y
Encoding: 89 89 77
Width: 704
Flags: HW
LayerCount: 2
Fore
SplineSet
209 615 m 0
 212 616 214 616 232 614 c 0
 263 609 281 608 319 607 c 0
 366 607 415 609 457 614 c 0
 463 615 468 615 469 615 c 0
 472 614 475 611 476 608 c 0
 476 604 469 577 466 574 c 0
 465 573 462 572 460 571 c 0
 450 570 442 564 438 555 c 0
 432 543 432 514 439 483 c 0
 440 478 493 314 494 312 c 0
 495 311 519 338 522 343 c 0
 523 344 532 355 542 366 c 0
 587 415 623 461 650 500 c 0
 673 533 687 555 690 565 c 2
 692 570 l 1
 689 572 l 2
 685 573 682 579 682 582 c 0
 682 585 689 607 691 611 c 0
 692 614 696 616 700 616 c 0
 701 616 709 615 715 614 c 0
 740 609 752 608 783 608 c 0
 813 607 819 608 843 613 c 0
 857 616 859 616 862 613 c 0
 866 609 865 606 861 591 c 0
 856 575 855 572 845 571 c 0
 837 570 829 568 821 563 c 0
 780 544 688 458 584 345 c 0
 577 337 569 330 568 330 c 0
 566 329 493 249 492 247 c 0
 491 245 480 211 468 170 c 0
 454 120 447 89 447 71 c 0
 447 64 448 60 449 57 c 0
 452 54 456 50 462 48 c 0
 466 47 479 45 486 45 c 0
 493 45 498 43 500 38 c 0
 501 35 501 33 497 20 c 0
 492 5 490 3 486 1 c 0
 483 0 480 0 466 2 c 0
 421 8 389 9 341 9 c 0
 302 8 280 7 247 3 c 0
 223 0 223 0 220 3 c 0
 215 7 216 11 220 26 c 0
 222 33 224 40 225 41 c 0
 227 44 231 45 242 45 c 0
 277 47 292 58 307 91 c 0
 319 116 327 140 352 223 c 2
 359 247 l 1
 321 370 l 2
 280 499 277 505 269 523 c 0
 254 558 242 568 210 571 c 0
 203 572 200 572 198 574 c 0
 194 578 195 582 199 597 c 0
 203 610 205 614 209 615 c 0
EndSplineSet
EndChar

StartChar: Z
Encoding: 90 90 78
Width: 704
Flags: HW
LayerCount: 2
Fore
SplineSet
275 614 m 0
 278 616 285 616 544 616 c 0
 799 616 808 616 811 614 c 0
 819 610 821 603 817 590 c 0
 815 585 813 580 811 578 c 0
 809 576 681 455 526 311 c 2
 246 49 l 1
 321 48 l 2
 415 48 438 49 473 56 c 0
 507 62 537 75 561 90 c 0
 614 126 647 175 681 267 c 0
 684 274 686 282 687 283 c 0
 689 286 694 287 709 287 c 0
 722 287 723 286 725 284 c 0
 727 283 728 280 729 279 c 0
 729 276 719 245 682 140 c 0
 655 66 634 6 633 4 c 0
 632 3 631 2 629 1 c 0
 626 0 83 0 79 1 c 0
 68 5 67 18 75 36 c 0
 77 41 110 72 360 305 c 0
 516 450 644 570 645 570 c 1
 645 571 613 571 562 571 c 0
 492 570 475 570 464 569 c 0
 414 563 378 551 345 529 c 0
 309 505 282 473 259 429 c 0
 252 416 244 395 241 387 c 0
 237 374 235 373 217 373 c 0
 201 373 198 374 196 380 c 0
 195 384 196 390 231 490 c 0
 250 549 268 601 270 605 c 0
 272 611 273 613 275 614 c 0
EndSplineSet
EndChar

StartChar: bracketleft
Encoding: 91 91 79
Width: 704
Flags: HW
LayerCount: 2
Fore
SplineSet
553 758 m 0
 556 759 863 759 866 758 c 0
 869 757 872 752 872 749 c 0
 872 746 862 710 860 707 c 0
 857 702 863 701 722 701 c 2
 590 701 l 1
 588 693 l 2
 586 688 527 489 455 250 c 0
 382 10 324 -186 323 -187 c 0
 323 -189 327 -189 451 -189 c 0
 544 -189 581 -189 582 -190 c 0
 586 -192 588 -196 588 -200 c 0
 588 -206 576 -241 573 -244 c 2
 571 -246 l 1
 416 -247 l 2
 308 -247 259 -247 257 -246 c 0
 253 -244 251 -239 251 -234 c 0
 252 -227 547 753 549 755 c 0
 550 756 551 758 553 758 c 0
EndSplineSet
EndChar

StartChar: backslash
Encoding: 92 92 80
Width: 704
Flags: HW
LayerCount: 2
Fore
SplineSet
315 757 m 0
 318 758 323 759 327 759 c 0
 338 758 347 751 351 741 c 0
 353 737 559 -208 560 -216 c 0
 560 -225 558 -232 552 -239 c 0
 548 -242 545 -244 541 -245 c 0
 528 -250 511 -242 506 -229 c 0
 504 -225 298 720 297 728 c 0
 297 737 299 744 305 751 c 0
 308 754 312 756 315 757 c 0
EndSplineSet
EndChar

StartChar: bracketright
Encoding: 93 93 81
Width: 704
Flags: HW
LayerCount: 2
Fore
SplineSet
287 758 m 0
 290 759 597 759 600 758 c 0
 604 756 606 750 606 746 c 0
 605 744 539 521 458 251 c 0
 337 -153 309 -242 307 -244 c 2
 305 -246 l 1
 150 -247 l 2
 42 -247 -7 -247 -9 -246 c 0
 -12 -245 -15 -240 -15 -237 c 0
 -15 -234 -5 -198 -3 -195 c 0
 0 -190 -6 -189 135 -189 c 2
 267 -189 l 1
 270 -179 l 2
 272 -174 331 25 403 264 c 0
 475 503 534 698 535 699 c 0
 535 701 529 701 407 701 c 0
 314 701 276 701 275 702 c 0
 271 704 269 708 269 712 c 0
 269 716 281 753 283 755 c 0
 284 756 285 758 287 758 c 0
EndSplineSet
EndChar

StartChar: circumflex
Encoding: 710 710 82
Width: 704
Flags: HW
LayerCount: 2
Fore
SplineSet
470 609 m 0
 508 625 540 640 541 640 c 0
 544 640 542 641 636 583 c 0
 702 542 703 541 703 535 c 0
 703 532 702 529 694 519 c 0
 686 507 683 504 680 504 c 0
 678 503 655 510 600 528 c 0
 558 543 522 555 521 555 c 0
 520 555 478 542 427 528 c 0
 335 502 334 503 330 504 c 0
 325 507 324 509 323 523 c 0
 320 542 317 539 364 561 c 0
 384 570 432 592 470 609 c 0
EndSplineSet
EndChar

StartChar: underscore
Encoding: 95 95 83
Width: 704
Flags: HW
LayerCount: 2
Fore
SplineSet
15 -241 m 0
 18 -240 61 -240 271 -240 c 0
 520 -240 523 -240 528 -242 c 0
 539 -246 547 -256 547 -268 c 0
 547 -280 539 -291 528 -295 c 0
 523 -297 520 -297 271 -297 c 0
 110 -297 18 -297 16 -296 c 0
 6 -293 -2 -283 -4 -273 c 0
 -7 -260 1 -246 15 -241 c 0
EndSplineSet
EndChar

StartChar: quoteleft
Encoding: 8216 8216 84
Width: 704
Flags: HW
LayerCount: 2
Fore
SplineSet
608 689 m 0
 617 693 621 694 626 691 c 0
 629 689 636 679 639 673 c 0
 642 669 641 663 639 660 c 0
 638 658 632 655 625 652 c 0
 575 630 535 603 497 564 c 0
 455 522 426 475 411 426 c 0
 407 415 402 398 402 394 c 0
 402 393 406 395 409 398 c 0
 427 415 448 425 472 427 c 0
 505 428 528 414 534 386 c 0
 540 363 530 333 511 310 c 0
 500 297 479 284 462 280 c 0
 450 277 427 277 416 280 c 0
 403 284 392 289 382 299 c 0
 375 306 374 308 369 318 c 0
 353 350 353 390 369 437 c 0
 405 546 494 640 608 689 c 0
EndSplineSet
EndChar

StartChar: a
Encoding: 97 97 85
Width: 704
Flags: HW
LayerCount: 2
Fore
SplineSet
421 456 m 0
 433 457 460 457 469 456 c 0
 512 452 544 438 572 412 c 2
 577 408 l 1
 579 411 l 2
 582 417 593 426 601 431 c 0
 615 439 634 443 647 440 c 0
 661 437 675 428 679 416 c 0
 681 411 681 408 681 399 c 2
 681 388 l 1
 638 244 l 1
 595 100 l 1
 595 84 l 2
 595 66 596 61 603 51 c 0
 617 33 647 34 670 52 c 0
 690 68 710 102 723 143 c 0
 729 161 730 162 749 162 c 0
 763 162 766 161 768 156 c 0
 771 152 770 149 766 136 c 0
 748 83 720 40 689 16 c 0
 679 8 660 0 650 -3 c 0
 643 -5 639 -5 622 -5 c 0
 588 -5 559 1 534 13 c 0
 517 21 500 35 493 48 c 0
 490 52 487 55 487 54 c 1
 486 54 484 52 482 50 c 0
 479 49 473 44 467 40 c 0
 432 17 394 3 350 -4 c 0
 336 -6 292 -6 276 -4 c 0
 229 1 194 15 165 38 c 0
 149 51 139 63 129 81 c 0
 123 94 119 108 116 122 c 0
 113 134 112 166 114 181 c 0
 121 244 153 309 200 357 c 0
 256 414 335 451 421 456 c 0
460 412 m 0
 451 413 431 413 425 412 c 0
 381 407 346 391 317 362 c 0
 293 338 277 312 263 274 c 0
 258 259 244 214 238 190 c 0
 220 125 222 90 245 65 c 0
 254 56 265 49 278 44 c 0
 325 29 393 42 444 76 c 0
 461 87 483 106 484 110 c 0
 484 111 501 165 520 230 c 2
 556 349 l 1
 553 354 l 2
 537 387 505 407 460 412 c 0
EndSplineSet
EndChar

StartChar: b
Encoding: 98 98 86
Width: 704
Flags: HW
LayerCount: 2
Fore
SplineSet
273 636 m 0
 367 640 368 640 371 639 c 0
 375 637 377 634 377 630 c 0
 377 625 374 613 342 507 c 0
 326 454 312 410 312 409 c 0
 312 408 315 410 319 412 c 0
 329 419 351 428 367 434 c 0
 420 456 482 462 545 453 c 0
 627 441 683 401 702 342 c 0
 708 323 710 315 710 288 c 0
 710 261 709 255 703 231 c 0
 693 188 667 142 635 106 c 0
 585 52 513 14 432 1 c 0
 379 -9 319 -8 274 2 c 0
 225 12 187 36 163 67 c 0
 134 106 126 159 141 218 c 0
 142 224 160 286 182 356 c 0
 202 427 221 490 223 497 c 0
 232 535 235 562 231 571 c 0
 230 574 228 578 225 579 c 0
 220 583 208 586 195 587 c 0
 183 587 179 588 177 592 c 0
 174 596 175 597 179 611 c 0
 183 625 184 630 188 631 c 0
 189 632 228 634 273 636 c 0
513 411 m 0
 504 412 468 413 460 412 c 0
 458 412 451 412 446 411 c 0
 415 408 379 396 352 382 c 0
 333 372 312 357 298 344 c 2
 291 338 l 1
 272 276 l 2
 245 188 245 184 242 162 c 0
 236 121 241 96 258 74 c 0
 276 52 308 40 351 38 c 0
 409 36 466 55 504 91 c 0
 537 122 558 157 577 224 c 0
 596 287 600 324 591 353 c 0
 582 383 554 404 513 411 c 0
EndSplineSet
EndChar

StartChar: c
Encoding: 99 99 87
Width: 704
Flags: HW
LayerCount: 2
Fore
SplineSet
497 456 m 0
 500 456 514 457 528 457 c 0
 648 458 710 434 722 385 c 0
 724 376 723 358 720 347 c 0
 717 335 706 315 700 307 c 0
 686 291 665 277 643 272 c 0
 634 271 615 271 607 273 c 0
 591 276 577 288 571 301 c 0
 564 316 563 331 570 353 c 0
 577 375 591 392 609 404 c 2
 615 409 l 1
 610 409 l 2
 584 412 523 414 497 412 c 0
 406 406 341 370 300 309 c 0
 286 287 275 266 265 236 c 0
 253 199 248 170 248 144 c 0
 248 112 254 94 272 76 c 0
 292 57 323 45 366 40 c 0
 380 38 475 38 502 40 c 0
 569 44 611 55 650 73 c 0
 672 83 687 94 703 110 c 0
 713 120 716 121 721 121 c 0
 724 121 727 119 733 113 c 0
 743 102 745 96 742 90 c 0
 740 87 723 69 713 62 c 0
 667 25 606 5 521 -2 c 0
 477 -6 374 -7 341 -4 c 0
 271 4 223 20 183 53 c 0
 172 62 163 72 155 84 c 0
 119 138 121 211 161 281 c 0
 195 340 250 387 323 418 c 0
 374 441 432 453 497 456 c 0
EndSplineSet
EndChar

StartChar: d
Encoding: 100 100 88
Width: 704
Flags: HW
LayerCount: 2
Fore
SplineSet
654 636 m 0
 742 640 743 640 746 639 c 0
 750 637 753 634 753 630 c 0
 753 625 751 617 671 351 c 2
 595 99 l 1
 595 84 l 2
 595 66 596 61 603 51 c 0
 617 33 647 34 670 52 c 0
 690 68 710 102 723 143 c 0
 729 161 730 162 749 162 c 0
 763 162 766 161 768 156 c 0
 771 152 770 149 766 136 c 0
 748 83 720 40 689 16 c 0
 679 8 660 0 650 -3 c 0
 643 -5 639 -5 622 -5 c 0
 588 -5 559 1 534 13 c 0
 517 21 500 35 493 48 c 0
 490 52 487 55 487 54 c 1
 486 54 484 52 482 50 c 0
 479 49 473 44 467 40 c 0
 432 17 394 3 350 -4 c 0
 336 -6 292 -6 276 -4 c 0
 229 1 194 15 165 38 c 0
 149 51 139 63 129 81 c 0
 123 94 119 108 116 122 c 0
 113 134 112 166 114 181 c 0
 118 220 132 261 154 298 c 0
 211 394 314 453 435 457 c 0
 475 458 507 451 535 437 c 0
 547 432 554 427 565 418 c 0
 569 414 573 411 573 411 c 2
 574 411 580 428 586 450 c 0
 604 511 609 534 610 557 c 0
 610 569 610 571 608 574 c 0
 604 581 594 586 578 587 c 0
 568 587 564 588 562 592 c 0
 559 595 560 599 564 614 c 0
 568 627 570 630 574 632 c 0
 576 632 611 634 654 636 c 0
460 412 m 0
 451 413 431 413 425 412 c 0
 381 407 346 391 317 362 c 0
 293 338 277 312 263 274 c 0
 258 259 244 214 238 190 c 0
 220 125 222 90 245 65 c 0
 254 56 265 49 278 44 c 0
 331 27 411 46 463 89 c 0
 467 92 473 98 477 101 c 2
 483 108 l 1
 486 120 l 2
 488 127 505 182 523 242 c 2
 556 350 l 1
 553 356 l 2
 536 388 505 407 460 412 c 0
EndSplineSet
EndChar

StartChar: e
Encoding: 101 101 89
Width: 704
Flags: HW
LayerCount: 2
Fore
SplineSet
495 456 m 0
 498 457 515 457 532 456 c 0
 567 456 581 455 607 450 c 0
 682 435 715 395 702 340 c 0
 699 329 691 310 683 301 c 0
 653 263 592 239 498 228 c 0
 450 223 414 221 331 220 c 2
 260 220 l 1
 258 209 l 2
 247 163 248 125 260 100 c 0
 266 88 280 73 292 65 c 0
 309 53 333 44 364 40 c 0
 375 39 384 39 430 39 c 0
 495 39 525 40 564 47 c 0
 614 54 656 70 688 95 c 0
 691 97 698 105 703 110 c 0
 713 120 716 121 721 121 c 0
 724 121 727 119 733 113 c 0
 743 102 745 96 742 90 c 0
 740 87 723 69 713 62 c 0
 667 25 606 5 521 -2 c 0
 482 -6 397 -7 361 -5 c 0
 278 0 218 24 176 65 c 0
 157 85 142 113 136 144 c 0
 134 154 134 158 134 181 c 0
 134 207 134 214 140 237 c 0
 153 289 188 336 239 374 c 0
 256 387 269 396 292 407 c 0
 323 422 350 432 383 440 c 0
 419 448 447 453 495 456 c 0
563 411 m 0
 553 412 506 413 497 412 c 0
 482 411 459 409 450 407 c 0
 399 397 354 375 324 344 c 0
 305 324 286 296 276 269 c 2
 274 264 l 1
 319 264 l 2
 499 264 597 282 632 321 c 0
 645 335 650 357 645 372 c 0
 642 379 631 390 623 395 c 0
 609 402 587 408 563 411 c 0
EndSplineSet
EndChar

StartChar: f
Encoding: 102 102 90
Width: 704
Flags: HW
LayerCount: 2
Fore
SplineSet
593 645 m 0
 605 646 663 645 676 644 c 0
 725 638 758 624 777 604 c 0
 784 596 792 584 794 574 c 0
 796 567 796 551 794 544 c 0
 791 527 781 508 772 497 c 0
 760 483 738 469 721 464 c 0
 687 456 655 465 644 489 c 0
 639 499 638 508 638 520 c 0
 639 532 642 543 648 556 c 0
 656 572 667 584 681 594 c 2
 687 598 l 1
 683 598 l 1
 660 602 610 603 588 601 c 0
 563 599 551 595 547 587 c 0
 542 575 535 551 519 460 c 0
 512 420 506 386 505 385 c 2
 505 383 l 1
 592 383 l 2
 652 383 680 383 681 382 c 0
 684 381 687 376 687 373 c 0
 687 370 680 346 678 343 c 0
 677 341 676 340 674 339 c 0
 673 338 645 338 585 338 c 2
 497 338 l 1
 496 333 l 2
 496 330 487 287 478 239 c 0
 458 125 453 105 447 79 c 0
 425 -21 399 -84 361 -123 c 0
 326 -160 279 -187 234 -196 c 0
 216 -200 203 -201 180 -201 c 0
 83 -198 30 -165 32 -110 c 0
 33 -97 36 -86 41 -73 c 0
 52 -50 66 -36 89 -26 c 0
 101 -20 113 -16 126 -15 c 0
 139 -15 150 -18 161 -23 c 0
 176 -31 184 -42 188 -59 c 0
 189 -66 189 -70 188 -78 c 0
 186 -94 180 -111 171 -125 c 0
 165 -132 152 -143 145 -148 c 0
 140 -152 140 -153 142 -153 c 0
 154 -156 200 -158 211 -156 c 0
 226 -154 244 -145 260 -134 c 0
 271 -127 290 -108 293 -102 c 0
 300 -89 315 -26 331 56 c 0
 334 71 346 139 359 208 c 0
 371 277 382 334 383 335 c 2
 383 338 l 1
 303 338 l 1
 223 339 l 1
 221 341 l 2
 219 342 218 345 217 346 c 0
 217 350 224 377 228 380 c 2
 230 383 l 1
 310 383 l 2
 386 383 391 383 391 385 c 0
 392 386 397 412 402 445 c 0
 414 506 417 517 423 531 c 0
 439 574 466 606 505 625 c 0
 529 637 554 643 593 645 c 0
EndSplineSet
EndChar

StartChar: g
Encoding: 103 103 91
Width: 704
Flags: HW
LayerCount: 2
Fore
SplineSet
451 456 m 0
 470 457 512 456 528 454 c 0
 570 448 604 434 629 410 c 2
 637 402 l 1
 640 409 l 2
 654 431 686 445 711 440 c 0
 725 437 738 428 742 416 c 0
 744 411 744 408 744 399 c 2
 744 388 l 1
 675 156 l 2
 600 -94 602 -89 590 -108 c 0
 568 -140 529 -165 478 -180 c 0
 441 -191 398 -198 342 -200 c 0
 311 -201 222 -201 199 -199 c 0
 144 -195 111 -185 89 -168 c 0
 74 -157 66 -137 67 -118 c 0
 71 -68 112 -28 161 -25 c 0
 200 -23 226 -47 224 -83 c 0
 222 -106 212 -129 196 -145 c 0
 190 -151 188 -153 190 -153 c 0
 202 -156 300 -158 326 -156 c 0
 391 -151 440 -133 470 -103 c 0
 479 -94 488 -83 492 -74 c 0
 494 -70 502 -42 511 -11 c 0
 520 19 527 45 528 46 c 2
 529 49 l 1
 526 47 l 2
 475 16 416 0 354 0 c 0
 324 0 295 3 269 9 c 0
 222 19 179 45 157 76 c 0
 146 92 136 112 132 134 c 0
 129 146 128 174 130 189 c 0
 135 235 154 282 185 323 c 0
 196 338 219 362 233 373 c 0
 291 421 367 450 451 456 c 0
503 412 m 0
 429 419 360 393 318 343 c 0
 293 314 278 282 261 224 c 0
 251 189 247 169 245 146 c 0
 240 91 267 57 326 47 c 0
 336 45 340 45 362 45 c 0
 391 45 406 46 432 53 c 0
 475 64 513 84 545 114 c 2
 550 119 l 1
 584 229 l 2
 601 289 616 341 617 343 c 0
 618 349 598 375 583 386 c 0
 563 399 535 409 503 412 c 0
EndSplineSet
EndChar

StartChar: h
Encoding: 104 104 92
Width: 704
Flags: W
HStem: -6 45<570.196 659.503> 437 20G<485.5 522.5> 587 45<172.955 217.807>
VStem: 724 46<104.417 159.95>
LayerCount: 2
Fore
SplineSet
264 636 m 0
 352 640 353 640 356 639 c 0
 360 637 362 634 362 630 c 0
 362 628 361 621 359 615 c 0
 356 606 288 373 285 366 c 0
 284 363 286 365 294 372 c 0
 336 412 387 441 434 451 c 0
 456 456 472 457 499 457 c 0
 546 456 577 448 603 435 c 0
 634 420 652 396 658 364 c 0
 659 353 659 329 657 317 c 0
 652 281 629 219 593 142 c 0
 575 102 573 98 570 88 c 0
 567 77 567 61 570 54 c 0
 572 47 580 41 586 39 c 0
 597 36 624 41 642 50 c 0
 676 67 711 107 724 145 c 0
 728 157 728 159 732 160 c 0
 736 163 760 163 764 160 c 0
 767 159 770 154 770 151 c 0
 770 143 753 106 741 88 c 0
 718 54 689 26 654 10 c 0
 631 -1 616 -5 593 -6 c 0
 544 -8 496 9 473 36 c 0
 461 52 455 73 460 95 c 0
 462 105 464 110 480 147 c 0
 517 225 542 291 548 330 c 0
 550 340 550 364 548 371 c 0
 545 384 537 395 527 401 c 0
 504 415 460 416 418 402 c 0
 393 394 364 377 340 358 c 0
 315 339 285 305 261 272 c 2
 254 262 l 1
 220 150 l 2
 195 68 185 36 182 31 c 0
 172 11 150 -4 126 -6 c 0
 100 -7 81 7 76 30 c 0
 73 43 71 36 140 267 c 0
 217 522 219 527 220 557 c 0
 220 569 220 571 218 574 c 0
 214 581 203 586 187 587 c 0
 177 587 174 588 172 592 c 0
 169 595 170 599 174 614 c 0
 178 627 180 630 184 632 c 0
 186 632 221 634 264 636 c 0
EndSplineSet
EndChar

StartChar: i
Encoding: 105 105 93
Width: 704
Flags: HW
LayerCount: 2
Fore
SplineSet
523 639 m 0
 554 645 582 634 593 611 c 0
 601 595 602 578 595 559 c 0
 587 534 569 514 542 502 c 0
 512 487 483 489 463 506 c 0
 456 511 449 520 446 531 c 0
 443 540 443 556 446 567 c 0
 449 577 456 592 462 600 c 0
 476 618 500 634 523 639 c 0
362 456 m 0
 373 457 413 456 428 455 c 0
 493 446 534 421 542 386 c 0
 546 373 544 356 538 342 c 0
 536 338 508 283 474 220 c 0
 440 154 413 100 411 96 c 0
 409 90 409 87 409 79 c 0
 410 67 412 62 419 53 c 0
 432 40 450 36 480 39 c 0
 529 46 576 74 605 113 c 0
 614 125 620 136 626 153 c 0
 629 161 632 162 647 162 c 0
 662 162 666 161 668 156 c 0
 671 152 670 148 666 137 c 0
 654 102 631 73 600 48 c 0
 566 21 529 4 486 -4 c 0
 472 -6 430 -6 412 -4 c 0
 336 6 295 36 295 79 c 0
 295 88 297 100 301 109 c 0
 303 113 331 166 365 231 c 0
 399 296 426 350 428 354 c 0
 430 360 430 364 430 372 c 0
 429 384 427 388 420 397 c 0
 407 410 388 415 358 412 c 0
 309 405 262 377 233 338 c 0
 224 326 219 315 213 298 c 0
 210 290 206 289 191 289 c 0
 176 289 173 290 171 295 c 0
 168 299 169 302 173 313 c 0
 185 348 208 377 239 402 c 0
 276 432 318 451 362 456 c 0
EndSplineSet
EndChar

StartChar: j
Encoding: 106 106 94
Width: 704
Flags: HW
LayerCount: 2
Fore
SplineSet
669 639 m 0
 700 645 728 634 739 610 c 0
 746 595 746 578 740 559 c 0
 732 534 714 514 687 502 c 0
 657 487 628 489 608 506 c 0
 601 511 595 520 592 531 c 0
 589 540 589 556 592 567 c 0
 595 577 601 592 607 600 c 0
 621 618 646 634 669 639 c 0
489 456 m 0
 497 457 543 456 555 455 c 0
 624 446 666 420 676 382 c 0
 678 372 678 359 677 349 c 0
 675 339 556 -59 551 -70 c 0
 536 -109 506 -138 461 -161 c 0
 416 -184 361 -196 291 -200 c 0
 266 -201 227 -201 211 -198 c 0
 152 -191 118 -170 109 -136 c 0
 109 -133 108 -126 108 -120 c 0
 108 -72 150 -28 201 -25 c 0
 240 -23 266 -47 264 -83 c 0
 262 -109 246 -139 227 -153 c 2
 224 -156 l 1
 241 -157 l 2
 289 -159 329 -150 367 -132 c 0
 399 -117 425 -93 437 -66 c 0
 441 -59 454 -18 503 145 c 2
 563 347 l 1
 564 357 l 2
 565 374 561 384 550 395 c 0
 536 409 515 415 483 412 c 0
 443 408 404 395 371 373 c 0
 355 363 345 354 333 341 c 0
 321 329 311 316 303 302 c 0
 299 295 296 291 294 290 c 0
 290 288 266 288 262 291 c 0
 259 292 256 297 256 301 c 0
 256 304 262 317 270 329 c 0
 297 370 337 403 387 428 c 0
 420 443 447 452 489 456 c 0
EndSplineSet
EndChar

StartChar: k
Encoding: 107 107 95
Width: 704
Flags: HW
LayerCount: 2
Fore
SplineSet
273 636 m 0
 367 640 368 640 371 639 c 0
 375 637 377 634 377 630 c 0
 377 625 374 615 322 440 c 0
 295 350 272 276 272 275 c 0
 273 274 291 282 307 289 c 0
 336 301 363 317 428 358 c 0
 476 389 497 403 521 415 c 0
 560 437 593 448 627 454 c 0
 642 457 673 457 684 455 c 0
 707 450 728 438 740 423 c 0
 746 415 756 396 759 386 c 0
 761 379 761 374 761 358 c 0
 761 341 761 339 758 328 c 0
 750 295 731 272 703 259 c 0
 660 237 614 252 605 289 c 0
 602 300 603 318 608 332 c 0
 611 342 620 356 626 364 c 0
 641 382 664 395 691 399 c 2
 696 400 l 1
 691 403 l 2
 679 410 665 414 647 413 c 0
 616 411 588 403 551 386 c 0
 524 374 496 358 435 318 c 0
 395 292 368 276 351 266 c 2
 342 262 l 1
 359 260 l 1
 449 255 506 238 536 209 c 0
 560 185 564 157 553 115 c 0
 550 102 550 84 553 74 c 0
 559 56 574 43 592 40 c 0
 624 33 659 49 688 84 c 0
 706 106 715 121 726 153 c 0
 729 161 733 162 748 162 c 0
 763 162 766 161 768 156 c 0
 771 152 770 148 766 137 c 0
 761 122 748 96 738 82 c 0
 708 37 667 5 624 -4 c 0
 617 -5 610 -5 594 -5 c 0
 571 -5 561 -4 541 0 c 0
 502 7 468 24 454 46 c 0
 443 62 438 75 438 94 c 0
 438 105 438 109 442 123 c 0
 445 136 445 140 445 150 c 0
 445 163 444 168 437 177 c 0
 419 203 368 216 280 219 c 2
 255 219 l 1
 255 219 242 178 228 128 c 0
 208 62 200 36 197 31 c 0
 187 11 164 -4 140 -6 c 0
 114 -7 95 7 90 30 c 0
 87 43 86 36 155 267 c 0
 191 386 221 490 223 497 c 0
 232 535 235 562 231 571 c 0
 230 574 228 578 225 579 c 0
 220 583 208 586 195 587 c 0
 183 587 179 588 177 592 c 0
 174 596 175 597 179 611 c 0
 183 625 184 630 188 631 c 0
 189 632 228 634 273 636 c 0
EndSplineSet
EndChar

StartChar: l
Encoding: 108 108 96
Width: 704
Flags: HW
LayerCount: 2
Fore
SplineSet
421 636 m 0
 529 640 528 640 531 639 c 0
 535 637 538 634 538 630 c 0
 538 625 536 618 456 351 c 2
 380 99 l 1
 380 90 l 2
 381 79 385 71 394 62 c 0
 402 54 412 49 425 45 c 0
 444 39 472 37 488 39 c 0
 514 43 539 56 559 76 c 0
 582 96 597 120 606 145 c 0
 610 157 610 159 614 160 c 0
 618 163 642 163 646 160 c 0
 649 159 652 154 652 151 c 0
 652 143 636 105 624 88 c 0
 593 41 547 8 498 -3 c 0
 489 -5 486 -5 458 -5 c 0
 379 -5 327 6 295 30 c 0
 271 48 262 74 268 105 c 0
 269 111 295 197 324 295 c 0
 354 393 379 479 381 485 c 0
 389 516 393 546 391 559 c 0
 390 568 388 571 383 575 c 0
 375 582 363 586 335 587 c 0
 317 588 315 588 313 590 c 0
 308 594 308 597 313 612 c 0
 317 626 320 631 325 632 c 0
 327 632 370 634 421 636 c 0
EndSplineSet
EndChar

StartChar: m
Encoding: 109 109 97
Width: 704
Flags: HW
LayerCount: 2
Fore
SplineSet
382 456 m 0
 386 456 398 457 409 457 c 0
 438 456 454 452 473 443 c 0
 485 437 497 428 504 420 c 0
 508 415 514 403 515 399 c 0
 516 398 518 399 523 404 c 0
 561 439 602 457 649 457 c 0
 694 457 732 443 750 419 c 0
 763 401 769 374 767 345 c 0
 764 305 751 266 712 178 c 0
 689 126 685 114 685 91 c 0
 685 73 688 62 696 54 c 0
 701 48 709 45 718 44 c 0
 734 43 736 36 729 16 c 0
 725 2 723 0 712 0 c 0
 689 0 659 6 641 15 c 0
 613 27 595 45 585 68 c 0
 579 82 577 89 578 109 c 0
 578 133 578 135 600 185 c 0
 610 207 622 235 627 246 c 0
 658 324 668 387 654 406 c 0
 650 413 643 414 624 412 c 0
 607 409 590 402 574 391 c 0
 562 384 539 362 529 348 c 2
 522 339 l 1
 520 327 l 2
 519 321 517 310 515 305 c 0
 511 287 438 46 435 39 c 0
 428 23 416 10 400 1 c 0
 385 -6 370 -8 356 -4 c 0
 339 -1 329 11 325 27 c 0
 324 34 324 36 325 44 c 0
 326 49 344 111 366 182 c 0
 415 347 415 347 415 377 c 0
 416 396 414 401 409 408 c 0
 405 412 403 412 398 413 c 0
 385 414 363 408 349 402 c 0
 329 394 308 378 291 356 c 2
 283 347 l 1
 238 196 l 2
 213 113 190 41 188 37 c 0
 181 21 171 9 155 1 c 0
 140 -6 125 -8 111 -4 c 0
 88 1 76 19 79 42 c 0
 80 49 197 440 199 444 c 2
 203 449 l 2
 206 451 209 451 254 451 c 2
 302 451 l 1
 305 447 l 2
 309 444 310 440 309 433 c 0
 308 431 307 428 307 428 c 1
 313 432 l 2
 332 443 357 453 382 456 c 0
EndSplineSet
EndChar

StartChar: n
Encoding: 110 110 98
Width: 704
Flags: HW
LayerCount: 2
Fore
SplineSet
186 455 m 0
 206 459 241 455 267 447 c 0
 278 443 296 434 304 428 c 0
 315 420 324 409 329 399 c 0
 334 390 337 380 337 375 c 0
 337 373 337 372 338 372 c 1
 338 371 343 375 348 380 c 0
 387 418 432 443 477 453 c 0
 495 456 510 457 535 457 c 0
 573 456 599 450 622 439 c 0
 636 432 643 427 654 417 c 0
 661 409 664 405 669 396 c 0
 672 390 675 381 677 376 c 0
 679 366 679 363 679 346 c 0
 679 329 679 324 677 314 c 0
 670 276 646 212 607 128 c 0
 590 89 587 78 588 60 c 0
 589 49 591 44 595 41 c 0
 598 39 600 39 608 39 c 0
 620 39 631 41 644 47 c 0
 676 63 708 101 722 142 c 0
 724 147 727 154 727 155 c 0
 729 161 734 162 748 162 c 0
 758 162 762 162 764 160 c 0
 767 159 770 154 770 151 c 0
 770 142 751 101 739 82 c 0
 706 34 662 3 617 -5 c 0
 597 -8 564 -5 544 3 c 0
 517 12 497 28 488 46 c 0
 481 58 480 66 480 81 c 0
 480 97 482 102 496 135 c 0
 535 220 559 287 567 328 c 0
 571 345 571 370 567 381 c 0
 564 389 562 392 556 398 c 0
 545 410 525 415 498 412 c 0
 460 408 426 394 392 366 c 0
 380 357 358 335 347 321 c 0
 336 308 319 286 317 282 c 0
 317 280 301 225 282 162 c 0
 263 99 246 43 244 39 c 0
 237 23 225 10 209 1 c 0
 194 -6 179 -8 165 -4 c 0
 148 -1 137 11 133 27 c 0
 132 34 132 36 133 44 c 0
 134 49 154 119 179 200 c 0
 204 281 224 350 225 354 c 0
 227 365 227 384 224 392 c 0
 219 408 205 416 187 412 c 0
 178 409 171 404 163 396 c 0
 145 379 131 353 117 311 c 0
 111 293 110 292 106 291 c 0
 102 288 79 288 75 291 c 0
 72 292 69 297 69 300 c 0
 69 304 79 334 86 349 c 0
 104 392 127 423 152 439 c 0
 162 446 176 453 186 455 c 0
EndSplineSet
EndChar

StartChar: o
Encoding: 111 111 99
Width: 704
Flags: HW
LayerCount: 2
Fore
SplineSet
456 456 m 0
 484 458 520 457 545 453 c 0
 613 445 665 418 695 379 c 0
 703 368 715 345 718 333 c 0
 728 299 727 262 716 223 c 0
 708 196 691 163 673 137 c 0
 627 75 555 29 471 7 c 0
 435 -1 406 -5 366 -6 c 0
 269 -8 199 13 155 59 c 0
 144 70 138 79 130 94 c 0
 117 121 112 152 115 185 c 0
 119 222 132 259 154 294 c 0
 207 383 310 443 433 454 c 0
 441 455 452 456 456 456 c 0
503 412 m 0
 492 413 467 413 459 412 c 0
 432 410 415 406 396 399 c 0
 334 379 291 338 264 271 c 0
 251 241 238 198 233 168 c 0
 230 155 229 125 231 115 c 0
 238 71 275 44 338 39 c 0
 352 38 380 38 394 40 c 0
 427 44 460 56 485 70 c 0
 539 103 571 152 596 242 c 0
 605 275 608 292 608 315 c 0
 608 343 603 359 590 375 c 0
 573 395 543 408 503 412 c 0
EndSplineSet
EndChar

StartChar: p
Encoding: 112 112 100
Width: 704
Flags: HW
LayerCount: 2
Fore
SplineSet
194 455 m 0
 201 457 205 457 221 457 c 0
 254 456 282 448 306 437 c 0
 323 429 339 415 346 402 c 0
 349 398 351 395 351 396 c 1
 352 396 354 398 357 400 c 0
 359 401 366 407 372 411 c 0
 407 434 444 448 488 455 c 0
 502 457 546 457 563 455 c 0
 609 450 645 436 674 413 c 0
 690 400 700 388 710 369 c 0
 716 357 721 341 724 327 c 0
 726 311 726 272 723 255 c 0
 718 225 708 200 695 172 c 0
 641 63 532 -2 404 -6 c 0
 363 -7 332 -1 304 13 c 0
 292 18 284 24 273 33 c 0
 269 37 265 40 265 39 c 0
 264 37 235 -60 232 -72 c 0
 225 -99 222 -124 223 -132 c 0
 224 -137 228 -141 233 -144 c 0
 238 -146 253 -150 261 -150 c 0
 270 -150 274 -153 274 -160 c 0
 274 -166 266 -189 264 -191 c 0
 260 -194 257 -195 238 -193 c 0
 201 -187 187 -186 144 -186 c 0
 101 -185 93 -186 60 -191 c 0
 37 -194 38 -194 35 -191 c 0
 30 -187 30 -184 35 -169 c 0
 40 -152 41 -151 52 -150 c 0
 67 -148 76 -144 85 -136 c 0
 94 -127 103 -111 114 -78 c 0
 117 -69 147 31 182 145 c 2
 244 352 l 1
 244 368 l 2
 244 385 243 390 236 399 c 0
 222 417 192 416 169 398 c 0
 149 382 129 348 116 308 c 0
 110 289 109 289 90 289 c 0
 76 289 73 290 71 295 c 0
 68 299 69 301 73 314 c 0
 95 377 127 424 166 444 c 0
 178 450 183 453 194 455 c 0
539 412 m 0
 502 416 458 407 420 389 c 0
 398 379 380 366 361 349 c 0
 355 344 355 343 353 336 c 0
 352 332 335 277 317 215 c 0
 299 154 284 101 284 100 c 0
 284 96 293 82 302 73 c 0
 324 49 363 36 406 38 c 0
 451 40 490 57 521 88 c 0
 551 118 569 150 587 210 c 0
 609 280 613 301 612 331 c 0
 612 343 612 348 610 355 c 0
 602 386 577 407 539 412 c 0
EndSplineSet
EndChar

StartChar: q
Encoding: 113 113 101
Width: 704
Flags: HW
LayerCount: 2
Fore
SplineSet
458 456 m 0
 469 457 515 456 525 455 c 0
 572 448 607 431 633 404 c 2
 639 398 l 1
 648 408 l 2
 654 414 663 421 669 425 c 0
 687 437 728 457 735 457 c 0
 747 457 758 447 758 435 c 0
 758 431 738 363 685 189 c 0
 646 56 612 -56 610 -62 c 0
 603 -90 599 -119 600 -130 c 0
 602 -142 613 -148 639 -150 c 0
 652 -150 655 -151 657 -155 c 0
 660 -159 659 -161 655 -174 c 0
 651 -189 650 -192 646 -194 c 0
 643 -195 642 -194 617 -191 c 0
 580 -186 566 -186 517 -186 c 0
 466 -185 448 -187 408 -191 c 0
 398 -193 388 -195 387 -194 c 0
 384 -193 381 -189 380 -186 c 0
 380 -182 387 -158 389 -154 c 0
 391 -151 394 -150 401 -150 c 0
 411 -150 426 -147 434 -145 c 0
 459 -138 470 -125 487 -81 c 0
 491 -72 496 -59 498 -52 c 0
 503 -37 527 43 526 43 c 2
 526 43 523 41 519 39 c 0
 502 29 469 13 450 8 c 0
 407 -4 367 -8 323 -5 c 0
 270 -1 229 11 196 33 c 0
 160 57 140 86 131 128 c 0
 128 140 127 171 129 186 c 0
 133 222 145 258 167 294 c 0
 216 376 304 434 410 451 c 0
 425 453 435 455 458 456 c 0
515 411 m 0
 502 412 468 413 455 412 c 0
 430 410 401 401 381 391 c 0
 366 383 346 370 335 359 c 0
 302 328 281 292 261 224 c 0
 249 183 244 160 243 136 c 0
 241 82 269 50 327 40 c 0
 340 38 379 38 396 40 c 0
 452 48 504 71 541 106 c 2
 548 114 l 1
 583 228 l 1
 617 344 l 1
 614 348 l 2
 611 356 602 368 595 375 c 0
 577 393 549 406 515 411 c 0
EndSplineSet
EndChar

StartChar: r
Encoding: 114 114 102
Width: 704
Flags: HW
LayerCount: 2
Fore
SplineSet
224 456 m 0
 233 457 267 457 284 455 c 0
 328 449 365 433 383 410 c 0
 392 399 399 378 399 365 c 2
 399 361 l 1
 407 369 l 2
 462 421 518 450 580 456 c 0
 592 457 622 457 636 455 c 0
 694 448 737 424 753 391 c 0
 760 376 762 369 761 351 c 0
 761 338 761 334 759 326 c 0
 752 301 740 282 722 269 c 0
 688 243 645 241 620 265 c 0
 610 274 604 287 604 303 c 0
 604 318 607 331 615 347 c 0
 626 369 648 386 672 394 c 2
 680 397 l 1
 671 400 l 2
 648 408 628 412 597 412 c 0
 573 412 566 412 549 407 c 0
 525 402 502 391 480 376 c 0
 461 364 451 355 432 337 c 0
 416 320 405 307 391 289 c 0
 373 264 378 278 341 156 c 0
 323 96 307 43 305 39 c 0
 298 23 286 10 270 1 c 0
 255 -6 240 -8 226 -4 c 0
 209 -1 199 11 195 27 c 0
 194 34 194 36 195 44 c 0
 196 49 216 119 241 200 c 0
 267 285 286 350 286 354 c 0
 287 363 287 373 284 381 c 0
 276 407 245 419 216 409 c 0
 203 405 194 398 181 385 c 0
 163 366 146 337 137 306 c 0
 131 289 131 289 112 289 c 0
 98 289 94 290 92 295 c 0
 89 299 90 301 93 313 c 0
 110 362 139 406 172 431 c 0
 188 443 208 452 224 456 c 0
EndSplineSet
EndChar

StartChar: s
Encoding: 115 115 103
Width: 704
Flags: HW
LayerCount: 2
Fore
SplineSet
432 456 m 0
 455 457 542 457 574 456 c 0
 648 453 692 445 723 430 c 0
 740 421 750 411 757 398 c 0
 771 369 759 327 730 305 c 0
 715 295 699 290 683 290 c 0
 668 290 655 294 646 303 c 0
 637 311 632 327 634 340 c 0
 636 362 648 382 664 395 c 2
 670 400 l 1
 666 401 l 2
 653 404 623 409 590 411 c 0
 562 413 432 413 414 411 c 0
 373 407 337 398 315 388 c 0
 299 380 286 367 281 355 c 0
 277 346 276 336 280 329 c 0
 282 325 291 317 299 314 c 0
 317 307 324 306 442 292 c 0
 524 283 541 280 568 275 c 0
 649 258 691 229 699 185 c 0
 703 163 699 141 687 116 c 0
 657 59 590 19 492 3 c 0
 455 -3 429 -5 361 -6 c 0
 263 -7 209 -4 167 5 c 0
 100 20 71 54 81 105 c 0
 91 153 130 187 178 187 c 0
 224 187 247 151 231 105 c 0
 224 85 211 67 193 54 c 2
 183 48 l 1
 196 46 l 2
 229 41 256 39 330 38 c 0
 392 38 425 39 456 42 c 0
 497 45 539 56 565 68 c 0
 583 77 600 90 608 102 c 0
 615 114 617 131 613 140 c 0
 607 152 590 162 559 168 c 0
 545 171 541 172 441 183 c 0
 328 196 314 199 284 207 c 0
 249 217 220 234 207 251 c 0
 197 265 191 281 191 298 c 0
 191 327 205 357 229 382 c 0
 249 404 271 418 303 430 c 0
 340 444 382 453 432 456 c 0
EndSplineSet
EndChar

StartChar: t
Encoding: 116 116 104
Width: 704
Flags: HW
LayerCount: 2
Fore
SplineSet
459 645 m 0
 466 646 476 646 483 645 c 0
 491 643 502 637 507 632 c 0
 514 624 516 617 516 604 c 2
 516 593 l 1
 496 522 l 2
 484 483 474 452 474 452 c 2
 474 451 517 451 569 451 c 2
 665 451 l 1
 667 447 l 2
 669 446 670 443 671 442 c 0
 671 437 663 412 659 409 c 2
 657 407 l 1
 559 406 l 1
 460 406 l 1
 415 254 l 1
 370 103 l 1
 370 90 l 2
 370 77 370 76 373 70 c 0
 379 56 393 45 410 40 c 0
 419 38 447 38 463 40 c 0
 534 51 595 91 629 147 c 0
 633 154 636 160 638 161 c 0
 642 163 666 163 670 160 c 0
 673 159 676 154 676 150 c 0
 676 147 665 128 657 117 c 0
 630 78 594 48 549 25 c 0
 518 10 493 1 459 -4 c 0
 443 -6 397 -6 379 -4 c 0
 329 3 295 16 273 39 c 0
 259 54 253 77 256 99 c 0
 257 104 273 163 302 256 c 0
 326 338 346 405 346 406 c 1
 252 406 l 2
 185 406 156 406 155 407 c 0
 152 408 148 413 148 416 c 0
 148 419 156 442 158 445 c 0
 159 447 160 449 162 450 c 0
 163 451 193 451 262 451 c 2
 360 451 l 1
 382 524 l 2
 407 605 409 611 419 623 c 0
 429 633 444 641 459 645 c 0
EndSplineSet
EndChar

StartChar: u
Encoding: 117 117 105
Width: 704
Flags: HW
LayerCount: 2
Fore
SplineSet
225 455 m 0
 256 460 299 452 325 438 c 0
 347 427 360 411 367 391 c 0
 369 385 369 382 369 372 c 0
 369 355 366 347 352 315 c 0
 309 222 295 183 287 140 c 0
 284 123 284 95 287 84 c 0
 295 54 316 40 354 38 c 0
 398 36 443 57 483 100 c 2
 495 113 l 1
 539 258 l 2
 571 361 584 406 586 411 c 0
 593 425 606 436 620 443 c 0
 644 454 667 452 683 439 c 0
 692 431 696 414 694 401 c 0
 693 397 674 328 649 247 c 0
 601 86 601 89 604 71 c 0
 606 52 617 40 634 38 c 0
 649 37 663 43 677 56 c 0
 695 75 710 102 723 142 c 0
 728 156 728 159 732 160 c 0
 736 163 760 163 764 160 c 0
 767 159 770 154 770 151 c 0
 770 147 761 119 755 105 c 0
 732 54 705 20 671 3 c 0
 656 -4 650 -5 627 -5 c 0
 605 -5 592 -4 575 1 c 0
 540 9 513 27 502 49 c 0
 500 53 499 56 498 56 c 2
 498 56 491 52 484 46 c 0
 467 32 455 24 437 15 c 0
 401 -3 371 -8 324 -5 c 0
 268 -1 230 13 203 40 c 0
 177 67 168 111 179 163 c 0
 185 198 200 233 238 316 c 0
 257 359 260 367 260 384 c 0
 260 403 253 413 239 413 c 0
 202 413 164 387 135 345 c 0
 125 330 121 321 113 298 c 0
 110 290 106 289 91 289 c 0
 76 289 73 290 70 295 c 0
 68 299 69 303 73 316 c 0
 101 388 162 446 225 455 c 0
EndSplineSet
EndChar

StartChar: v
Encoding: 118 118 106
Width: 704
Flags: HW
LayerCount: 2
Fore
SplineSet
678 457 m 0
 685 458 687 458 695 457 c 0
 710 454 729 442 738 430 c 0
 763 396 763 343 737 256 c 0
 712 176 660 101 589 49 c 0
 556 24 516 5 482 -1 c 0
 462 -6 452 -6 422 -6 c 0
 359 -4 320 3 285 19 c 0
 254 34 236 50 224 75 c 0
 211 102 208 129 214 164 c 0
 219 195 233 230 273 312 c 0
 283 332 293 352 293 355 c 0
 298 369 297 384 292 394 c 0
 289 400 281 408 274 410 c 0
 260 415 236 412 211 402 c 0
 189 394 172 382 155 365 c 0
 133 343 123 326 113 298 c 0
 110 290 106 289 91 289 c 0
 76 289 73 290 71 295 c 0
 68 299 69 302 72 312 c 0
 78 329 90 353 103 370 c 0
 115 387 142 410 161 423 c 0
 172 430 192 440 203 444 c 0
 237 457 274 460 315 452 c 0
 357 444 389 425 401 400 c 0
 406 389 409 378 409 368 c 0
 408 353 404 345 385 305 c 0
 346 225 331 189 325 156 c 0
 323 142 323 108 325 99 c 0
 329 84 340 67 353 59 c 0
 373 45 413 37 453 38 c 0
 478 39 499 45 525 57 c 0
 592 91 657 165 686 242 c 0
 696 269 697 280 691 293 c 0
 684 307 668 321 640 335 c 0
 623 344 616 348 611 359 c 0
 608 366 608 368 608 379 c 0
 608 393 610 401 617 415 c 0
 629 437 654 454 678 457 c 0
EndSplineSet
EndChar

StartChar: w
Encoding: 119 119 107
Width: 704
Flags: HW
LayerCount: 2
Fore
SplineSet
762 456 m 0
 771 458 775 458 784 456 c 0
 797 454 814 443 823 432 c 0
 839 410 845 378 837 334 c 0
 831 298 814 240 800 204 c 0
 760 108 705 40 644 10 c 0
 630 3 619 0 605 -3 c 0
 595 -5 592 -5 566 -5 c 0
 529 -5 506 -3 479 4 c 0
 445 12 416 31 400 51 c 2
 394 59 l 1
 380 45 l 2
 362 27 350 18 332 8 c 0
 306 -4 291 -7 254 -6 c 0
 217 -5 194 -2 168 5 c 0
 133 13 102 32 85 55 c 0
 81 61 73 78 70 87 c 0
 62 115 63 146 72 182 c 0
 74 189 79 200 110 267 c 0
 121 292 132 316 133 321 c 0
 143 348 146 374 141 389 c 0
 137 399 130 406 119 407 c 0
 112 407 108 409 105 413 c 0
 103 416 105 423 109 435 c 0
 112 444 113 447 116 449 c 0
 119 451 120 451 131 451 c 0
 154 450 172 444 191 435 c 0
 215 423 231 409 241 387 c 0
 247 374 249 364 249 348 c 0
 249 332 248 321 243 309 c 0
 242 305 230 280 217 252 c 0
 186 185 184 181 181 167 c 0
 176 147 175 137 175 119 c 0
 175 105 175 100 177 94 c 0
 186 60 211 43 257 39 c 0
 288 36 308 40 330 53 c 0
 344 63 360 79 373 97 c 2
 379 105 l 1
 378 119 l 2
 378 135 379 151 382 167 c 0
 386 186 451 401 456 411 c 0
 463 425 474 436 489 443 c 0
 513 454 537 452 553 439 c 0
 562 431 566 414 564 401 c 0
 563 397 547 344 529 283 c 0
 495 170 492 158 489 141 c 0
 487 126 487 102 490 92 c 0
 498 59 521 43 563 39 c 0
 605 34 641 48 676 82 c 0
 715 120 746 177 769 247 c 0
 778 274 778 285 770 298 c 0
 763 310 742 327 724 336 c 0
 704 346 695 360 695 380 c 0
 695 400 708 423 726 438 c 0
 738 448 749 454 762 456 c 0
EndSplineSet
EndChar

StartChar: x
Encoding: 120 120 108
Width: 704
Flags: HW
LayerCount: 2
Fore
SplineSet
289 456 m 0
 291 457 304 457 319 456 c 0
 369 456 402 448 435 433 c 0
 458 422 474 408 484 393 c 2
 489 386 l 1
 495 392 l 2
 507 408 531 426 556 437 c 0
 586 451 616 458 649 457 c 0
 691 455 725 444 752 422 c 0
 762 414 770 403 776 392 c 0
 782 377 783 371 783 352 c 0
 783 337 783 334 781 326 c 0
 773 295 755 272 727 259 c 0
 684 237 638 252 629 289 c 0
 626 300 627 318 632 332 c 0
 635 342 643 356 649 364 c 0
 660 377 680 390 697 395 c 2
 706 397 l 1
 698 400 l 2
 684 407 665 412 643 413 c 0
 612 414 582 406 556 391 c 0
 539 380 520 361 513 346 c 0
 510 338 448 137 445 121 c 0
 442 106 442 83 445 75 c 0
 448 68 457 57 465 52 c 0
 472 47 487 43 501 40 c 0
 515 38 552 38 568 40 c 0
 620 48 664 69 694 101 c 0
 709 117 719 133 726 153 c 0
 729 161 733 162 748 162 c 0
 758 162 762 162 764 160 c 0
 767 159 770 154 770 151 c 0
 770 145 760 119 751 105 c 0
 719 55 656 14 586 0 c 0
 560 -5 555 -6 523 -5 c 0
 491 -5 478 -4 454 1 c 0
 410 9 370 30 353 56 c 2
 348 65 l 1
 342 57 l 2
 330 42 308 25 286 14 c 0
 246 -4 204 -10 161 -3 c 0
 113 5 77 26 62 58 c 0
 56 73 55 79 55 98 c 0
 55 113 55 117 57 125 c 0
 64 150 76 168 94 181 c 0
 128 207 172 209 197 185 c 0
 207 176 212 163 212 147 c 0
 212 132 209 119 201 103 c 0
 189 81 168 64 142 55 c 2
 133 52 l 1
 141 49 l 2
 151 45 165 42 177 40 c 0
 189 38 220 38 230 40 c 0
 242 43 260 48 270 53 c 0
 294 64 316 85 325 104 c 0
 329 112 388 311 392 328 c 0
 397 352 396 371 389 382 c 0
 383 392 371 401 356 406 c 0
 342 411 330 412 305 412 c 0
 280 412 268 411 248 406 c 0
 207 397 173 378 147 352 c 0
 129 334 121 322 113 298 c 0
 110 290 106 289 91 289 c 0
 81 289 77 289 75 291 c 0
 72 292 69 297 69 300 c 0
 69 307 79 331 88 346 c 0
 123 401 198 446 276 455 c 0
 281 456 287 456 289 456 c 0
EndSplineSet
EndChar

StartChar: y
Encoding: 121 121 109
Width: 704
Flags: HW
LayerCount: 2
Fore
SplineSet
237 455 m 0
 247 457 267 457 281 456 c 0
 332 451 372 430 386 401 c 0
 391 390 393 383 393 371 c 0
 393 355 391 347 375 313 c 0
 333 225 318 190 310 153 c 0
 298 91 314 54 361 43 c 0
 389 36 421 37 449 46 c 0
 485 57 514 77 547 110 c 0
 553 117 559 123 560 125 c 0
 560 126 579 189 602 265 c 0
 645 408 646 413 655 424 c 0
 668 439 692 451 711 451 c 0
 723 451 735 446 744 439 c 0
 753 431 758 414 756 401 c 0
 754 390 635 -7 629 -20 c 0
 624 -34 616 -49 608 -60 c 0
 551 -145 426 -201 292 -201 c 0
 236 -201 189 -193 162 -179 c 0
 129 -163 115 -136 122 -102 c 0
 129 -67 151 -41 186 -28 c 0
 199 -23 221 -21 234 -24 c 0
 250 -28 264 -38 271 -51 c 0
 276 -62 278 -73 276 -85 c 0
 273 -112 259 -137 239 -152 c 2
 236 -155 l 1
 246 -156 l 1
 289 -156 l 2
 325 -156 330 -156 352 -151 c 0
 412 -136 467 -96 500 -46 c 0
 513 -26 518 -16 528 18 c 0
 532 31 536 43 536 44 c 1
 536 44 529 41 523 37 c 0
 492 17 462 3 429 -3 c 0
 407 -7 364 -7 332 -2 c 0
 287 4 254 17 229 40 c 0
 220 50 215 57 208 70 c 0
 198 92 195 120 199 150 c 0
 204 190 216 222 268 332 c 0
 279 356 282 364 282 378 c 0
 282 391 280 397 273 404 c 0
 269 408 266 410 262 412 c 0
 246 416 213 408 189 394 c 0
 156 375 129 341 116 306 c 0
 111 293 110 292 106 291 c 0
 102 288 79 288 75 291 c 0
 72 292 69 297 69 300 c 0
 69 304 74 320 80 332 c 0
 98 370 125 401 161 425 c 0
 186 441 210 451 237 455 c 0
EndSplineSet
EndChar

StartChar: z
Encoding: 122 122 110
Width: 704
Flags: HW
LayerCount: 2
Fore
SplineSet
379 456 m 0
 389 457 409 457 419 455 c 0
 444 452 460 445 500 425 c 0
 551 400 568 394 597 394 c 0
 611 394 621 395 634 400 c 0
 658 407 683 424 701 446 c 0
 711 456 711 457 726 457 c 0
 740 457 743 456 746 452 c 0
 749 448 748 441 745 436 c 0
 731 417 691 378 657 350 c 0
 606 309 562 281 447 215 c 0
 368 171 331 149 299 126 c 0
 283 116 260 99 260 98 c 1
 260 98 263 99 266 99 c 0
 269 100 294 100 321 101 c 0
 347 102 386 103 408 104 c 0
 428 104 475 105 512 106 c 0
 548 107 582 108 588 109 c 0
 633 113 657 121 672 136 c 0
 678 143 681 148 683 155 c 0
 685 162 689 163 705 163 c 0
 716 163 719 163 721 161 c 0
 729 157 727 147 715 121 c 0
 699 89 675 64 640 40 c 0
 620 27 588 12 564 5 c 0
 530 -4 491 -8 465 -5 c 0
 439 -1 424 6 384 25 c 0
 329 53 313 57 278 56 c 0
 256 55 245 53 226 47 c 0
 200 39 182 27 164 9 c 0
 148 -7 149 -6 134 -6 c 0
 120 -6 117 -5 114 -1 c 0
 111 3 112 9 115 14 c 0
 129 33 169 72 203 100 c 0
 254 141 298 169 414 234 c 0
 493 279 529 302 563 326 c 0
 579 337 597 349 597 349 c 1
 596 350 510 348 476 347 c 0
 453 346 406 344 369 344 c 0
 306 343 288 342 272 340 c 0
 263 338 255 336 254 334 c 2
 250 330 l 2
 247 328 244 328 234 328 c 0
 221 328 216 329 213 333 c 0
 211 337 212 345 217 355 c 0
 230 388 256 413 295 432 c 0
 303 436 316 441 321 443 c 0
 336 449 362 455 379 456 c 0
EndSplineSet
EndChar

StartChar: braceleft
Encoding: 123 123 111
Width: 704
Flags: HW
LayerCount: 2
Fore
SplineSet
751 758 m 0
 755 758 774 759 791 759 c 0
 823 759 823 759 827 757 c 0
 832 753 833 748 829 735 c 0
 825 720 824 719 821 717 c 0
 818 715 816 715 806 715 c 0
 792 715 763 713 746 711 c 0
 699 706 664 694 638 678 c 0
 622 667 605 647 599 632 c 0
 598 629 579 570 559 500 c 0
 518 363 517 361 504 341 c 0
 478 303 428 273 361 259 c 2
 346 255 l 1
 350 254 l 2
 361 251 384 244 393 240 c 0
 429 223 449 197 452 163 c 0
 453 146 452 140 410 3 c 0
 373 -122 372 -126 371 -136 c 0
 371 -144 371 -148 373 -152 c 0
 383 -184 429 -200 513 -203 c 0
 537 -203 540 -204 542 -209 c 0
 545 -213 544 -215 541 -227 c 0
 537 -240 535 -244 531 -246 c 0
 528 -247 524 -247 485 -247 c 0
 442 -246 425 -245 399 -242 c 0
 318 -234 274 -210 260 -169 c 0
 257 -158 256 -139 259 -124 c 0
 260 -119 278 -59 298 9 c 0
 318 77 336 135 337 140 c 0
 339 150 338 164 335 173 c 0
 323 208 271 230 199 233 c 0
 187 233 178 235 176 236 c 0
 173 237 169 242 169 246 c 0
 169 249 175 270 177 273 c 0
 180 277 186 279 199 279 c 0
 221 279 248 282 273 288 c 0
 340 302 388 334 407 375 c 0
 410 381 422 425 447 507 c 0
 467 575 485 634 487 639 c 0
 504 686 543 718 603 737 c 0
 640 748 692 756 751 758 c 0
EndSplineSet
EndChar

StartChar: bar
Encoding: 124 124 112
Width: 704
Flags: HW
LayerCount: 2
Fore
SplineSet
561 757 m 0
 564 758 568 759 572 759 c 0
 587 758 598 746 600 732 c 0
 600 727 590 692 457 249 c 0
 378 -14 312 -231 311 -233 c 0
 306 -241 295 -248 285 -247 c 0
 271 -245 259 -234 258 -220 c 0
 258 -215 268 -179 401 264 c 0
 480 526 546 743 547 745 c 0
 550 749 556 756 561 757 c 0
EndSplineSet
EndChar

StartChar: braceright
Encoding: 125 125 113
Width: 704
Flags: HW
LayerCount: 2
Fore
SplineSet
326 758 m 0
 328 759 334 759 372 759 c 0
 415 758 430 757 459 754 c 0
 517 748 557 734 581 711 c 0
 589 702 593 694 597 682 c 0
 600 675 600 671 601 659 c 0
 601 650 601 644 600 638 c 0
 599 633 580 573 560 504 c 0
 540 434 522 374 521 371 c 0
 519 362 520 347 523 340 c 0
 535 304 587 281 658 279 c 0
 673 279 678 277 682 276 c 0
 689 272 689 269 685 254 c 0
 679 234 680 233 652 233 c 0
 615 232 583 226 550 215 c 0
 502 199 467 171 452 137 c 0
 450 131 435 83 410 2 c 0
 390 -69 370 -130 368 -134 c 0
 341 -195 277 -230 171 -242 c 0
 140 -245 124 -246 78 -247 c 2
 34 -247 l 1
 31 -245 l 2
 25 -241 24 -236 28 -223 c 0
 34 -201 31 -203 61 -203 c 0
 134 -201 186 -189 220 -166 c 0
 236 -155 253 -135 259 -120 c 0
 260 -117 279 -58 299 12 c 0
 340 149 341 151 354 171 c 0
 380 209 430 239 498 253 c 2
 513 257 l 1
 508 258 l 2
 470 267 440 284 425 302 c 0
 415 315 409 332 407 349 c 0
 406 366 406 371 447 506 c 0
 467 574 485 633 486 636 c 0
 487 645 487 658 485 665 c 0
 478 687 453 701 409 709 c 0
 387 712 357 715 334 715 c 0
 322 715 317 716 315 721 c 0
 312 725 313 727 316 739 c 0
 320 752 322 756 326 758 c 0
EndSplineSet
EndChar

StartChar: tilde
Encoding: 732 732 114
Width: 704
Flags: HW
LayerCount: 2
Fore
SplineSet
456 639 m 0
 457 640 466 640 475 639 c 0
 501 639 515 634 553 618 c 0
 589 603 603 600 627 600 c 0
 658 600 685 608 728 630 c 0
 740 635 751 640 752 640 c 0
 755 640 758 638 760 636 c 0
 760 635 763 629 765 623 c 0
 769 612 770 608 767 604 c 0
 765 602 711 571 693 562 c 0
 661 547 631 536 605 532 c 0
 585 530 565 532 547 537 c 0
 534 540 525 543 500 553 c 0
 489 558 476 563 472 564 c 0
 427 579 385 573 323 540 c 0
 308 533 305 531 302 531 c 0
 297 532 295 536 290 549 c 0
 286 561 285 564 289 568 c 0
 292 570 347 601 362 609 c 0
 391 623 422 635 445 638 c 0
 449 639 455 639 456 639 c 0
EndSplineSet
EndChar

StartChar: dieresis
Encoding: 168 168 115
Width: 704
Flags: HW
LayerCount: 2
Fore
SplineSet
385 639 m 0
 388 640 395 641 400 641 c 0
 440 641 467 608 458 571 c 0
 447 525 389 496 347 513 c 0
 324 523 311 547 315 572 c 0
 318 587 325 600 336 612 c 0
 348 625 367 636 385 639 c 0
658 639 m 0
 681 644 704 638 718 624 c 0
 735 607 738 581 725 555 c 0
 717 539 702 526 685 517 c 0
 672 511 663 509 651 508 c 0
 627 507 606 519 596 536 c 0
 587 551 587 575 596 593 c 0
 607 616 631 634 658 639 c 0
EndSplineSet
EndChar

StartChar: gravecomb
Encoding: 768 768 116
Width: 704
Flags: HW
LayerCount: 2
Fore
SplineSet
383 644 m 0
 386 644 390 645 393 645 c 0
 399 645 411 642 417 639 c 0
 420 637 456 613 495 584 c 0
 572 530 571 528 570 522 c 0
 569 519 556 499 552 496 c 0
 550 494 548 493 546 493 c 0
 542 493 358 530 350 532 c 0
 332 538 322 552 322 570 c 0
 322 602 350 637 383 644 c 0
EndSplineSet
EndChar

StartChar: acutecomb
Encoding: 769 769 117
Width: 704
Flags: HW
LayerCount: 2
Fore
SplineSet
680 644 m 0
 691 646 706 644 715 638 c 0
 726 630 734 611 733 595 c 0
 731 575 718 554 701 543 c 0
 687 534 686 534 569 512 c 0
 511 502 462 493 460 493 c 0
 458 493 456 494 454 496 c 0
 451 498 451 500 450 506 c 0
 449 509 449 516 449 520 c 0
 449 527 449 528 451 530 c 0
 454 533 658 637 668 640 c 0
 671 641 676 643 680 644 c 0
EndSplineSet
EndChar

StartChar: uni0302
Encoding: 770 770 118
Width: 704
Flags: HW
LayerCount: 2
Fore
SplineSet
470 609 m 0
 508 625 540 640 541 640 c 0
 544 640 542 641 636 583 c 0
 702 542 703 541 703 535 c 0
 703 532 702 529 694 519 c 0
 686 507 683 504 680 504 c 0
 678 503 655 510 600 528 c 0
 558 543 522 555 521 555 c 0
 520 555 478 542 427 528 c 0
 335 502 334 503 330 504 c 0
 325 507 324 509 323 523 c 0
 320 542 317 539 364 561 c 0
 384 570 432 592 470 609 c 0
EndSplineSet
EndChar

StartChar: uni030C
Encoding: 780 780 119
Width: 704
Flags: HW
LayerCount: 2
Fore
SplineSet
352 602 m 0
 354 603 356 604 358 604 c 0
 359 603 396 597 440 589 c 2
 521 574 l 1
 612 589 l 2
 696 603 704 604 707 603 c 0
 714 600 715 591 713 573 c 0
 713 567 712 565 710 564 c 0
 707 561 503 489 500 490 c 0
 498 490 349 557 341 561 c 0
 335 563 332 568 333 573 c 0
 334 574 337 582 341 589 c 0
 347 598 349 601 352 602 c 0
EndSplineSet
EndChar

StartChar: uni0306
Encoding: 774 774 120
Width: 704
Flags: HW
LayerCount: 2
Fore
SplineSet
328 638 m 0
 331 640 333 640 345 640 c 0
 359 640 364 639 366 635 c 0
 367 633 367 631 367 627 c 0
 365 613 365 608 367 603 c 0
 374 588 396 579 442 575 c 0
 459 573 552 573 580 574 c 0
 647 577 680 587 700 609 c 0
 706 615 711 622 714 630 c 0
 717 639 719 640 736 640 c 0
 744 640 751 640 752 639 c 0
 760 635 760 625 749 605 c 0
 722 552 659 520 561 509 c 0
 538 507 478 507 455 509 c 0
 409 514 379 524 353 541 c 0
 328 557 316 583 319 612 c 0
 320 626 324 636 328 638 c 0
EndSplineSet
EndChar

StartChar: uni030A
Encoding: 778 778 121
Width: 704
Flags: HW
LayerCount: 2
Fore
SplineSet
528 648 m 0
 536 649 558 649 567 648 c 0
 595 645 613 634 621 618 c 0
 624 611 624 610 624 601 c 0
 624 589 621 581 615 570 c 0
 610 562 597 549 588 544 c 0
 566 531 539 523 509 523 c 0
 470 523 443 535 434 554 c 0
 432 560 432 561 432 572 c 0
 432 582 432 585 434 591 c 0
 438 601 445 609 453 617 c 0
 462 625 467 629 478 635 c 0
 491 641 510 647 528 648 c 0
561 616 m 0
 553 617 520 617 511 616 c 0
 492 613 481 605 476 583 c 0
 470 560 478 555 519 555 c 0
 559 555 570 560 578 585 c 0
 581 595 582 603 579 608 c 0
 577 612 571 615 561 616 c 0
EndSplineSet
EndChar

StartChar: tildecomb
Encoding: 771 771 122
Width: 704
Flags: HW
LayerCount: 2
Fore
SplineSet
456 639 m 0
 457 640 466 640 475 639 c 0
 501 639 515 634 553 618 c 0
 589 603 603 600 627 600 c 0
 658 600 685 608 728 630 c 0
 740 635 751 640 752 640 c 0
 755 640 758 638 760 636 c 0
 760 635 763 629 765 623 c 0
 769 612 770 608 767 604 c 0
 765 602 711 571 693 562 c 0
 661 547 631 536 605 532 c 0
 585 530 565 532 547 537 c 0
 534 540 525 543 500 553 c 0
 489 558 476 563 472 564 c 0
 427 579 385 573 323 540 c 0
 308 533 305 531 302 531 c 0
 297 532 295 536 290 549 c 0
 286 561 285 564 289 568 c 0
 292 570 347 601 362 609 c 0
 391 623 422 635 445 638 c 0
 449 639 455 639 456 639 c 0
EndSplineSet
EndChar

StartChar: uni0304
Encoding: 772 772 123
Width: 704
Flags: HW
LayerCount: 2
Fore
SplineSet
278 587 m 0
 281 588 770 588 773 587 c 0
 776 586 779 581 779 578 c 0
 779 575 768 539 767 536 c 0
 764 531 779 530 514 530 c 0
 297 530 268 530 265 532 c 0
 258 535 258 538 266 563 c 0
 271 581 274 585 278 587 c 0
EndSplineSet
EndChar

StartChar: uni0305
Encoding: 773 773 124
Width: 704
Flags: HW
LayerCount: 2
Fore
SplineSet
15 -241 m 0
 18 -240 61 -240 271 -240 c 0
 520 -240 523 -240 528 -242 c 0
 539 -246 547 -256 547 -268 c 0
 547 -280 539 -291 528 -295 c 0
 523 -297 520 -297 271 -297 c 0
 110 -297 18 -297 16 -296 c 0
 6 -293 -2 -283 -4 -273 c 0
 -7 -260 1 -246 15 -241 c 0
EndSplineSet
EndChar

StartChar: uni0308
Encoding: 776 776 125
Width: 704
Flags: HW
LayerCount: 2
Fore
SplineSet
385 639 m 0
 388 640 395 641 400 641 c 0
 440 641 467 608 458 571 c 0
 447 525 389 496 347 513 c 0
 324 523 311 547 315 572 c 0
 318 587 325 600 336 612 c 0
 348 625 367 636 385 639 c 0
658 639 m 0
 681 644 704 638 718 624 c 0
 735 607 738 581 725 555 c 0
 717 539 702 526 685 517 c 0
 672 511 663 509 651 508 c 0
 627 507 606 519 596 536 c 0
 587 551 587 575 596 593 c 0
 607 616 631 634 658 639 c 0
EndSplineSet
EndChar

StartChar: uni0327
Encoding: 807 807 126
Width: 704
Flags: HW
LayerCount: 2
Fore
SplineSet
344 8 m 0
 346 9 362 9 396 9 c 2
 445 9 l 1
 447 6 l 2
 451 2 453 -1 450 -11 c 2
 446 -19 l 1
 453 -19 l 2
 479 -22 503 -29 517 -35 c 0
 543 -47 555 -63 555 -87 c 0
 555 -121 535 -146 494 -162 c 0
 440 -185 362 -193 220 -193 c 2
 159 -193 l 1
 157 -190 l 2
 152 -186 152 -183 157 -170 c 0
 161 -155 162 -153 166 -151 c 0
 167 -151 187 -150 220 -150 c 0
 272 -149 294 -147 325 -144 c 0
 388 -139 427 -126 437 -108 c 0
 442 -99 443 -86 439 -81 c 0
 430 -68 399 -60 347 -60 c 0
 339 -60 332 -60 331 -59 c 0
 328 -58 325 -53 325 -50 c 0
 325 -47 339 0 341 4 c 0
 341 5 343 7 344 8 c 0
EndSplineSet
EndChar

StartChar: guillemotleft
Encoding: 171 171 400
Width: 704
Flags: HW
LayerCount: 2
Fore
SplineSet
538 588 m 0
 547 591 557 588 565 581 c 0
 576 569 576 552 565 541 c 0
 562 538 210 261 195 250 c 1
 195 250 238 187 290 110 c 0
 343 32 387 -34 388 -36 c 0
 391 -42 391 -54 388 -60 c 0
 385 -66 381 -71 376 -74 c 0
 365 -79 352 -77 344 -70 c 0
 339 -66 135 234 130 244 c 0
 126 251 127 262 130 269 c 0
 132 271 134 275 136 276 c 0
 141 281 528 584 531 586 c 0
 533 587 537 588 538 588 c 0
787 588 m 2
 796 591 809 588 816 581 c 0
 827 569 827 551 815 539 c 0
 812 537 729 471 630 393 c 0
 530 315 447 251 447 251 c 2
 446 250 476 206 543 108 c 0
 595 31 639 -35 640 -37 c 0
 643 -43 643 -53 640 -59 c 0
 635 -70 622 -78 611 -77 c 0
 605 -76 597 -72 593 -69 c 0
 592 -67 543 3 486 88 c 0
 411 198 381 244 380 248 c 0
 377 255 378 261 382 269 c 0
 384 274 392 281 581 428 c 0
 689 512 777 582 779 584 c 2
 787 588 l 2
EndSplineSet
EndChar

StartChar: guillemotright
Encoding: 187 187 401
Width: 704
Flags: HW
LayerCount: 2
Fore
SplineSet
240 588 m 0
 248 591 259 588 265 582 c 0
 272 576 479 270 481 264 c 0
 484 255 481 245 475 238 c 0
 469 232 83 -71 77 -74 c 0
 66 -79 53 -77 44 -69 c 0
 33 -57 33 -40 44 -29 c 0
 47 -26 373 229 415 262 c 1
 415 262 371 325 319 403 c 0
 266 480 222 546 221 548 c 0
 218 554 218 566 221 572 c 0
 225 580 232 586 240 588 c 0
489 588 m 0
 498 591 511 588 518 580 c 0
 523 575 728 273 731 267 c 0
 736 257 733 243 724 234 c 0
 721 232 631 163 525 79 c 0
 383 -33 329 -74 326 -75 c 0
 315 -79 300 -75 293 -66 c 0
 289 -61 287 -51 287 -45 c 0
 288 -40 292 -31 295 -28 c 0
 296 -27 380 39 481 118 c 0
 582 197 665 262 665 262 c 2
 665 263 558 422 476 541 c 0
 470 551 468 557 470 565 c 0
 472 575 479 584 489 588 c 0
EndSplineSet
EndChar

StartChar: sterling
Encoding: 163 163 402
Width: 704
Flags: HW
LayerCount: 2
Fore
SplineSet
563 655 m 0
 577 656 607 655 617 653 c 0
 644 647 668 631 683 611 c 0
 695 595 704 570 706 545 c 0
 708 517 701 482 690 460 c 0
 678 434 654 415 625 408 c 0
 614 405 596 405 586 407 c 0
 557 415 541 438 545 468 c 0
 549 498 564 523 589 539 c 0
 607 551 623 555 645 555 c 2
 657 554 l 1
 657 557 l 2
 655 566 648 580 640 589 c 0
 615 618 566 620 529 596 c 0
 509 583 494 563 482 531 c 0
 476 516 471 500 446 420 c 2
 424 344 l 1
 462 343 l 2
 504 342 504 342 506 335 c 0
 507 332 507 329 503 317 c 0
 501 309 499 304 497 302 c 2
 494 299 l 1
 452 298 l 1
 411 298 l 1
 388 223 l 2
 376 182 364 145 362 141 c 0
 358 131 348 110 344 103 c 0
 342 99 341 98 342 98 c 0
 343 97 352 94 362 91 c 0
 411 73 442 67 475 67 c 0
 490 67 497 67 511 72 c 0
 528 77 543 86 555 98 c 0
 564 108 570 117 573 127 c 0
 578 139 580 139 596 139 c 0
 610 139 613 138 616 134 c 0
 620 129 617 117 608 100 c 0
 591 64 560 34 521 15 c 0
 478 -7 438 -11 387 -1 c 0
 362 3 341 10 299 25 c 0
 287 29 275 33 275 33 c 2
 274 33 269 31 264 27 c 0
 224 4 175 -7 129 -6 c 0
 112 -5 99 -2 88 3 c 0
 64 14 59 34 72 61 c 0
 81 80 96 97 121 109 c 0
 138 117 152 122 175 126 c 0
 186 128 218 128 234 127 c 2
 245 126 l 1
 249 138 l 2
 251 144 262 183 274 224 c 2
 297 298 l 1
 272 298 l 2
 245 299 245 299 242 303 c 0
 239 307 240 312 243 325 c 0
 249 344 247 343 283 343 c 2
 310 343 l 1
 313 353 l 2
 315 358 325 392 336 428 c 0
 356 498 359 503 369 523 c 0
 381 547 394 566 411 583 c 0
 450 624 503 649 563 655 c 0
190 54 m 2
 184 55 160 56 156 55 c 0
 141 54 132 51 129 45 c 0
 127 42 127 42 128 40 c 0
 131 38 138 38 148 38 c 0
 161 40 178 44 190 51 c 2
 196 53 l 1
 190 54 l 2
EndSplineSet
EndChar

StartChar: quotedblleft
Encoding: 8220 8220 403
Width: 704
Flags: HW
LayerCount: 2
Fore
SplineSet
516 635 m 0
 529 643 534 642 544 627 c 0
 554 613 553 609 535 598 c 0
 507 581 491 569 466 544 c 0
 437 514 420 493 402 461 c 0
 396 449 390 435 385 421 c 2
 381 413 l 1
 391 417 l 2
 403 423 415 426 428 427 c 0
 461 428 483 414 489 386 c 0
 494 368 489 345 477 325 c 0
 467 309 453 296 436 287 c 0
 395 268 353 276 337 310 c 0
 318 351 328 412 367 482 c 0
 401 542 455 598 516 635 c 0
790 635 m 0
 803 643 807 642 817 627 c 0
 827 613 826 609 808 598 c 0
 780 581 764 569 739 544 c 0
 710 514 694 493 676 461 c 0
 670 449 663 435 658 421 c 2
 654 413 l 1
 665 417 l 2
 677 423 688 426 701 427 c 0
 734 428 757 414 763 386 c 0
 768 368 763 345 751 325 c 0
 741 309 727 296 710 287 c 0
 669 268 626 276 610 310 c 0
 591 351 601 412 640 482 c 0
 674 542 729 598 790 635 c 0
EndSplineSet
EndChar

StartChar: quotedblright
Encoding: 8221 8221 404
Width: 704
Flags: HW
LayerCount: 2
Fore
SplineSet
294 638 m 0
 310 641 327 640 340 634 c 0
 357 626 370 611 375 587 c 0
 377 580 377 575 377 559 c 0
 377 542 377 537 375 526 c 0
 368 493 353 456 331 422 c 0
 300 371 254 324 201 290 c 0
 175 273 173 273 163 288 c 0
 155 299 154 301 156 306 c 0
 158 310 159 311 169 317 c 0
 225 352 272 402 303 458 c 0
 311 472 325 505 323 504 c 2
 323 504 318 502 313 499 c 0
 284 485 249 487 229 505 c 0
 222 511 215 525 214 537 c 0
 211 562 223 593 245 613 c 0
 260 626 276 635 294 638 c 0
567 638 m 0
 583 641 600 640 613 634 c 0
 630 626 643 611 648 587 c 0
 650 580 650 575 650 559 c 0
 650 542 650 537 648 526 c 0
 641 493 626 456 604 422 c 0
 573 371 527 324 474 290 c 0
 448 273 446 273 436 288 c 0
 428 299 427 301 429 306 c 0
 431 310 432 311 442 317 c 0
 498 352 546 402 577 458 c 0
 585 472 598 505 596 504 c 2
 596 504 592 502 587 499 c 0
 558 485 523 487 503 505 c 0
 496 511 488 525 487 537 c 0
 484 562 496 593 518 613 c 0
 533 626 549 635 567 638 c 0
EndSplineSet
EndChar

StartChar: endash
Encoding: 8211 8211 405
Width: 704
Flags: HW
LayerCount: 2
Fore
SplineSet
152 299 m 0
 154 300 146 300 439 300 c 2
 724 300 l 1
 726 297 l 2
 730 293 730 289 726 276 c 0
 722 262 721 259 717 257 c 0
 715 256 670 256 430 256 c 2
 146 257 l 1
 144 259 l 2
 140 263 140 267 144 280 c 0
 148 295 149 297 152 299 c 0
EndSplineSet
EndChar

StartChar: emdash
Encoding: 8212 8212 406
Width: 704
Flags: HW
LayerCount: 2
Fore
SplineSet
112 299 m 0
 114 300 146 300 439 300 c 2
 764 300 l 5
 766 297 l 6
 770 293 770 289 766 276 c 4
 762 262 761 259 757 257 c 4
 755 256 670 256 430 256 c 2
 106 257 l 1
 104 259 l 2
 100 263 100 267 104 280 c 0
 108 295 109 297 112 299 c 0
EndSplineSet
EndChar

StartChar: uniFB00
Encoding: 64256 64256 407
Width: 688
VWidth: 1000
Flags: HW
LayerCount: 2
Fore
SplineSet
425 630 m 0
 431 630 448 631 463 631 c 0
 484 630 491 630 500 628 c 0
 529 623 553 611 568 595 c 0
 577 586 584 572 586 561 c 0
 587 557 587 552 588 551 c 0
 588 549 589 551 595 559 c 0
 607 577 620 590 637 602 c 0
 665 621 702 631 744 631 c 0
 797 631 840 611 856 579 c 0
 862 568 864 559 864 547 c 0
 864 531 861 518 853 502 c 0
 844 484 829 469 810 460 c 0
 779 445 746 447 726 466 c 0
 715 476 710 490 711 508 c 0
 712 520 715 530 721 543 c 0
 729 559 739 571 755 581 c 0
 762 586 762 586 759 587 c 0
 754 588 721 588 715 586 c 0
 708 584 697 579 697 577 c 0
 695 574 666 443 666 440 c 1
 735 440 l 2
 786 440 805 440 807 439 c 0
 810 437 812 433 812 429 c 0
 812 427 806 405 804 401 c 0
 801 396 803 396 727 396 c 2
 656 396 l 1
 656 393 l 1
 651 372 593 106 589 90 c 0
 568 0 543 -61 512 -103 c 0
 487 -135 445 -167 405 -182 c 0
 360 -200 314 -200 279 -184 c 0
 266 -178 258 -172 250 -163 c 0
 242 -155 237 -147 233 -135 c 0
 231 -128 231 -126 231 -112 c 0
 230 -95 232 -86 239 -71 c 0
 250 -49 264 -35 286 -25 c 0
 298 -19 309 -16 322 -15 c 0
 335 -15 345 -17 356 -22 c 0
 371 -30 379 -41 383 -58 c 0
 384 -65 384 -68 383 -76 c 0
 380 -98 370 -119 354 -134 c 0
 346 -142 342 -145 335 -149 c 0
 330 -152 330 -152 332 -153 c 2
 346 -153 l 2
 370 -151 394 -139 418 -114 c 0
 428 -103 429 -102 432 -94 c 0
 441 -71 457 -7 478 88 c 0
 490 143 545 394 545 395 c 0
 545 396 513 396 441 396 c 2
 337 396 l 1
 317 305 l 2
 269 88 267 77 257 40 c 0
 250 16 237 -25 230 -42 c 0
 222 -61 207 -89 199 -101 c 0
 186 -121 167 -142 148 -157 c 0
 109 -188 72 -200 33 -195 c 0
 5 -190 -17 -180 -33 -163 c 0
 -41 -155 -46 -147 -50 -135 c 0
 -52 -128 -52 -126 -52 -112 c 0
 -53 -95 -51 -86 -44 -71 c 0
 -33 -49 -19 -35 3 -25 c 0
 15 -19 26 -16 39 -15 c 0
 52 -15 62 -17 73 -22 c 0
 88 -30 96 -41 100 -58 c 0
 101 -65 101 -68 100 -76 c 0
 97 -98 87 -119 71 -134 c 0
 63 -142 59 -145 52 -149 c 0
 47 -152 47 -152 49 -153 c 2
 60 -153 l 2
 66 -152 69 -152 75 -149 c 0
 86 -143 101 -128 111 -110 c 0
 117 -101 123 -75 190 230 c 0
 209 319 225 393 226 394 c 0
 226 396 223 396 168 396 c 0
 127 396 109 396 108 397 c 0
 104 399 102 402 102 406 c 0
 102 409 108 432 110 435 c 0
 113 440 113 440 176 440 c 2
 236 440 l 1
 241 467 l 2
 248 499 251 509 259 526 c 0
 270 547 280 562 294 576 c 0
 327 609 369 626 425 630 c 0
483 587 m 0
 481 588 433 588 422 587 c 0
 401 585 388 581 383 575 c 0
 376 567 369 544 356 482 c 2
 346 441 l 1
 450 440 l 1
 555 440 l 1
 555 441 557 451 560 462 c 2
 565 484 l 1
 558 477 l 2
 524 446 476 441 449 466 c 0
 438 476 433 490 434 508 c 0
 435 520 438 530 444 543 c 0
 452 559 462 571 478 581 c 0
 484 585 485 586 483 587 c 0
EndSplineSet
EndChar

StartChar: uniFB02
Encoding: 64258 64258 408
Width: 688
VWidth: 1000
Flags: HW
LayerCount: 2
Fore
SplineSet
434 630 m 0
 452 631 493 631 506 630 c 0
 539 627 568 617 587 601 c 0
 596 594 602 587 607 577 c 0
 612 567 614 558 614 546 c 0
 614 541 615 537 615 537 c 1
 615 537 620 555 626 577 c 0
 633 598 639 617 639 618 c 0
 640 620 642 622 643 623 c 0
 646 625 649 625 693 625 c 0
 744 625 743 625 747 619 c 0
 748 617 748 614 748 612 c 0
 747 610 713 494 671 354 c 0
 621 188 594 96 593 90 c 0
 591 79 592 65 595 57 c 0
 601 41 616 34 634 39 c 0
 662 46 686 80 705 137 c 0
 711 154 711 155 715 156 c 0
 719 159 742 159 746 156 c 0
 749 155 752 150 752 147 c 0
 752 143 743 118 737 105 c 0
 723 71 706 44 687 26 c 0
 676 15 668 9 655 3 c 0
 640 -4 629 -6 609 -6 c 0
 579 -5 556 1 535 11 c 0
 520 19 508 28 500 37 c 0
 495 43 488 58 485 67 c 0
 483 76 483 89 484 100 c 0
 485 104 505 173 529 252 c 0
 553 330 572 395 572 395 c 2
 572 396 520 396 457 396 c 2
 342 396 l 1
 342 394 l 2
 341 393 328 330 312 255 c 0
 296 179 280 106 277 91 c 0
 259 14 241 -41 218 -81 c 0
 206 -103 197 -116 180 -134 c 0
 159 -155 139 -170 115 -181 c 0
 92 -193 74 -197 51 -196 c 0
 13 -194 -17 -182 -36 -161 c 0
 -43 -154 -48 -145 -52 -134 c 0
 -54 -127 -54 -125 -54 -112 c 0
 -55 -95 -53 -86 -46 -71 c 0
 -35 -49 -21 -35 1 -25 c 0
 13 -19 24 -16 37 -15 c 0
 50 -15 60 -17 71 -22 c 0
 86 -30 94 -41 98 -58 c 0
 99 -65 99 -68 98 -76 c 0
 95 -98 85 -119 69 -134 c 0
 61 -142 57 -145 50 -149 c 2
 50 -149 45 -152 45 -152 c 1
 45 -152 50 -152 50 -152 c 2
 66 -154 76 -152 87 -144 c 0
 96 -139 107 -126 116 -113 c 2
 123 -103 l 1
 128 -80 l 2
 135 -53 148 4 162 73 c 0
 171 114 229 385 231 393 c 2
 231 396 l 1
 170 396 l 1
 108 397 l 1
 106 399 l 2
 101 403 101 406 106 420 c 0
 110 434 111 437 115 439 c 0
 116 440 137 440 179 440 c 2
 241 440 l 1
 246 465 l 2
 252 496 256 509 264 526 c 0
 275 547 285 561 302 577 c 0
 312 587 320 593 331 600 c 0
 359 618 392 627 434 630 c 0
505 586 m 0
 497 587 444 588 433 587 c 0
 414 585 399 582 392 578 c 0
 385 574 379 558 371 529 c 0
 367 514 352 444 352 441 c 0
 352 440 371 440 469 440 c 2
 586 440 l 1
 595 471 l 2
 600 488 604 503 605 504 c 0
 605 505 603 502 601 499 c 0
 590 478 565 459 542 453 c 0
 509 445 478 455 467 478 c 0
 462 488 461 496 461 508 c 0
 462 520 465 530 471 543 c 0
 479 559 489 571 504 580 c 0
 507 583 510 585 510 585 c 1
 510 585 508 586 505 586 c 0
EndSplineSet
EndChar
